{
.appVersion = "1208";
copyright = "Copyright (c) 2012, vernon adams (vern@newtypography.co.uk), with Reserved Font Names \"Cutive-Mono\"";
customParameters = (
{
name = note;
value = "";
},
{
name = openTypeNameCompatibleFullName;
value = "Cutive-Mono Regular";
},
{
name = description;
value = "Copyright (c) 2012 by Vernon Adams. All rights reserved.";
},
{
name = openTypeNameLicense;
value = "This Font Software is licensed under the SIL Open Font License, Version 1.1. This license is available with a FAQ at: http://scripts.sil.org/OFL";
},
{
name = openTypeNameLicenseURL;
value = "http://scripts.sil.org/OFL";
},
{
name = openTypeNamePreferedFamilyName;
value = "Cutive-Mono";
},
{
name = openTypeNamePreferedSubfamilyName;
value = Regular;
},
{
name = openTypeNameUniqueID;
value = "vernon adams : Cutive-Mono Regular : 16-10-2012";
},
{
name = openTypeNameVersion;
value = "Version 1.002";
},
{
name = openTypeOS2FamilyClass;
value = (
0,
0
);
},
{
name = fsType;
value = (
0,
0,
0,
0,
0,
0,
0,
0,
0,
0,
0,
0,
0,
0,
0,
0
);
},
{
name = unicodeRanges;
value = (
0,
1,
2,
3,
5,
6,
7,
29,
31,
32,
33,
35,
38,
45,
62
);
},
{
name = vendorID;
value = newt;
},
{
name = blueScale;
value = 0.03963;
},
{
name = blueShift;
value = 7;
},
{
name = trademark;
value = "Cutive-Mono is a trademark of Vernon Adams.";
},
{
name = Axes;
value = (
{
Name = Weight;
Tag = wght;
},
{
Name = Width;
Tag = wdth;
}
);
}
);
date = "2018-12-12 23:50:28 +0000";
designer = "Vernon Adams";
designerURL = newtypography.co.uk;
disablesNiceNames = 1;
familyName = "Cutive-Mono";
featurePrefixes = (
{
automatic = 1;
code = "languagesystem DFLT dflt;\012languagesystem latn dflt;\012languagesystem latn CAT;\012languagesystem latn ROM;\012languagesystem latn MOL;\012";
name = Languagesystems;
}
);
features = (
{
automatic = 1;
code = "feature locl;\012feature frac;\012feature ordn;\012";
name = aalt;
},
{
automatic = 1;

glyphs = (
{
glyphname = A;
lastChange = "2018-12-08 16:45:53 +0000";
layers = (
{
anchors = (
{
name = ogonek;
position = "{949, 10}";
},
{
name = top;
position = "{595, 1171}";
}
);
layerId = master01;
paths = (
{
closed = 1;
nodes = (
"398 0 LINE SMOOTH",
"428 0 OFFCURVE",
"444 21 OFFCURVE",
"444 43 CURVE SMOOTH",
"444 64 OFFCURVE",
"429 86 OFFCURVE",
"399 86 CURVE SMOOTH",
"222 86 LINE",
"248 44 LINE",
"376 434 LINE",
"322 392 LINE",
"841 392 LINE",
"787 434 LINE",
"910 44 LINE",
"937 86 LINE",
"736 86 LINE SMOOTH",
"706 86 OFFCURVE",
"692 65 OFFCURVE",
"692 44 CURVE SMOOTH",
"692 22 OFFCURVE",
"708 0 OFFCURVE",
"738 0 CURVE SMOOTH",
"1084 0 LINE SMOOTH",
"1113 0 OFFCURVE",
"1129 22 OFFCURVE",
"1129 44 CURVE SMOOTH",
"1129 65 OFFCURVE",
"1114 86 OFFCURVE",
"1085 86 CURVE SMOOTH",
"965 86 LINE",
"1019 44 LINE",
"668 1106 LINE SMOOTH",
"657 1140 OFFCURVE",
"635 1171 OFFCURVE",
"595 1171 CURVE SMOOTH",
"320 1171 LINE SMOOTH",
"290 1171 OFFCURVE",
"275 1149 OFFCURVE",
"275 1128 CURVE SMOOTH",
"275 1106 OFFCURVE",
"291 1085 OFFCURVE",
"320 1085 CURVE SMOOTH",
"554 1085 LINE",
"530 1127 LINE",
"142 44 LINE",
"197 86 LINE",
"78 86 LINE SMOOTH",
"48 86 OFFCURVE",
"34 64 OFFCURVE",
"34 43 CURVE SMOOTH",
"34 21 OFFCURVE",
"50 0 OFFCURVE",
"79 0 CURVE SMOOTH"
);
},
{
closed = 1;
nodes = (
"607 1114 LINE",
"579 1115 LINE",
"785 432 LINE",
"812 475 LINE",
"354 475 LINE",
"380 433 LINE"
);
}
);
width = 1151;
},
{
anchors = (
{
name = ogonek;
position = "{1091, 10}";
},
{
name = top;
position = "{669, 1218}";
}
);
layerId = "48AFDEF4-2FAB-4AB6-AB64-D7DFD8485508";
paths = (
{
closed = 1;
nodes = (
"416 0 LINE SMOOTH",
"445 0 OFFCURVE",
"462 28 OFFCURVE",
"462 58 CURVE SMOOTH",
"462 92 OFFCURVE",
"450 122 OFFCURVE",
"418 122 CURVE SMOOTH",
"271 122 LINE",
"295 80 LINE",
"424 434 LINE",
"368 392 LINE",
"904 392 LINE",
"849 434 LINE",
"970 80 LINE",
"996 122 LINE",
"829 122 LINE SMOOTH",
"797 122 OFFCURVE",
"785 92 OFFCURVE",
"785 58 CURVE SMOOTH",
"785 28 OFFCURVE",
"802 0 OFFCURVE",
"831 0 CURVE SMOOTH",
"1256 0 LINE SMOOTH",
"1284 0 OFFCURVE",
"1301 28 OFFCURVE",
"1301 58 CURVE SMOOTH",
"1301 91 OFFCURVE",
"1290 122 OFFCURVE",
"1257 122 CURVE SMOOTH",
"1093 122 LINE",
"1149 80 LINE",
"742 1152 LINE SMOOTH",
"729 1187 OFFCURVE",
"709 1218 OFFCURVE",
"669 1218 CURVE SMOOTH",
"380 1218 LINE SMOOTH",
"346 1218 OFFCURVE",
"334 1187 OFFCURVE",
"334 1154 CURVE SMOOTH",
"334 1124 OFFCURVE",
"352 1096 OFFCURVE",
"380 1096 CURVE SMOOTH",
"604 1096 LINE",
"588 1155 LINE",
"141 81 LINE",
"198 122 LINE",
"69 122 LINE SMOOTH",
"36 122 OFFCURVE",
"24 92 OFFCURVE",
"24 58 CURVE SMOOTH",
"24 28 OFFCURVE",
"42 0 OFFCURVE",
"70 0 CURVE SMOOTH"
);
},
{
closed = 1;
nodes = (
"658 1078 LINE",
"627 1078 LINE",
"841 457 LINE",
"866 499 LINE",
"409 499 LINE",
"435 457 LINE"
);
}
);
width = 1317;
},
{
associatedMasterId = master01;
layerId = "9A93A822-8C36-4D9F-8E9F-9627EFFF74EF";
name = "Dec 2 18, 00:09";
paths = (
{
closed = 1;
nodes = (
"438 0 LINE SMOOTH",
"472 0 OFFCURVE",
"489 21 OFFCURVE",
"489 43 CURVE SMOOTH",
"489 64 OFFCURVE",
"472 86 OFFCURVE",
"439 86 CURVE SMOOTH",
"280 86 LINE",
"392 392 LINE",
"875 392 LINE",
"982 86 LINE",
"796 86 LINE SMOOTH",
"763 86 OFFCURVE",
"747 65 OFFCURVE",
"747 44 CURVE SMOOTH",
"747 22 OFFCURVE",
"764 0 OFFCURVE",
"798 0 CURVE SMOOTH",
"1164 0 LINE SMOOTH",
"1197 0 OFFCURVE",
"1214 22 OFFCURVE",
"1214 44 CURVE SMOOTH",
"1214 65 OFFCURVE",
"1198 86 OFFCURVE",
"1166 86 CURVE SMOOTH",
"1087 86 LINE",
"725 1106 LINE SMOOTH",
"713 1140 OFFCURVE",
"690 1171 OFFCURVE",
"644 1171 CURVE SMOOTH",
"341 1171 LINE SMOOTH",
"308 1171 OFFCURVE",
"292 1149 OFFCURVE",
"292 1128 CURVE SMOOTH",
"292 1106 OFFCURVE",
"309 1085 OFFCURVE",
"342 1085 CURVE SMOOTH",
"559 1085 LINE",
"174 86 LINE",
"89 86 LINE SMOOTH",
"56 86 OFFCURVE",
"40 64 OFFCURVE",
"40 43 CURVE SMOOTH",
"40 21 OFFCURVE",
"57 0 OFFCURVE",
"90 0 CURVE SMOOTH"
);
},
{
closed = 1;
nodes = (
"646 1072 LINE",
"845 475 LINE",
"425 475 LINE"
);
},
{
closed = 0;
nodes = (
"636 1076 LINE",
"982 86 LINE"
);
}
);
width = 1240;
},
{
associatedMasterId = "48AFDEF4-2FAB-4AB6-AB64-D7DFD8485508";
layerId = "DDDD23F8-6B7A-4CB8-8E82-3412DE179FA0";
name = "Dec 2 18, 00:17";
paths = (
{
closed = 1;
nodes = (
"438 0 LINE SMOOTH",
"472 0 OFFCURVE",
"489 21 OFFCURVE",
"489 43 CURVE SMOOTH",
"489 64 OFFCURVE",
"472 86 OFFCURVE",
"439 86 CURVE SMOOTH",
"280 86 LINE",
"392 392 LINE",
"835 392 LINE",
"942 86 LINE",
"756 86 LINE SMOOTH",
"723 86 OFFCURVE",
"707 65 OFFCURVE",
"707 44 CURVE SMOOTH",
"707 22 OFFCURVE",
"724 0 OFFCURVE",
"758 0 CURVE SMOOTH",
"1124 0 LINE SMOOTH",
"1157 0 OFFCURVE",
"1174 22 OFFCURVE",
"1174 44 CURVE SMOOTH",
"1174 65 OFFCURVE",
"1158 86 OFFCURVE",
"1126 86 CURVE SMOOTH",
"1047 86 LINE",
"685 1106 LINE SMOOTH",
"673 1140 OFFCURVE",
"650 1171 OFFCURVE",
"604 1171 CURVE SMOOTH",
"341 1171 LINE SMOOTH",
"308 1171 OFFCURVE",
"292 1149 OFFCURVE",
"292 1128 CURVE SMOOTH",
"292 1106 OFFCURVE",
"309 1085 OFFCURVE",
"342 1085 CURVE SMOOTH",
"602 1085 LINE",
"575 1125 LINE",
"174 86 LINE",
"89 86 LINE SMOOTH",
"56 86 OFFCURVE",
"40 64 OFFCURVE",
"40 43 CURVE SMOOTH",
"40 21 OFFCURVE",
"57 0 OFFCURVE",
"90 0 CURVE SMOOTH"
);
},
{
closed = 1;
nodes = (
"651 1113 LINE",
"602 1113 LINE",
"805 475 LINE",
"425 475 LINE"
);
}
);
width = 1200;
},
{
anchors = (
{
name = ogonek;
position = "{1021, 10}";
},
{
name = top;
position = "{644, 1171}";
}
);
layerId = "1027097C-2ACB-4125-B942-0F8B60E4A4BD";
paths = (
{
closed = 1;
nodes = (
"438 0 LINE SMOOTH",
"472 0 OFFCURVE",
"489 21 OFFCURVE",
"489 43 CURVE SMOOTH",
"489 64 OFFCURVE",
"472 86 OFFCURVE",
"439 86 CURVE SMOOTH",
"235 86 LINE",
"265 44 LINE",
"407 434 LINE",
"347 392 LINE",
"920 392 LINE",
"860 434 LINE",
"997 44 LINE",
"1027 86 LINE",
"796 86 LINE SMOOTH",
"763 86 OFFCURVE",
"747 65 OFFCURVE",
"747 44 CURVE SMOOTH",
"747 22 OFFCURVE",
"764 0 OFFCURVE",
"798 0 CURVE SMOOTH",
"1164 0 LINE SMOOTH",
"1197 0 OFFCURVE",
"1214 22 OFFCURVE",
"1214 44 CURVE SMOOTH",
"1214 65 OFFCURVE",
"1198 86 OFFCURVE",
"1166 86 CURVE SMOOTH",
"1042 86 LINE",
"1102 44 LINE",
"725 1106 LINE SMOOTH",
"713 1140 OFFCURVE",
"688 1171 OFFCURVE",
"644 1171 CURVE SMOOTH",
"341 1171 LINE SMOOTH",
"308 1171 OFFCURVE",
"292 1149 OFFCURVE",
"292 1128 CURVE SMOOTH",
"292 1106 OFFCURVE",
"309 1085 OFFCURVE",
"342 1085 CURVE SMOOTH",
"604 1085 LINE",
"575 1127 LINE",
"158 44 LINE",
"219 86 LINE",
"89 86 LINE SMOOTH",
"56 86 OFFCURVE",
"40 64 OFFCURVE",
"40 43 CURVE SMOOTH",
"40 21 OFFCURVE",
"57 0 OFFCURVE",
"90 0 CURVE SMOOTH"
);
},
{
closed = 1;
nodes = (
"662 1114 LINE",
"632 1115 LINE",
"859 432 LINE",
"890 475 LINE",
"380 475 LINE",
"409 433 LINE"
);
}
);
width = 1240;
},
{
anchors = (
{
name = ogonek;
position = "{1163, 10}";
},
{
name = top;
position = "{718, 1218}";
}
);
layerId = "87D9408F-A41F-4898-A746-FF2057AB3891";
paths = (
{
closed = 1;
nodes = (
"456 0 LINE SMOOTH",
"489 0 OFFCURVE",
"507 28 OFFCURVE",
"507 58 CURVE SMOOTH",
"507 92 OFFCURVE",
"493 122 OFFCURVE",
"458 122 CURVE SMOOTH",
"284 122 LINE",
"312 80 LINE",
"455 434 LINE",
"393 392 LINE",
"983 392 LINE",
"922 434 LINE",
"1057 80 LINE",
"1086 122 LINE",
"889 122 LINE SMOOTH",
"854 122 OFFCURVE",
"840 92 OFFCURVE",
"840 58 CURVE SMOOTH",
"840 28 OFFCURVE",
"858 0 OFFCURVE",
"891 0 CURVE SMOOTH",
"1336 0 LINE SMOOTH",
"1368 0 OFFCURVE",
"1386 28 OFFCURVE",
"1386 58 CURVE SMOOTH",
"1386 92 OFFCURVE",
"1373 122 OFFCURVE",
"1338 122 CURVE SMOOTH",
"1170 122 LINE",
"1232 80 LINE",
"799 1152 LINE SMOOTH",
"785 1187 OFFCURVE",
"762 1218 OFFCURVE",
"718 1218 CURVE SMOOTH",
"401 1218 LINE SMOOTH",
"365 1218 OFFCURVE",
"351 1188 OFFCURVE",
"351 1154 CURVE SMOOTH",
"351 1124 OFFCURVE",
"370 1096 OFFCURVE",
"402 1096 CURVE SMOOTH",
"654 1096 LINE",
"633 1155 LINE",
"157 81 LINE",
"220 122 LINE",
"80 122 LINE SMOOTH",
"44 122 OFFCURVE",
"30 92 OFFCURVE",
"30 58 CURVE SMOOTH",
"30 28 OFFCURVE",
"49 0 OFFCURVE",
"81 0 CURVE SMOOTH"
);
},
{
closed = 1;
nodes = (
"713 1078 LINE",
"680 1078 LINE",
"915 457 LINE",
"944 499 LINE",
"435 499 LINE",
"464 457 LINE"
);
}
);
width = 1406;
},
{
anchors = (
{
name = ogonek;
position = "{876, 10}";
},
{
name = top;
position = "{546, 1171}";
}
);
associatedMasterId = master01;
layerId = "7380122C-AE62-481B-B2B2-DDD3714B8347";
name = "Dec 8 18, 18:44";
paths = (
{
closed = 1;
nodes = (
"358 0 LINE SMOOTH",
"384 0 OFFCURVE",
"399 21 OFFCURVE",
"399 43 CURVE SMOOTH",
"399 64 OFFCURVE",
"386 86 OFFCURVE",
"359 86 CURVE SMOOTH",
"209 86 LINE",
"232 44 LINE",
"346 434 LINE",
"297 392 LINE",
"762 392 LINE",
"714 434 LINE",
"823 44 LINE",
"846 86 LINE",
"676 86 LINE SMOOTH",
"649 86 OFFCURVE",
"637 65 OFFCURVE",
"637 44 CURVE SMOOTH",
"637 22 OFFCURVE",
"651 0 OFFCURVE",
"677 0 CURVE SMOOTH",
"1003 0 LINE SMOOTH",
"1029 0 OFFCURVE",
"1043 22 OFFCURVE",
"1043 44 CURVE SMOOTH",
"1043 65 OFFCURVE",
"1031 86 OFFCURVE",
"1005 86 CURVE SMOOTH",
"887 86 LINE",
"936 44 LINE",
"611 1106 LINE SMOOTH",
"601 1140 OFFCURVE",
"583 1171 OFFCURVE",
"546 1171 CURVE SMOOTH",
"298 1171 LINE SMOOTH",
"271 1171 OFFCURVE",
"258 1149 OFFCURVE",
"258 1128 CURVE SMOOTH",
"258 1106 OFFCURVE",
"273 1085 OFFCURVE",
"299 1085 CURVE SMOOTH",
"504 1085 LINE",
"484 1127 LINE",
"126 44 LINE",
"176 86 LINE",
"68 86 LINE SMOOTH",
"40 86 OFFCURVE",
"28 64 OFFCURVE",
"28 43 CURVE SMOOTH",
"28 21 OFFCURVE",
"43 0 OFFCURVE",
"68 0 CURVE SMOOTH"
);
},
{
closed = 1;
nodes = (
"551 1114 LINE",
"526 1115 LINE",
"714 432 LINE",
"735 475 LINE",
"327 475 LINE",
"346 433 LINE"
);
}
);
width = 1061;
},
{
anchors = (
{
name = ogonek;
position = "{1018, 10}";
},
{
name = top;
position = "{620, 1218}";
}
);
associatedMasterId = "48AFDEF4-2FAB-4AB6-AB64-D7DFD8485508";
layerId = "92AFDCD3-57A4-4C85-B055-1CDEB1F1F728";
name = "Dec 8 18, 18:44";
paths = (
{
closed = 1;
nodes = (
"376 0 LINE SMOOTH",
"402 0 OFFCURVE",
"417 29 OFFCURVE",
"417 58 CURVE SMOOTH",
"417 91 OFFCURVE",
"408 122 OFFCURVE",
"378 122 CURVE SMOOTH",
"258 122 LINE",
"279 80 LINE",
"394 434 LINE",
"343 392 LINE",
"825 392 LINE",
"776 434 LINE",
"883 80 LINE",
"905 122 LINE",
"769 122 LINE SMOOTH",
"740 122 OFFCURVE",
"730 92 OFFCURVE",
"730 58 CURVE SMOOTH",
"730 28 OFFCURVE",
"745 0 OFFCURVE",
"770 0 CURVE SMOOTH",
"1175 0 LINE SMOOTH",
"1200 0 OFFCURVE",
"1215 28 OFFCURVE",
"1215 58 CURVE SMOOTH",
"1215 91 OFFCURVE",
"1207 122 OFFCURVE",
"1177 122 CURVE SMOOTH",
"1015 122 LINE",
"1066 80 LINE",
"685 1152 LINE SMOOTH",
"673 1187 OFFCURVE",
"656 1218 OFFCURVE",
"620 1218 CURVE SMOOTH",
"358 1218 LINE SMOOTH",
"327 1218 OFFCURVE",
"317 1187 OFFCURVE",
"317 1154 CURVE SMOOTH",
"317 1124 OFFCURVE",
"334 1096 OFFCURVE",
"359 1096 CURVE SMOOTH",
"554 1096 LINE",
"542 1155 LINE",
"125 81 LINE",
"177 122 LINE",
"59 122 LINE SMOOTH",
"28 122 OFFCURVE",
"18 92 OFFCURVE",
"18 58 CURVE SMOOTH",
"18 28 OFFCURVE",
"35 0 OFFCURVE",
"59 0 CURVE SMOOTH"
);
},
{
closed = 1;
nodes = (
"617 1078 LINE",
"576 1078 LINE",
"767 457 LINE",
"789 499 LINE",
"382 499 LINE",
"400 457 LINE"
);
}
);
width = 1227;
}
);
unicode = 0041;
},
{
glyphname = AE;
lastChange = "2018-12-09 20:07:14 +0000";
layers = (
{
layerId = master01;
paths = (
{
closed = 1;
nodes = (
"424 0 LINE SMOOTH",
"459 0 OFFCURVE",
"475 21 OFFCURVE",
"475 43 CURVE SMOOTH",
"475 64 OFFCURVE",
"458 86 OFFCURVE",
"422 86 CURVE SMOOTH",
"231 86 LINE",
"321 392 LINE",
"626 392 LINE",
"616 85 LINE",
"610 85 LINE SMOOTH",
"575 85 OFFCURVE",
"557 64 OFFCURVE",
"557 43 CURVE SMOOTH",
"557 22 OFFCURVE",
"577 0 OFFCURVE",
"614 0 CURVE SMOOTH",
"981 0 LINE SMOOTH",
"1017 0 OFFCURVE",
"1045 19 OFFCURVE",
"1046 53 CURVE SMOOTH",
"1046 283 LINE SMOOTH",
"1046 319 OFFCURVE",
"1023 335 OFFCURVE",
"1003 335 CURVE SMOOTH",
"983 335 OFFCURVE",
"962 320 OFFCURVE",
"961 296 CURVE SMOOTH",
"951 85 LINE",
"694 85 LINE",
"711 560 LINE",
"850 560 LINE",
"855 452 LINE",
"855 424 OFFCURVE",
"877 409 OFFCURVE",
"894 409 CURVE SMOOTH",
"913 409 OFFCURVE",
"934 425 OFFCURVE",
"936 460 CURVE SMOOTH",
"944 596 LINE",
"948 732 LINE SMOOTH",
"949 769 OFFCURVE",
"928 785 OFFCURVE",
"911 785 CURVE SMOOTH",
"894 785 OFFCURVE",
"872 770 OFFCURVE",
"868 740 CURVE SMOOTH",
"854 637 LINE",
"715 637 LINE",
"731 1085 LINE",
"969 1085 LINE",
"976 887 LINE SMOOTH",
"977 862 OFFCURVE",
"994 849 OFFCURVE",
"1011 849 CURVE SMOOTH",
"1031 849 OFFCURVE",
"1052 863 OFFCURVE",
"1054 893 CURVE SMOOTH",
"1067 1117 LINE SMOOTH",
"1069 1151 OFFCURVE",
"1044 1171 OFFCURVE",
"1008 1171 CURVE SMOOTH",
"179 1171 LINE SMOOTH",
"144 1171 OFFCURVE",
"132 1149 OFFCURVE",
"137 1126 CURVE SMOOTH",
"141 1106 OFFCURVE",
"167 1085 OFFCURVE",
"212 1085 CURVE SMOOTH",
"431 1085 LINE",
"142 86 LINE",
"95 86 LINE SMOOTH",
"60 86 OFFCURVE",
"43 64 OFFCURVE",
"43 43 CURVE SMOOTH",
"43 21 OFFCURVE",
"63 0 OFFCURVE",
"99 0 CURVE SMOOTH"
);
},
{
closed = 1;
nodes = (
"516 1085 LINE",
"649 1085 LINE",
"629 475 LINE",
"342 475 LINE"
);
}
);
width = 1068;
},
{
layerId = "48AFDEF4-2FAB-4AB6-AB64-D7DFD8485508";
paths = (
{
closed = 1;
nodes = (
"485 0 LINE SMOOTH",
"528 0 OFFCURVE",
"558 29 OFFCURVE",
"558 68 CURVE SMOOTH",
"558 100 OFFCURVE",
"534 124 OFFCURVE",
"497 124 CURVE SMOOTH",
"341 124 LINE",
"507 400 LINE",
"1011 400 LINE",
"1046 124 LINE",
"911 124 LINE SMOOTH",
"872 124 OFFCURVE",
"851 90 OFFCURVE",
"851 55 CURVE SMOOTH",
"851 26 OFFCURVE",
"867 0 OFFCURVE",
"903 0 CURVE SMOOTH",
"1861 0 LINE SMOOTH",
"1897 0 OFFCURVE",
"1914 19 OFFCURVE",
"1916 55 CURVE",
"1914 358 LINE",
"1910 389 OFFCURVE",
"1884 411 OFFCURVE",
"1852 411 CURVE SMOOTH",
"1819 411 OFFCURVE",
"1798 388 OFFCURVE",
"1791 357 CURVE",
"1751 124 LINE",
"1210 124 LINE",
"1144 580 LINE",
"1366 580 LINE",
"1417 449 LINE SMOOTH",
"1426 425 OFFCURVE",
"1449 401 OFFCURVE",
"1478 401 CURVE SMOOTH",
"1509 401 OFFCURVE",
"1527 420 OFFCURVE",
"1522 448 CURVE SMOOTH",
"1490 634 LINE",
"1476 805 LINE SMOOTH",
"1473 837 OFFCURVE",
"1449 861 OFFCURVE",
"1416 861 CURVE SMOOTH",
"1388 861 OFFCURVE",
"1370 841 OFFCURVE",
"1366 813 CURVE",
"1352 682 LINE",
"1129 682 LINE",
"1071 1085 LINE",
"1667 1085 LINE",
"1709 904 LINE SMOOTH",
"1717 870 OFFCURVE",
"1745 851 OFFCURVE",
"1784 851 CURVE SMOOTH",
"1814 851 OFFCURVE",
"1834 871 OFFCURVE",
"1834 900 CURVE",
"1789 1134 LINE",
"1774 1178 OFFCURVE",
"1746 1209 OFFCURVE",
"1714 1209 CURVE SMOOTH",
"901 1209 LINE SMOOTH",
"885 1209 OFFCURVE",
"879 1206 OFFCURVE",
"868 1199 CURVE SMOOTH",
"860 1194 OFFCURVE",
"839 1160 OFFCURVE",
"826 1141 CURVE",
"804 1107 LINE",
"189 124 LINE",
"96 124 LINE SMOOTH",
"60 124 OFFCURVE",
"37 84 OFFCURVE",
"37 52 CURVE SMOOTH",
"37 24 OFFCURVE",
"55 0 OFFCURVE",
"88 0 CURVE SMOOTH"
);
},
{
closed = 1;
nodes = (
"917 1095 LINE",
"922 1101 LINE",
"997 509 LINE",
"567 509 LINE"
);
}
);
width = 1940;
},
{
layerId = "1027097C-2ACB-4125-B942-0F8B60E4A4BD";
paths = (
{
closed = 1;
nodes = (
"397 0 LINE SMOOTH",
"431 0 OFFCURVE",
"448 21 OFFCURVE",
"448 43 CURVE SMOOTH",
"448 64 OFFCURVE",
"431 86 OFFCURVE",
"398 86 CURVE SMOOTH",
"231 86 LINE",
"327 392 LINE",
"642 392 LINE",
"642 85 LINE",
"612 85 LINE SMOOTH",
"579 85 OFFCURVE",
"562 64 OFFCURVE",
"562 43 CURVE SMOOTH",
"562 22 OFFCURVE",
"579 0 OFFCURVE",
"613 0 CURVE SMOOTH",
"1059 0 LINE SMOOTH",
"1092 0 OFFCURVE",
"1115 19 OFFCURVE",
"1115 53 CURVE SMOOTH",
"1115 283 LINE SMOOTH",
"1115 319 OFFCURVE",
"1094 335 OFFCURVE",
"1073 335 CURVE SMOOTH",
"1052 335 OFFCURVE",
"1034 320 OFFCURVE",
"1032 296 CURVE SMOOTH",
"1016 85 LINE",
"729 85 LINE",
"729 560 LINE",
"871 560 LINE",
"884 452 LINE",
"886 424 OFFCURVE",
"905 409 OFFCURVE",
"924 409 CURVE SMOOTH",
"943 409 OFFCURVE",
"962 425 OFFCURVE",
"962 460 CURVE SMOOTH",
"962 596 LINE",
"962 732 LINE SMOOTH",
"962 769 OFFCURVE",
"943 785 OFFCURVE",
"924 785 CURVE SMOOTH",
"906 785 OFFCURVE",
"888 770 OFFCURVE",
"884 740 CURVE SMOOTH",
"871 637 LINE",
"729 637 LINE",
"729 1085 LINE",
"1013 1085 LINE",
"1027 887 LINE SMOOTH",
"1029 862 OFFCURVE",
"1046 849 OFFCURVE",
"1066 849 CURVE SMOOTH",
"1086 849 OFFCURVE",
"1106 863 OFFCURVE",
"1106 893 CURVE SMOOTH",
"1106 1117 LINE SMOOTH",
"1106 1151 OFFCURVE",
"1083 1171 OFFCURVE",
"1050 1171 CURVE SMOOTH",
"300 1171 LINE SMOOTH",
"267 1171 OFFCURVE",
"251 1149 OFFCURVE",
"251 1128 CURVE SMOOTH",
"251 1106 OFFCURVE",
"268 1085 OFFCURVE",
"301 1085 CURVE SMOOTH",
"463 1085 LINE",
"138 86 LINE",
"87 86 LINE SMOOTH",
"54 86 OFFCURVE",
"38 64 OFFCURVE",
"38 43 CURVE SMOOTH",
"38 21 OFFCURVE",
"55 0 OFFCURVE",
"88 0 CURVE SMOOTH"
);
},
{
closed = 1;
nodes = (
"545 1085 LINE",
"642 1085 LINE",
"642 475 LINE",
"354 475 LINE"
);
}
);
width = 1137;
},
{
layerId = "87D9408F-A41F-4898-A746-FF2057AB3891";
paths = (
{
closed = 1;
nodes = (
"458 0 LINE SMOOTH",
"500 0 OFFCURVE",
"531 29 OFFCURVE",
"531 68 CURVE SMOOTH",
"531 100 OFFCURVE",
"507 124 OFFCURVE",
"473 124 CURVE SMOOTH",
"341 124 LINE",
"513 400 LINE",
"1027 400 LINE",
"1072 124 LINE",
"913 124 LINE SMOOTH",
"876 124 OFFCURVE",
"856 90 OFFCURVE",
"856 55 CURVE SMOOTH",
"856 25 OFFCURVE",
"870 0 OFFCURVE",
"902 0 CURVE SMOOTH",
"1939 0 LINE SMOOTH",
"1971 0 OFFCURVE",
"1984 19 OFFCURVE",
"1986 55 CURVE",
"1984 358 LINE",
"1979 389 OFFCURVE",
"1955 411 OFFCURVE",
"1922 411 CURVE SMOOTH",
"1888 411 OFFCURVE",
"1869 388 OFFCURVE",
"1861 357 CURVE",
"1816 124 LINE",
"1245 124 LINE",
"1162 580 LINE",
"1387 580 LINE",
"1446 449 LINE SMOOTH",
"1457 425 OFFCURVE",
"1477 401 OFFCURVE",
"1508 401 CURVE SMOOTH",
"1536 401 OFFCURVE",
"1554 418 OFFCURVE",
"1548 447 CURVE SMOOTH",
"1508 634 LINE",
"1490 805 LINE SMOOTH",
"1487 837 OFFCURVE",
"1462 861 OFFCURVE",
"1429 861 CURVE SMOOTH",
"1401 861 OFFCURVE",
"1385 841 OFFCURVE",
"1381 813 CURVE",
"1369 682 LINE",
"1143 682 LINE",
"1069 1085 LINE",
"1711 1085 LINE",
"1759 904 LINE SMOOTH",
"1768 870 OFFCURVE",
"1798 851 OFFCURVE",
"1839 851 CURVE SMOOTH",
"1870 851 OFFCURVE",
"1886 871 OFFCURVE",
"1886 900 CURVE",
"1830 1134 LINE",
"1810 1178 OFFCURVE",
"1785 1209 OFFCURVE",
"1756 1209 CURVE SMOOTH",
"1022 1209 LINE SMOOTH",
"978 1209 OFFCURVE",
"944 1209 OFFCURVE",
"918 1199 CURVE SMOOTH",
"900 1192 OFFCURVE",
"885 1181 OFFCURVE",
"873 1163 CURVE",
"836 1107 LINE",
"185 124 LINE",
"88 124 LINE SMOOTH",
"55 124 OFFCURVE",
"32 85 OFFCURVE",
"32 52 CURVE SMOOTH",
"32 24 OFFCURVE",
"47 0 OFFCURVE",
"77 0 CURVE SMOOTH"
);
},
{
closed = 1;
nodes = (
"946 1095 LINE",
"915 1101 LINE",
"1010 509 LINE",
"579 509 LINE"
);
}
);
width = 2008;
}
);
unicode = 00C6;
},
{
glyphname = B;
lastChange = "2018-12-08 20:47:13 +0000";
layers = (
{
layerId = master01;
paths = (
{
closed = 1;
nodes = (
"571 0 LINE SMOOTH",
"817 0 OFFCURVE",
"1026 99 OFFCURVE",
"1026 348 CURVE SMOOTH",
"1026 552 OFFCURVE",
"912 640 OFFCURVE",
"785 660 CURVE",
"866 686 OFFCURVE",
"934 766 OFFCURVE",
"934 889 CURVE SMOOTH",
"934 1106 OFFCURVE",
"761 1171 OFFCURVE",
"558 1171 CURVE SMOOTH",
"191 1171 LINE SMOOTH",
"162 1171 OFFCURVE",
"148 1150 OFFCURVE",
"148 1129 CURVE SMOOTH",
"148 1107 OFFCURVE",
"163 1085 OFFCURVE",
"193 1085 CURVE SMOOTH",
"339 1085 LINE",
"339 86 LINE",
"189 86 LINE SMOOTH",
"159 86 OFFCURVE",
"144 64 OFFCURVE",
"144 43 CURVE SMOOTH",
"144 21 OFFCURVE",
"159 0 OFFCURVE",
"190 0 CURVE SMOOTH"
);
},
{
closed = 1;
nodes = (
"439 597 LINE",
"595 597 LINE SMOOTH",
"720 597 OFFCURVE",
"923 597 OFFCURVE",
"923 363 CURVE SMOOTH",
"923 153 OFFCURVE",
"778 86 OFFCURVE",
"574 86 CURVE SMOOTH",
"439 86 LINE"
);
},
{
closed = 1;
nodes = (
"439 1085 LINE",
"570 1085 LINE SMOOTH",
"717 1085 OFFCURVE",
"845 1046 OFFCURVE",
"845 885 CURVE SMOOTH",
"845 733 OFFCURVE",
"721 673 OFFCURVE",
"595 673 CURVE SMOOTH",
"439 673 LINE"
);
}
);
width = 1127;
},
{
layerId = "48AFDEF4-2FAB-4AB6-AB64-D7DFD8485508";
paths = (
{
closed = 1;
nodes = (
"759 0 LINE SMOOTH",
"984 0 OFFCURVE",
"1229 102 OFFCURVE",
"1229 360 CURVE SMOOTH",
"1229 564 OFFCURVE",
"1109 660 OFFCURVE",
"960 682 CURVE",
"1045 707 OFFCURVE",
"1115 784 OFFCURVE",
"1115 902 CURVE SMOOTH",
"1115 1139 OFFCURVE",
"936 1209 OFFCURVE",
"726 1209 CURVE SMOOTH",
"138 1209 LINE SMOOTH",
"105 1209 OFFCURVE",
"93 1179 OFFCURVE",
"93 1144 CURVE SMOOTH",
"93 1113 OFFCURVE",
"111 1085 OFFCURVE",
"141 1085 CURVE SMOOTH",
"271 1085 LINE",
"271 124 LINE",
"95 124 LINE SMOOTH",
"62 124 OFFCURVE",
"49 95 OFFCURVE",
"49 59 CURVE SMOOTH",
"49 28 OFFCURVE",
"68 0 OFFCURVE",
"96 0 CURVE SMOOTH"
);
},
{
closed = 1;
nodes = (
"440 611 LINE",
"783 611 LINE SMOOTH",
"883 611 OFFCURVE",
"1046 611 OFFCURVE",
"1046 375 CURVE SMOOTH",
"1046 185 OFFCURVE",
"927 124 OFFCURVE",
"761 124 CURVE SMOOTH",
"440 124 LINE"
);
},
{
closed = 1;
nodes = (
"440 1085 LINE",
"738 1085 LINE SMOOTH",
"851 1085 OFFCURVE",
"971 1056 OFFCURVE",
"971 894 CURVE SMOOTH",
"971 757 OFFCURVE",
"877 702 OFFCURVE",
"783 702 CURVE SMOOTH",
"440 702 LINE"
);
}
);
width = 1263;
},
{
layerId = "1027097C-2ACB-4125-B942-0F8B60E4A4BD";
paths = (
{
closed = 1;
nodes = (
"602 0 LINE SMOOTH",
"881 0 OFFCURVE",
"1104 99 OFFCURVE",
"1104 348 CURVE SMOOTH",
"1104 548 OFFCURVE",
"985 639 OFFCURVE",
"843 660 CURVE",
"932 686 OFFCURVE",
"1007 766 OFFCURVE",
"1007 889 CURVE SMOOTH",
"1007 1106 OFFCURVE",
"817 1171 OFFCURVE",
"592 1171 CURVE SMOOTH",
"236 1171 LINE SMOOTH",
"204 1171 OFFCURVE",
"188 1150 OFFCURVE",
"188 1129 CURVE SMOOTH",
"188 1107 OFFCURVE",
"204 1085 OFFCURVE",
"237 1085 CURVE SMOOTH",
"403 1085 LINE",
"403 86 LINE",
"243 86 LINE SMOOTH",
"210 86 OFFCURVE",
"193 64 OFFCURVE",
"193 43 CURVE SMOOTH",
"193 21 OFFCURVE",
"208 0 OFFCURVE",
"244 0 CURVE SMOOTH"
);
},
{
closed = 1;
nodes = (
"499 597 LINE",
"629 597 LINE SMOOTH",
"826 597 OFFCURVE",
"1008 575 OFFCURVE",
"1008 363 CURVE SMOOTH",
"1008 153 OFFCURVE",
"841 86 OFFCURVE",
"605 86 CURVE SMOOTH",
"499 86 LINE"
);
},
{
closed = 1;
nodes = (
"499 1085 LINE",
"605 1085 LINE SMOOTH",
"793 1085 OFFCURVE",
"921 1036 OFFCURVE",
"921 885 CURVE SMOOTH",
"921 733 OFFCURVE",
"776 673 OFFCURVE",
"629 673 CURVE SMOOTH",
"499 673 LINE"
);
}
);
width = 1240;
},
{
layerId = "87D9408F-A41F-4898-A746-FF2057AB3891";
paths = (
{
closed = 1;
nodes = (
"741 0 LINE SMOOTH",
"999 0 OFFCURVE",
"1258 102 OFFCURVE",
"1258 360 CURVE SMOOTH",
"1258 566 OFFCURVE",
"1127 660 OFFCURVE",
"969 682 CURVE",
"1062 707 OFFCURVE",
"1139 784 OFFCURVE",
"1139 902 CURVE SMOOTH",
"1139 1139 OFFCURVE",
"943 1209 OFFCURVE",
"711 1209 CURVE SMOOTH",
"134 1209 LINE SMOOTH",
"98 1209 OFFCURVE",
"84 1179 OFFCURVE",
"84 1144 CURVE SMOOTH",
"84 1113 OFFCURVE",
"103 1085 OFFCURVE",
"136 1085 CURVE SMOOTH",
"286 1085 LINE",
"286 124 LINE",
"100 124 LINE SMOOTH",
"64 124 OFFCURVE",
"49 95 OFFCURVE",
"49 59 CURVE SMOOTH",
"49 28 OFFCURVE",
"68 0 OFFCURVE",
"101 0 CURVE SMOOTH"
);
},
{
closed = 1;
nodes = (
"451 611 LINE",
"768 611 LINE SMOOTH",
"931 611 OFFCURVE",
"1082 589 OFFCURVE",
"1082 375 CURVE SMOOTH",
"1082 185 OFFCURVE",
"941 124 OFFCURVE",
"743 124 CURVE SMOOTH",
"451 124 LINE"
);
},
{
closed = 1;
nodes = (
"451 1085 LINE",
"724 1085 LINE SMOOTH",
"888 1085 OFFCURVE",
"998 1038 OFFCURVE",
"998 894 CURVE SMOOTH",
"998 757 OFFCURVE",
"883 702 OFFCURVE",
"768 702 CURVE SMOOTH",
"451 702 LINE"
);
}
);
width = 1292;
},
{
associatedMasterId = "87D9408F-A41F-4898-A746-FF2057AB3891";
layerId = "9BEB6486-791B-4D3F-B52A-E0F62A0A63A8";
name = "Dec 8 18, 22:42";
paths = (
{
closed = 1;
nodes = (
"741 0 LINE SMOOTH",
"999 0 OFFCURVE",
"1258 102 OFFCURVE",
"1258 360 CURVE SMOOTH",
"1258 566 OFFCURVE",
"1127 660 OFFCURVE",
"969 682 CURVE",
"1062 707 OFFCURVE",
"1139 784 OFFCURVE",
"1139 902 CURVE SMOOTH",
"1139 1139 OFFCURVE",
"943 1209 OFFCURVE",
"711 1209 CURVE SMOOTH",
"134 1209 LINE SMOOTH",
"98 1209 OFFCURVE",
"84 1179 OFFCURVE",
"84 1144 CURVE SMOOTH",
"84 1113 OFFCURVE",
"103 1085 OFFCURVE",
"136 1085 CURVE SMOOTH",
"286 1085 LINE",
"286 124 LINE",
"100 124 LINE SMOOTH",
"64 124 OFFCURVE",
"49 95 OFFCURVE",
"49 59 CURVE SMOOTH",
"49 28 OFFCURVE",
"68 0 OFFCURVE",
"101 0 CURVE SMOOTH"
);
},
{
closed = 1;
nodes = (
"451 611 LINE",
"768 611 LINE SMOOTH",
"931 611 OFFCURVE",
"1082 589 OFFCURVE",
"1082 375 CURVE SMOOTH",
"1082 185 OFFCURVE",
"941 124 OFFCURVE",
"743 124 CURVE SMOOTH",
"451 124 LINE"
);
},
{
closed = 1;
nodes = (
"451 1085 LINE",
"724 1085 LINE SMOOTH",
"888 1085 OFFCURVE",
"998 1038 OFFCURVE",
"998 894 CURVE SMOOTH",
"998 757 OFFCURVE",
"883 702 OFFCURVE",
"768 702 CURVE SMOOTH",
"451 702 LINE"
);
}
);
width = 2048;
}
);
unicode = 0042;
},
{
glyphname = C;
lastChange = "2018-12-08 20:55:30 +0000";
layers = (
{
anchors = (
{
name = bottom;
position = "{622, 1}";
},
{
name = top;
position = "{620, 1187}";
}
);
layerId = master01;
paths = (
{
closed = 1;
nodes = (
"962 -17 OFFCURVE",
"1052 333 OFFCURVE",
"1052 343 CURVE SMOOTH",
"1052 367 OFFCURVE",
"1022 387 OFFCURVE",
"997 387 CURVE SMOOTH",
"981 387 OFFCURVE",
"960 381 OFFCURVE",
"954 359 CURVE SMOOTH",
"909 182 OFFCURVE",
"792 69 OFFCURVE",
"616 69 CURVE SMOOTH",
"394 69 OFFCURVE",
"216 263 OFFCURVE",
"216 600 CURVE SMOOTH",
"216 889 OFFCURVE",
"368 1101 OFFCURVE",
"617 1101 CURVE SMOOTH",
"780 1101 OFFCURVE",
"900 989 OFFCURVE",
"936 826 CURVE SMOOTH",
"942 799 OFFCURVE",
"957 780 OFFCURVE",
"981 780 CURVE SMOOTH",
"1003 780 OFFCURVE",
"1025 795 OFFCURVE",
"1025 827 CURVE SMOOTH",
"1025 1120 LINE SMOOTH",
"1025 1154 OFFCURVE",
"1003 1171 OFFCURVE",
"979 1171 CURVE SMOOTH",
"956 1171 OFFCURVE",
"932 1154 OFFCURVE",
"932 1121 CURVE SMOOTH",
"932 1015 LINE",
"875 1115 OFFCURVE",
"755 1187 OFFCURVE",
"615 1187 CURVE SMOOTH",
"326 1187 OFFCURVE",
"111 954 OFFCURVE",
"111 607 CURVE SMOOTH",
"111 226 OFFCURVE",
"325 -17 OFFCURVE",
"613 -17 CURVE SMOOTH"
);
}
);
width = 1135;
},
{
anchors = (
{
name = bottom;
position = "{706, 1}";
},
{
name = top;
position = "{707, 1218}";
}
);
layerId = "48AFDEF4-2FAB-4AB6-AB64-D7DFD8485508";
paths = (
{
closed = 1;
nodes = (
"920 -17 OFFCURVE",
"1147 178 OFFCURVE",
"1147 406 CURVE SMOOTH",
"1147 448 OFFCURVE",
"1108 470 OFFCURVE",
"1074 470 CURVE SMOOTH",
"1040 470 OFFCURVE",
"1003 455 OFFCURVE",
"998 418 CURVE SMOOTH",
"973 236 OFFCURVE",
"858 122 OFFCURVE",
"677 122 CURVE SMOOTH",
"401 122 OFFCURVE",
"268 313 OFFCURVE",
"268 624 CURVE SMOOTH",
"268 900 OFFCURVE",
"422 1101 OFFCURVE",
"677 1101 CURVE SMOOTH",
"837 1101 OFFCURVE",
"918 1017 OFFCURVE",
"993 902 CURVE",
"1012 879 OFFCURVE",
"1019 847 OFFCURVE",
"1049 847 CURVE SMOOTH",
"1080 847 OFFCURVE",
"1107 866 OFFCURVE",
"1107 900 CURVE SMOOTH",
"1107 1165 LINE SMOOTH",
"1107 1199 OFFCURVE",
"1081 1218 OFFCURVE",
"1050 1218 CURVE SMOOTH",
"1016 1218 OFFCURVE",
"987 1203 OFFCURVE",
"987 1166 CURVE SMOOTH",
"987 1092 LINE",
"898 1183 OFFCURVE",
"812 1235 OFFCURVE",
"678 1235 CURVE SMOOTH",
"331 1235 OFFCURVE",
"72 994 OFFCURVE",
"72 632 CURVE SMOOTH",
"72 236 OFFCURVE",
"324 -17 OFFCURVE",
"662 -17 CURVE SMOOTH"
);
}
);
width = 1220;
},
{
anchors = (
{
name = bottom;
position = "{671, 1}";
},
{
name = top;
position = "{668, 1187}";
}
);
layerId = "1027097C-2ACB-4125-B942-0F8B60E4A4BD";
paths = (
{
closed = 1;
nodes = (
"1078 -17 OFFCURVE",
"1146 332 OFFCURVE",
"1146 343 CURVE SMOOTH",
"1146 367 OFFCURVE",
"1116 387 OFFCURVE",
"1089 387 CURVE SMOOTH",
"1071 387 OFFCURVE",
"1056 379 OFFCURVE",
"1049 358 CURVE SMOOTH",
"995 182 OFFCURVE",
"862 69 OFFCURVE",
"670 69 CURVE SMOOTH",
"435 69 OFFCURVE",
"228 263 OFFCURVE",
"228 600 CURVE SMOOTH",
"228 890 OFFCURVE",
"396 1101 OFFCURVE",
"671 1101 CURVE SMOOTH",
"851 1101 OFFCURVE",
"995 991 OFFCURVE",
"1026 826 CURVE SMOOTH",
"1031 797 OFFCURVE",
"1051 780 OFFCURVE",
"1074 780 CURVE SMOOTH",
"1097 780 OFFCURVE",
"1120 795 OFFCURVE",
"1120 827 CURVE SMOOTH",
"1120 1120 LINE SMOOTH",
"1120 1154 OFFCURVE",
"1096 1171 OFFCURVE",
"1071 1171 CURVE SMOOTH",
"1047 1171 OFFCURVE",
"1022 1154 OFFCURVE",
"1022 1121 CURVE SMOOTH",
"1022 1015 LINE",
"968 1113 OFFCURVE",
"827 1187 OFFCURVE",
"668 1187 CURVE SMOOTH",
"360 1187 OFFCURVE",
"132 954 OFFCURVE",
"132 607 CURVE SMOOTH",
"132 225 OFFCURVE",
"361 -17 OFFCURVE",
"669 -17 CURVE SMOOTH"
);
}
);
width = 1240;
},
{
anchors = (
{
name = bottom;
position = "{755, 1}";
},
{
name = top;
position = "{755, 1218}";
}
);
layerId = "87D9408F-A41F-4898-A746-FF2057AB3891";
paths = (
{
closed = 1;
nodes = (
"1037 -17 OFFCURVE",
"1241 178 OFFCURVE",
"1241 406 CURVE SMOOTH",
"1241 448 OFFCURVE",
"1202 470 OFFCURVE",
"1166 470 CURVE SMOOTH",
"1133 470 OFFCURVE",
"1100 454 OFFCURVE",
"1093 419 CURVE SMOOTH",
"1060 239 OFFCURVE",
"932 122 OFFCURVE",
"731 122 CURVE SMOOTH",
"442 122 OFFCURVE",
"280 313 OFFCURVE",
"280 624 CURVE SMOOTH",
"280 901 OFFCURVE",
"450 1101 OFFCURVE",
"731 1101 CURVE SMOOTH",
"910 1101 OFFCURVE",
"1013 1017 OFFCURVE",
"1083 902 CURVE",
"1100 879 OFFCURVE",
"1111 847 OFFCURVE",
"1142 847 CURVE SMOOTH",
"1174 847 OFFCURVE",
"1202 866 OFFCURVE",
"1202 900 CURVE SMOOTH",
"1202 1165 LINE SMOOTH",
"1202 1199 OFFCURVE",
"1174 1218 OFFCURVE",
"1142 1218 CURVE SMOOTH",
"1107 1218 OFFCURVE",
"1077 1203 OFFCURVE",
"1077 1166 CURVE SMOOTH",
"1077 1092 LINE",
"992 1180 OFFCURVE",
"886 1235 OFFCURVE",
"731 1235 CURVE SMOOTH",
"365 1235 OFFCURVE",
"93 994 OFFCURVE",
"93 632 CURVE SMOOTH",
"93 235 OFFCURVE",
"360 -17 OFFCURVE",
"718 -17 CURVE SMOOTH"
);
}
);
width = 1325;
},
{
associatedMasterId = "1027097C-2ACB-4125-B942-0F8B60E4A4BD";
layerId = "704A2534-D667-48D7-8F33-39492AE57C95";
name = "Dec 8 18, 22:53";
paths = (
{
closed = 1;
nodes = (
"1108 168 OFFCURVE",
"959 -17 OFFCURVE",
"669 -17 CURVE SMOOTH",
"361 -17 OFFCURVE",
"132 225 OFFCURVE",
"132 607 CURVE SMOOTH",
"132 954 OFFCURVE",
"360 1187 OFFCURVE",
"668 1187 CURVE SMOOTH",
"827 1187 OFFCURVE",
"968 1113 OFFCURVE",
"1022 1015 CURVE",
"1022 1121 LINE SMOOTH",
"1022 1154 OFFCURVE",
"1047 1171 OFFCURVE",
"1071 1171 CURVE SMOOTH",
"1096 1171 OFFCURVE",
"1120 1154 OFFCURVE",
"1120 1120 CURVE SMOOTH",
"1120 827 LINE SMOOTH",
"1120 795 OFFCURVE",
"1097 780 OFFCURVE",
"1074 780 CURVE SMOOTH",
"1050 780 OFFCURVE",
"1031 797 OFFCURVE",
"1026 827 CURVE SMOOTH",
"995 991 OFFCURVE",
"850 1101 OFFCURVE",
"671 1101 CURVE SMOOTH",
"396 1101 OFFCURVE",
"228 890 OFFCURVE",
"228 600 CURVE SMOOTH",
"228 263 OFFCURVE",
"435 69 OFFCURVE",
"670 69 CURVE SMOOTH",
"863 69 OFFCURVE",
"995 182 OFFCURVE",
"1049 359 CURVE SMOOTH",
"1056 379 OFFCURVE",
"1072 387 OFFCURVE",
"1089 387 CURVE SMOOTH",
"1116 387 OFFCURVE",
"1146 367 OFFCURVE",
"1146 343 CURVE SMOOTH",
"1146 341 OFFCURVE",
"1146 338 OFFCURVE",
"1145 336 CURVE SMOOTH"
);
}
);
width = 1240;
}
);
unicode = 0043;
},
{
glyphname = D;
lastChange = "2018-12-08 16:46:26 +0000";
layers = (
{
anchors = (
{
name = center;
position = "{517, 566}";
},
{
name = top;
position = "{517, 1171}";
}
);
layerId = master01;
paths = (
{
closed = 1;
nodes = (
"494 0 LINE SMOOTH",
"827 0 OFFCURVE",
"1033 168 OFFCURVE",
"1033 591 CURVE SMOOTH",
"1033 993 OFFCURVE",
"817 1171 OFFCURVE",
"496 1171 CURVE SMOOTH",
"146 1171 LINE SMOOTH",
"117 1171 OFFCURVE",
"101 1149 OFFCURVE",
"101 1127 CURVE SMOOTH",
"101 1106 OFFCURVE",
"115 1085 OFFCURVE",
"145 1085 CURVE SMOOTH",
"284 1085 LINE",
"284 86 LINE",
"132 86 LINE SMOOTH",
"102 86 OFFCURVE",
"87 64 OFFCURVE",
"87 43 CURVE SMOOTH",
"87 21 OFFCURVE",
"103 0 OFFCURVE",
"133 0 CURVE SMOOTH"
);
},
{
closed = 1;
nodes = (
"385 1085 LINE",
"513 1085 LINE SMOOTH",
"779 1085 OFFCURVE",
"931 907 OFFCURVE",
"931 591 CURVE SMOOTH",
"931 256 OFFCURVE",
"784 86 OFFCURVE",
"481 86 CURVE SMOOTH",
"385 86 LINE"
);
}
);
width = 1169;
},
{
anchors = (
{
name = center;
position = "{773, 604}";
},
{
name = top;
position = "{773, 1209}";
}
);
layerId = "48AFDEF4-2FAB-4AB6-AB64-D7DFD8485508";
paths = (
{
closed = 1;
nodes = (
"651 0 LINE SMOOTH",
"1023 0 OFFCURVE",
"1309 212 OFFCURVE",
"1309 611 CURVE SMOOTH",
"1309 1014 OFFCURVE",
"1037 1209 OFFCURVE",
"651 1209 CURVE SMOOTH",
"171 1209 LINE SMOOTH",
"142 1209 OFFCURVE",
"124 1180 OFFCURVE",
"124 1149 CURVE SMOOTH",
"124 1114 OFFCURVE",
"136 1085 OFFCURVE",
"170 1085 CURVE SMOOTH",
"293 1085 LINE",
"293 125 LINE",
"115 125 LINE SMOOTH",
"82 125 OFFCURVE",
"69 95 OFFCURVE",
"69 59 CURVE SMOOTH",
"69 28 OFFCURVE",
"87 0 OFFCURVE",
"116 0 CURVE SMOOTH"
);
},
{
closed = 1;
nodes = (
"463 1085 LINE",
"669 1085 LINE SMOOTH",
"948 1085 OFFCURVE",
"1133 915 OFFCURVE",
"1133 611 CURVE SMOOTH",
"1133 244 OFFCURVE",
"875 125 OFFCURVE",
"545 125 CURVE",
"463 125 LINE"
);
}
);
width = 1423;
},
{
anchors = (
{
name = center;
position = "{515, 566}";
},
{
name = top;
position = "{515, 1171}";
}
);
layerId = "1027097C-2ACB-4125-B942-0F8B60E4A4BD";
paths = (
{
closed = 1;
nodes = (
"513 0 LINE SMOOTH",
"874 0 OFFCURVE",
"1084 168 OFFCURVE",
"1084 591 CURVE SMOOTH",
"1084 993 OFFCURVE",
"858 1171 OFFCURVE",
"515 1171 CURVE SMOOTH",
"157 1171 LINE SMOOTH",
"124 1171 OFFCURVE",
"107 1149 OFFCURVE",
"107 1127 CURVE SMOOTH",
"107 1106 OFFCURVE",
"123 1085 OFFCURVE",
"155 1085 CURVE SMOOTH",
"314 1085 LINE",
"314 86 LINE",
"151 86 LINE SMOOTH",
"118 86 OFFCURVE",
"101 64 OFFCURVE",
"101 43 CURVE SMOOTH",
"101 21 OFFCURVE",
"118 0 OFFCURVE",
"152 0 CURVE SMOOTH"
);
},
{
closed = 1;
nodes = (
"410 1085 LINE",
"534 1085 LINE SMOOTH",
"827 1085 OFFCURVE",
"988 907 OFFCURVE",
"988 591 CURVE SMOOTH",
"988 256 OFFCURVE",
"851 86 OFFCURVE",
"520 86 CURVE SMOOTH",
"410 86 LINE"
);
}
);
width = 1240;
},
{
anchors = (
{
name = center;
position = "{771, 604}";
},
{
name = top;
position = "{771, 1209}";
}
);
layerId = "87D9408F-A41F-4898-A746-FF2057AB3891";
paths = (
{
closed = 1;
nodes = (
"670 0 LINE SMOOTH",
"1070 0 OFFCURVE",
"1360 212 OFFCURVE",
"1360 611 CURVE SMOOTH",
"1360 1014 OFFCURVE",
"1078 1209 OFFCURVE",
"670 1209 CURVE SMOOTH",
"182 1209 LINE SMOOTH",
"149 1209 OFFCURVE",
"130 1180 OFFCURVE",
"130 1149 CURVE SMOOTH",
"130 1114 OFFCURVE",
"144 1085 OFFCURVE",
"180 1085 CURVE SMOOTH",
"323 1085 LINE",
"323 125 LINE",
"134 125 LINE SMOOTH",
"98 125 OFFCURVE",
"83 95 OFFCURVE",
"83 59 CURVE SMOOTH",
"83 28 OFFCURVE",
"102 0 OFFCURVE",
"135 0 CURVE SMOOTH"
);
},
{
closed = 1;
nodes = (
"488 1085 LINE",
"690 1085 LINE SMOOTH",
"996 1085 OFFCURVE",
"1190 915 OFFCURVE",
"1190 611 CURVE SMOOTH",
"1190 244 OFFCURVE",
"941 125 OFFCURVE",
"584 125 CURVE",
"488 125 LINE"
);
}
);
width = 1494;
}
);
unicode = 0044;
},
{
glyphname = Eth;
lastChange = "2018-12-09 20:18:26 +0000";
layers = (
{
components = (
{
name = D;
}
);
layerId = master01;
paths = (
{
closed = 1;
nodes = (
"529 572 LINE SMOOTH",
"556 572 OFFCURVE",
"563 592 OFFCURVE",
"563 611 CURVE SMOOTH",
"563 630 OFFCURVE",
"558 648 OFFCURVE",
"530 648 CURVE SMOOTH",
"161 648 LINE SMOOTH",
"132 648 OFFCURVE",
"126 630 OFFCURVE",
"126 611 CURVE SMOOTH",
"126 592 OFFCURVE",
"134 572 OFFCURVE",
"165 572 CURVE SMOOTH"
);
}
);
width = 1123;
},
{
components = (
{
name = D;
transform = "{1, 0, 0, 1, -16, 0}";
}
);
layerId = "48AFDEF4-2FAB-4AB6-AB64-D7DFD8485508";
paths = (
{
closed = 1;
nodes = (
"604 571 LINE SMOOTH",
"635 571 OFFCURVE",
"651 599 OFFCURVE",
"651 627 CURVE SMOOTH",
"651 654 OFFCURVE",
"635 681 OFFCURVE",
"604 681 CURVE SMOOTH",
"191 681 LINE SMOOTH",
"159 681 OFFCURVE",
"142 654 OFFCURVE",
"142 627 CURVE SMOOTH",
"142 599 OFFCURVE",
"159 571 OFFCURVE",
"195 571 CURVE SMOOTH"
);
}
);
width = 1437;
},
{
components = (
{
name = D;
}
);
layerId = "1027097C-2ACB-4125-B942-0F8B60E4A4BD";
paths = (
{
closed = 1;
nodes = (
"605 572 LINE SMOOTH",
"638 572 OFFCURVE",
"646 592 OFFCURVE",
"646 611 CURVE SMOOTH",
"646 630 OFFCURVE",
"640 648 OFFCURVE",
"607 648 CURVE SMOOTH",
"168 648 LINE SMOOTH",
"133 648 OFFCURVE",
"126 630 OFFCURVE",
"126 611 CURVE SMOOTH",
"126 592 OFFCURVE",
"135 572 OFFCURVE",
"172 572 CURVE SMOOTH"
);
}
);
width = 1240;
},
{
components = (
{
name = D;
transform = "{1, 0, 0, 1, -16, 0}";
}
);
layerId = "87D9408F-A41F-4898-A746-FF2057AB3891";
paths = (
{
closed = 1;
nodes = (
"648 571 LINE SMOOTH",
"682 571 OFFCURVE",
"700 599 OFFCURVE",
"700 627 CURVE SMOOTH",
"700 654 OFFCURVE",
"683 681 OFFCURVE",
"649 681 CURVE SMOOTH",
"196 681 LINE SMOOTH",
"161 681 OFFCURVE",
"142 654 OFFCURVE",
"142 627 CURVE SMOOTH",
"142 599 OFFCURVE",
"161 571 OFFCURVE",
"200 571 CURVE SMOOTH"
);
}
);
width = 1467;
}
);
unicode = 00D0;
},
{
glyphname = Dcroat;
lastChange = "2018-12-09 20:33:35 +0000";
layers = (
{
components = (
{
name = D;
}
);
layerId = master01;
paths = (
{
closed = 1;
nodes = (
"529 572 LINE SMOOTH",
"556 572 OFFCURVE",
"563 592 OFFCURVE",
"563 611 CURVE SMOOTH",
"563 630 OFFCURVE",
"558 648 OFFCURVE",
"530 648 CURVE SMOOTH",
"161 648 LINE SMOOTH",
"132 648 OFFCURVE",
"126 630 OFFCURVE",
"126 611 CURVE SMOOTH",
"126 592 OFFCURVE",
"134 572 OFFCURVE",
"165 572 CURVE SMOOTH"
);
}
);
width = 1123;
},
{
components = (
{
name = D;
transform = "{1, 0, 0, 1, -16, 0}";
}
);
layerId = "48AFDEF4-2FAB-4AB6-AB64-D7DFD8485508";
paths = (
{
closed = 1;
nodes = (
"604 571 LINE SMOOTH",
"635 571 OFFCURVE",
"651 599 OFFCURVE",
"651 627 CURVE SMOOTH",
"651 654 OFFCURVE",
"635 681 OFFCURVE",
"604 681 CURVE SMOOTH",
"191 681 LINE SMOOTH",
"159 681 OFFCURVE",
"142 654 OFFCURVE",
"142 627 CURVE SMOOTH",
"142 599 OFFCURVE",
"159 571 OFFCURVE",
"195 571 CURVE SMOOTH"
);
}
);
width = 1407;
},
{
components = (
{
name = D;
}
);
layerId = "1027097C-2ACB-4125-B942-0F8B60E4A4BD";
paths = (
{
closed = 1;
nodes = (
"605 572 LINE SMOOTH",
"638 572 OFFCURVE",
"646 592 OFFCURVE",
"646 611 CURVE SMOOTH",
"646 630 OFFCURVE",
"640 648 OFFCURVE",
"607 648 CURVE SMOOTH",
"168 648 LINE SMOOTH",
"133 648 OFFCURVE",
"126 630 OFFCURVE",
"126 611 CURVE SMOOTH",
"126 592 OFFCURVE",
"135 572 OFFCURVE",
"172 572 CURVE SMOOTH"
);
}
);
width = 1240;
},
{
components = (
{
name = D;
transform = "{1, 0, 0, 1, -16, 0}";
}
);
layerId = "87D9408F-A41F-4898-A746-FF2057AB3891";
paths = (
{
closed = 1;
nodes = (
"648 571 LINE SMOOTH",
"682 571 OFFCURVE",
"700 599 OFFCURVE",
"700 627 CURVE SMOOTH",
"700 654 OFFCURVE",
"683 681 OFFCURVE",
"649 681 CURVE SMOOTH",
"196 681 LINE SMOOTH",
"161 681 OFFCURVE",
"142 654 OFFCURVE",
"142 627 CURVE SMOOTH",
"142 599 OFFCURVE",
"161 571 OFFCURVE",
"200 571 CURVE SMOOTH"
);
}
);
width = 1467;
}
);
unicode = 0110;
},
{
glyphname = E;
lastChange = "2018-12-08 16:49:24 +0000";
layers = (
{
anchors = (
{
name = bottom;
position = "{594, 0}";
},
{
name = ogonek;
position = "{1114, 7}";
},
{
name = top;
position = "{594, 1171}";
}
);
layerId = master01;
paths = (
{
closed = 1;
nodes = (
"1003 0 LINE SMOOTH",
"1031 0 OFFCURVE",
"1052 19 OFFCURVE",
"1053 53 CURVE SMOOTH",
"1063 323 LINE SMOOTH",
"1064 359 OFFCURVE",
"1045 375 OFFCURVE",
"1024 375 CURVE SMOOTH",
"1004 375 OFFCURVE",
"982 362 OFFCURVE",
"979 336 CURVE SMOOTH",
"950 85 LINE",
"397 85 LINE",
"397 577 LINE",
"672 577 LINE",
"688 429 LINE SMOOTH",
"691 404 OFFCURVE",
"707 386 OFFCURVE",
"728 386 CURVE SMOOTH",
"747 386 OFFCURVE",
"764 402 OFFCURVE",
"764 437 CURVE SMOOTH",
"762 625 LINE",
"764 779 LINE SMOOTH",
"764 816 OFFCURVE",
"748 832 OFFCURVE",
"728 832 CURVE SMOOTH",
"709 832 OFFCURVE",
"692 817 OFFCURVE",
"688 787 CURVE SMOOTH",
"672 654 LINE",
"397 654 LINE",
"397 1085 LINE",
"946 1085 LINE",
"972 841 LINE SMOOTH",
"975 816 OFFCURVE",
"995 803 OFFCURVE",
"1016 803 CURVE SMOOTH",
"1034 803 OFFCURVE",
"1055 817 OFFCURVE",
"1053 847 CURVE SMOOTH",
"1039 1117 LINE SMOOTH",
"1037 1151 OFFCURVE",
"1018 1171 OFFCURVE",
"988 1171 CURVE SMOOTH",
"178 1171 LINE SMOOTH",
"149 1171 OFFCURVE",
"133 1149 OFFCURVE",
"133 1127 CURVE SMOOTH",
"133 1106 OFFCURVE",
"147 1085 OFFCURVE",
"176 1085 CURVE SMOOTH",
"297 1085 LINE",
"297 85 LINE",
"137 85 LINE SMOOTH",
"107 85 OFFCURVE",
"92 64 OFFCURVE",
"92 43 CURVE SMOOTH",
"92 22 OFFCURVE",
"108 0 OFFCURVE",
"138 0 CURVE SMOOTH"
);
}
);
width = 1154;
},
{
anchors = (
{
name = bottom;
position = "{757, 0}";
},
{
name = ogonek;
position = "{1277, 7}";
},
{
name = top;
position = "{757, 1209}";
}
);
layerId = "48AFDEF4-2FAB-4AB6-AB64-D7DFD8485508";
paths = (
{
closed = 1;
nodes = (
"1147 0 LINE SMOOTH",
"1176 0 OFFCURVE",
"1186 21 OFFCURVE",
"1198 55 CURVE",
"1257 358 LINE",
"1257 391 OFFCURVE",
"1239 410 OFFCURVE",
"1209 410 CURVE SMOOTH",
"1172 410 OFFCURVE",
"1150 386 OFFCURVE",
"1134 356 CURVE",
"1040 124 LINE",
"491 124 LINE",
"491 581 LINE",
"675 581 LINE",
"715 449 LINE SMOOTH",
"723 423 OFFCURVE",
"744 401 OFFCURVE",
"771 401 CURVE SMOOTH",
"802 401 OFFCURVE",
"818 425 OFFCURVE",
"818 458 CURVE",
"805 634 LINE",
"818 804 LINE",
"818 838 OFFCURVE",
"802 861 OFFCURVE",
"771 861 CURVE SMOOTH",
"742 861 OFFCURVE",
"723 839 OFFCURVE",
"715 813 CURVE SMOOTH",
"675 682 LINE",
"491 682 LINE",
"491 1085 LINE",
"1042 1085 LINE",
"1131 904 LINE SMOOTH",
"1145 875 OFFCURVE",
"1170 851 OFFCURVE",
"1205 851 CURVE SMOOTH",
"1234 851 OFFCURVE",
"1255 872 OFFCURVE",
"1255 902 CURVE",
"1167 1154 LINE",
"1155 1187 OFFCURVE",
"1145 1209 OFFCURVE",
"1115 1209 CURVE SMOOTH",
"209 1209 LINE SMOOTH",
"180 1209 OFFCURVE",
"162 1180 OFFCURVE",
"162 1150 CURVE SMOOTH",
"162 1114 OFFCURVE",
"174 1085 OFFCURVE",
"208 1085 CURVE SMOOTH",
"323 1085 LINE",
"323 124 LINE",
"132 124 LINE SMOOTH",
"99 124 OFFCURVE",
"86 94 OFFCURVE",
"86 60 CURVE SMOOTH",
"86 28 OFFCURVE",
"104 0 OFFCURVE",
"134 0 CURVE SMOOTH"
);
}
);
width = 1341;
},
{
anchors = (
{
name = bottom;
position = "{623, 0}";
},
{
name = ogonek;
position = "{1200, 7}";
},
{
name = top;
position = "{623, 1171}";
}
);
layerId = "1027097C-2ACB-4125-B942-0F8B60E4A4BD";
paths = (
{
closed = 1;
nodes = (
"1081 0 LINE SMOOTH",
"1114 0 OFFCURVE",
"1137 19 OFFCURVE",
"1137 53 CURVE SMOOTH",
"1137 323 LINE SMOOTH",
"1137 359 OFFCURVE",
"1116 375 OFFCURVE",
"1095 375 CURVE SMOOTH",
"1076 375 OFFCURVE",
"1053 362 OFFCURVE",
"1051 336 CURVE SMOOTH",
"1035 85 LINE",
"420 85 LINE",
"420 577 LINE",
"746 577 LINE",
"759 429 LINE SMOOTH",
"761 404 OFFCURVE",
"779 386 OFFCURVE",
"799 386 CURVE SMOOTH",
"818 386 OFFCURVE",
"837 402 OFFCURVE",
"837 437 CURVE SMOOTH",
"837 625 LINE",
"837 779 LINE SMOOTH",
"837 816 OFFCURVE",
"818 832 OFFCURVE",
"799 832 CURVE SMOOTH",
"781 832 OFFCURVE",
"762 817 OFFCURVE",
"759 787 CURVE SMOOTH",
"746 654 LINE",
"420 654 LINE",
"420 1085 LINE",
"1029 1085 LINE",
"1043 841 LINE SMOOTH",
"1044 816 OFFCURVE",
"1067 803 OFFCURVE",
"1085 803 CURVE SMOOTH",
"1105 803 OFFCURVE",
"1125 817 OFFCURVE",
"1125 847 CURVE SMOOTH",
"1125 1117 LINE SMOOTH",
"1125 1151 OFFCURVE",
"1102 1171 OFFCURVE",
"1069 1171 CURVE SMOOTH",
"191 1171 LINE SMOOTH",
"158 1171 OFFCURVE",
"141 1149 OFFCURVE",
"141 1127 CURVE SMOOTH",
"141 1106 OFFCURVE",
"157 1085 OFFCURVE",
"189 1085 CURVE SMOOTH",
"324 1085 LINE",
"324 85 LINE",
"154 85 LINE SMOOTH",
"121 85 OFFCURVE",
"104 64 OFFCURVE",
"104 43 CURVE SMOOTH",
"104 22 OFFCURVE",
"121 0 OFFCURVE",
"155 0 CURVE SMOOTH"
);
}
);
width = 1240;
},
{
anchors = (
{
name = bottom;
position = "{786, 0}";
},
{
name = ogonek;
position = "{1363, 7}";
},
{
name = top;
position = "{786, 1209}";
}
);
layerId = "87D9408F-A41F-4898-A746-FF2057AB3891";
paths = (
{
closed = 1;
nodes = (
"1225 0 LINE SMOOTH",
"1258 0 OFFCURVE",
"1272 21 OFFCURVE",
"1282 55 CURVE",
"1331 358 LINE",
"1331 391 OFFCURVE",
"1311 410 OFFCURVE",
"1280 410 CURVE SMOOTH",
"1244 410 OFFCURVE",
"1221 386 OFFCURVE",
"1207 356 CURVE",
"1125 124 LINE",
"514 124 LINE",
"514 581 LINE",
"749 581 LINE",
"786 449 LINE SMOOTH",
"793 423 OFFCURVE",
"815 401 OFFCURVE",
"842 401 CURVE SMOOTH",
"873 401 OFFCURVE",
"891 425 OFFCURVE",
"891 458 CURVE",
"880 634 LINE",
"891 804 LINE",
"891 838 OFFCURVE",
"873 861 OFFCURVE",
"842 861 CURVE SMOOTH",
"815 861 OFFCURVE",
"793 839 OFFCURVE",
"786 813 CURVE SMOOTH",
"749 682 LINE",
"514 682 LINE",
"514 1085 LINE",
"1125 1085 LINE",
"1202 904 LINE SMOOTH",
"1214 875 OFFCURVE",
"1241 851 OFFCURVE",
"1274 851 CURVE SMOOTH",
"1304 851 OFFCURVE",
"1326 872 OFFCURVE",
"1326 902 CURVE",
"1253 1154 LINE",
"1243 1187 OFFCURVE",
"1230 1209 OFFCURVE",
"1196 1209 CURVE SMOOTH",
"222 1209 LINE SMOOTH",
"189 1209 OFFCURVE",
"170 1180 OFFCURVE",
"170 1150 CURVE SMOOTH",
"170 1114 OFFCURVE",
"184 1085 OFFCURVE",
"221 1085 CURVE SMOOTH",
"350 1085 LINE",
"350 124 LINE",
"149 124 LINE SMOOTH",
"113 124 OFFCURVE",
"98 94 OFFCURVE",
"98 60 CURVE SMOOTH",
"98 28 OFFCURVE",
"117 0 OFFCURVE",
"151 0 CURVE SMOOTH"
);
}
);
width = 1427;
},
{
anchors = (
{
name = bottom;
position = "{567, 0}";
},
{
name = ogonek;
position = "{1028, 7}";
},
{
name = top;
position = "{567, 1171}";
}
);
associatedMasterId = master01;
layerId = "64B582C5-E97D-4126-A612-7ED2213A5526";
name = "Dec 8 18, 18:49";
paths = (
{
closed = 1;
nodes = (
"925 0 LINE SMOOTH",
"953 0 OFFCURVE",
"968 22 OFFCURVE",
"970 53 CURVE SMOOTH",
"990 323 LINE SMOOTH",
"993 359 OFFCURVE",
"973 375 OFFCURVE",
"954 375 CURVE SMOOTH",
"931 375 OFFCURVE",
"911 360 OFFCURVE",
"907 336 CURVE SMOOTH",
"866 85 LINE",
"376 85 LINE",
"376 577 LINE",
"598 577 LINE",
"619 429 LINE SMOOTH",
"623 401 OFFCURVE",
"639 386 OFFCURVE",
"657 386 CURVE SMOOTH",
"677 386 OFFCURVE",
"693 402 OFFCURVE",
"692 437 CURVE SMOOTH",
"688 625 LINE",
"692 779 LINE SMOOTH",
"693 816 OFFCURVE",
"677 832 OFFCURVE",
"657 832 CURVE SMOOTH",
"639 832 OFFCURVE",
"624 817 OFFCURVE",
"619 787 CURVE SMOOTH",
"598 654 LINE",
"376 654 LINE",
"376 1085 LINE",
"864 1085 LINE",
"902 841 LINE SMOOTH",
"906 816 OFFCURVE",
"925 803 OFFCURVE",
"947 803 CURVE SMOOTH",
"967 803 OFFCURVE",
"986 817 OFFCURVE",
"983 847 CURVE SMOOTH",
"953 1117 LINE SMOOTH",
"949 1151 OFFCURVE",
"935 1171 OFFCURVE",
"909 1171 CURVE SMOOTH",
"166 1171 LINE SMOOTH",
"140 1171 OFFCURVE",
"125 1149 OFFCURVE",
"125 1127 CURVE SMOOTH",
"125 1106 OFFCURVE",
"138 1085 OFFCURVE",
"165 1085 CURVE SMOOTH",
"270 1085 LINE",
"270 85 LINE",
"121 85 LINE SMOOTH",
"94 85 OFFCURVE",
"81 64 OFFCURVE",
"81 43 CURVE SMOOTH",
"81 22 OFFCURVE",
"96 0 OFFCURVE",
"123 0 CURVE SMOOTH"
);
}
);
width = 1070;
}
);
unicode = 0045;
},
{
glyphname = F;
lastChange = "2018-12-08 21:00:01 +0000";
layers = (
{
layerId = master01;
paths = (
{
closed = 1;
nodes = (
"681 0 LINE SMOOTH",
"707 0 OFFCURVE",
"723 21 OFFCURVE",
"723 43 CURVE SMOOTH",
"723 64 OFFCURVE",
"709 85 OFFCURVE",
"680 85 CURVE SMOOTH",
"393 85 LINE",
"393 577 LINE",
"676 577 LINE",
"693 429 LINE SMOOTH",
"696 401 OFFCURVE",
"714 386 OFFCURVE",
"732 386 CURVE SMOOTH",
"752 386 OFFCURVE",
"769 402 OFFCURVE",
"769 437 CURVE SMOOTH",
"767 608 LINE",
"769 779 LINE SMOOTH",
"769 816 OFFCURVE",
"752 832 OFFCURVE",
"732 832 CURVE SMOOTH",
"714 832 OFFCURVE",
"697 817 OFFCURVE",
"693 787 CURVE SMOOTH",
"676 654 LINE",
"393 654 LINE",
"393 1085 LINE",
"952 1085 LINE",
"975 841 LINE SMOOTH",
"977 816 OFFCURVE",
"999 803 OFFCURVE",
"1019 803 CURVE SMOOTH",
"1039 803 OFFCURVE",
"1058 817 OFFCURVE",
"1057 847 CURVE SMOOTH",
"1045 1117 LINE SMOOTH",
"1043 1154 OFFCURVE",
"1022 1171 OFFCURVE",
"995 1171 CURVE SMOOTH",
"165 1171 LINE SMOOTH",
"136 1171 OFFCURVE",
"120 1149 OFFCURVE",
"120 1127 CURVE SMOOTH",
"120 1106 OFFCURVE",
"134 1085 OFFCURVE",
"164 1085 CURVE SMOOTH",
"293 1085 LINE",
"293 85 LINE",
"127 85 LINE SMOOTH",
"97 85 OFFCURVE",
"82 64 OFFCURVE",
"82 43 CURVE SMOOTH",
"82 22 OFFCURVE",
"98 0 OFFCURVE",
"128 0 CURVE SMOOTH"
);
}
);
width = 1137;
},
{
layerId = "48AFDEF4-2FAB-4AB6-AB64-D7DFD8485508";
paths = (
{
closed = 1;
nodes = (
"618 0 LINE SMOOTH",
"648 0 OFFCURVE",
"667 28 OFFCURVE",
"667 59 CURVE SMOOTH",
"667 95 OFFCURVE",
"653 124 OFFCURVE",
"619 124 CURVE SMOOTH",
"467 124 LINE",
"467 553 LINE",
"653 553 LINE",
"693 422 LINE SMOOTH",
"701 396 OFFCURVE",
"719 374 OFFCURVE",
"748 374 CURVE SMOOTH",
"781 374 OFFCURVE",
"797 397 OFFCURVE",
"797 430 CURVE",
"785 607 LINE",
"797 777 LINE",
"797 811 OFFCURVE",
"781 834 OFFCURVE",
"748 834 CURVE SMOOTH",
"719 834 OFFCURVE",
"701 812 OFFCURVE",
"693 786 CURVE SMOOTH",
"653 655 LINE",
"467 655 LINE",
"467 1085 LINE",
"1022 1085 LINE",
"1093 904 LINE",
"1107 875 OFFCURVE",
"1130 851 OFFCURVE",
"1167 851 CURVE SMOOTH",
"1197 851 OFFCURVE",
"1217 872 OFFCURVE",
"1217 903 CURVE",
"1147 1154 LINE",
"1134 1187 OFFCURVE",
"1126 1209 OFFCURVE",
"1095 1209 CURVE SMOOTH",
"133 1209 LINE SMOOTH",
"104 1209 OFFCURVE",
"86 1181 OFFCURVE",
"86 1150 CURVE SMOOTH",
"86 1115 OFFCURVE",
"99 1085 OFFCURVE",
"133 1085 CURVE SMOOTH",
"299 1085 LINE",
"299 124 LINE",
"73 124 LINE SMOOTH",
"40 124 OFFCURVE",
"27 95 OFFCURVE",
"27 59 CURVE SMOOTH",
"27 28 OFFCURVE",
"45 0 OFFCURVE",
"74 0 CURVE SMOOTH"
);
}
);
width = 1242;
},
{
layerId = "1027097C-2ACB-4125-B942-0F8B60E4A4BD";
paths = (
{
closed = 1;
nodes = (
"771 0 LINE SMOOTH",
"800 0 OFFCURVE",
"816 21 OFFCURVE",
"816 43 CURVE SMOOTH",
"816 64 OFFCURVE",
"801 85 OFFCURVE",
"770 85 CURVE SMOOTH",
"420 85 LINE",
"420 577 LINE",
"757 577 LINE",
"770 429 LINE SMOOTH",
"772 404 OFFCURVE",
"789 386 OFFCURVE",
"810 386 CURVE SMOOTH",
"829 386 OFFCURVE",
"848 402 OFFCURVE",
"848 437 CURVE SMOOTH",
"848 608 LINE",
"848 779 LINE SMOOTH",
"848 816 OFFCURVE",
"829 832 OFFCURVE",
"810 832 CURVE SMOOTH",
"792 832 OFFCURVE",
"773 817 OFFCURVE",
"770 787 CURVE SMOOTH",
"757 654 LINE",
"420 654 LINE",
"420 1085 LINE",
"1042 1085 LINE",
"1056 841 LINE SMOOTH",
"1057 816 OFFCURVE",
"1079 803 OFFCURVE",
"1098 803 CURVE SMOOTH",
"1118 803 OFFCURVE",
"1138 817 OFFCURVE",
"1138 847 CURVE SMOOTH",
"1138 1117 LINE SMOOTH",
"1138 1151 OFFCURVE",
"1115 1171 OFFCURVE",
"1082 1171 CURVE SMOOTH",
"191 1171 LINE SMOOTH",
"158 1171 OFFCURVE",
"141 1149 OFFCURVE",
"141 1127 CURVE SMOOTH",
"141 1106 OFFCURVE",
"157 1085 OFFCURVE",
"189 1085 CURVE SMOOTH",
"324 1085 LINE",
"324 85 LINE",
"154 85 LINE SMOOTH",
"121 85 OFFCURVE",
"104 64 OFFCURVE",
"104 43 CURVE SMOOTH",
"104 22 OFFCURVE",
"121 0 OFFCURVE",
"155 0 CURVE SMOOTH"
);
}
);
width = 1240;
},
{
layerId = "87D9408F-A41F-4898-A746-FF2057AB3891";
paths = (
{
closed = 1;
nodes = (
"708 0 LINE SMOOTH",
"741 0 OFFCURVE",
"760 28 OFFCURVE",
"760 59 CURVE SMOOTH",
"760 95 OFFCURVE",
"745 124 OFFCURVE",
"709 124 CURVE SMOOTH",
"494 124 LINE",
"494 553 LINE",
"734 553 LINE",
"770 422 LINE SMOOTH",
"777 396 OFFCURVE",
"798 374 OFFCURVE",
"826 374 CURVE SMOOTH",
"858 374 OFFCURVE",
"876 397 OFFCURVE",
"876 430 CURVE",
"866 607 LINE",
"876 777 LINE",
"876 811 OFFCURVE",
"858 834 OFFCURVE",
"826 834 CURVE SMOOTH",
"798 834 OFFCURVE",
"777 812 OFFCURVE",
"770 786 CURVE SMOOTH",
"734 655 LINE",
"494 655 LINE",
"494 1085 LINE",
"1112 1085 LINE",
"1174 904 LINE",
"1186 875 OFFCURVE",
"1210 851 OFFCURVE",
"1246 851 CURVE SMOOTH",
"1276 851 OFFCURVE",
"1298 872 OFFCURVE",
"1298 903 CURVE",
"1240 1154 LINE",
"1229 1187 OFFCURVE",
"1216 1209 OFFCURVE",
"1182 1209 CURVE SMOOTH",
"159 1209 LINE SMOOTH",
"126 1209 OFFCURVE",
"107 1181 OFFCURVE",
"107 1150 CURVE SMOOTH",
"107 1115 OFFCURVE",
"122 1085 OFFCURVE",
"158 1085 CURVE SMOOTH",
"330 1085 LINE",
"330 124 LINE",
"100 124 LINE SMOOTH",
"64 124 OFFCURVE",
"49 95 OFFCURVE",
"49 59 CURVE SMOOTH",
"49 28 OFFCURVE",
"68 0 OFFCURVE",
"101 0 CURVE SMOOTH"
);
}
);
width = 1345;
},
{
associatedMasterId = "87D9408F-A41F-4898-A746-FF2057AB3891";
layerId = "AADBD333-AAB4-43D6-9D40-3EE8ED797532";
name = "Dec 8 18, 22:58";
paths = (
{
closed = 1;
nodes = (
"708 0 LINE SMOOTH",
"741 0 OFFCURVE",
"760 28 OFFCURVE",
"760 59 CURVE SMOOTH",
"760 95 OFFCURVE",
"745 124 OFFCURVE",
"709 124 CURVE SMOOTH",
"494 124 LINE",
"494 553 LINE",
"734 553 LINE",
"770 422 LINE SMOOTH",
"778 396 OFFCURVE",
"797 374 OFFCURVE",
"826 374 CURVE SMOOTH",
"858 374 OFFCURVE",
"876 397 OFFCURVE",
"876 430 CURVE",
"866 607 LINE",
"876 777 LINE",
"876 811 OFFCURVE",
"858 834 OFFCURVE",
"826 834 CURVE SMOOTH",
"797 834 OFFCURVE",
"778 812 OFFCURVE",
"770 786 CURVE SMOOTH",
"734 655 LINE",
"494 655 LINE",
"494 1085 LINE",
"1112 1085 LINE",
"1174 904 LINE",
"1186 875 OFFCURVE",
"1210 851 OFFCURVE",
"1246 851 CURVE SMOOTH",
"1276 851 OFFCURVE",
"1298 872 OFFCURVE",
"1298 903 CURVE SMOOTH",
"1298 911 OFFCURVE",
"1296 920 OFFCURVE",
"1294 931 CURVE SMOOTH",
"1240 1154 LINE",
"1229 1187 OFFCURVE",
"1216 1209 OFFCURVE",
"1182 1209 CURVE SMOOTH",
"159 1209 LINE SMOOTH",
"126 1209 OFFCURVE",
"107 1181 OFFCURVE",
"107 1150 CURVE SMOOTH",
"107 1115 OFFCURVE",
"122 1085 OFFCURVE",
"158 1085 CURVE SMOOTH",
"330 1085 LINE",
"330 124 LINE",
"100 124 LINE SMOOTH",
"64 124 OFFCURVE",
"49 95 OFFCURVE",
"49 59 CURVE SMOOTH",
"49 28 OFFCURVE",
"68 0 OFFCURVE",
"101 0 CURVE SMOOTH"
);
},
{
closed = 1;
nodes = (
"2146 0 LINE SMOOTH",
"2175 0 OFFCURVE",
"2191 21 OFFCURVE",
"2191 43 CURVE SMOOTH",
"2191 64 OFFCURVE",
"2176 85 OFFCURVE",
"2145 85 CURVE SMOOTH",
"1795 85 LINE",
"1795 577 LINE",
"2132 577 LINE",
"2145 429 LINE SMOOTH",
"2147 401 OFFCURVE",
"2166 386 OFFCURVE",
"2185 386 CURVE SMOOTH",
"2204 386 OFFCURVE",
"2223 402 OFFCURVE",
"2223 437 CURVE SMOOTH",
"2223 608 LINE",
"2223 779 LINE SMOOTH",
"2223 816 OFFCURVE",
"2204 832 OFFCURVE",
"2185 832 CURVE SMOOTH",
"2167 832 OFFCURVE",
"2148 817 OFFCURVE",
"2145 787 CURVE SMOOTH",
"2132 654 LINE",
"1795 654 LINE",
"1795 1085 LINE",
"2417 1085 LINE",
"2431 841 LINE SMOOTH",
"2432 816 OFFCURVE",
"2453 803 OFFCURVE",
"2473 803 CURVE SMOOTH",
"2493 803 OFFCURVE",
"2513 817 OFFCURVE",
"2513 847 CURVE SMOOTH",
"2513 1117 LINE SMOOTH",
"2513 1151 OFFCURVE",
"2490 1171 OFFCURVE",
"2457 1171 CURVE SMOOTH",
"1566 1171 LINE SMOOTH",
"1533 1171 OFFCURVE",
"1516 1149 OFFCURVE",
"1516 1127 CURVE SMOOTH",
"1516 1106 OFFCURVE",
"1532 1085 OFFCURVE",
"1564 1085 CURVE SMOOTH",
"1699 1085 LINE",
"1699 85 LINE",
"1529 85 LINE SMOOTH",
"1496 85 OFFCURVE",
"1479 64 OFFCURVE",
"1479 43 CURVE SMOOTH",
"1479 22 OFFCURVE",
"1496 0 OFFCURVE",
"1530 0 CURVE SMOOTH"
);
}
);
width = 2048;
}
);
unicode = 0046;
},
{
glyphname = G;
lastChange = "2018-12-09 20:54:02 +0000";
layers = (
{
anchors = (
{
name = bottom;
position = "{576, 1}";
},
{
name = top;
position = "{578, 1171}";
}
);
layerId = master01;
paths = (
{
closed = 1;
nodes = (
"735 -17 OFFCURVE",
"872 62 OFFCURVE",
"924 175 CURVE",
"924 51 LINE SMOOTH",
"924 12 OFFCURVE",
"948 -8 OFFCURVE",
"970 -8 CURVE SMOOTH",
"994 -8 OFFCURVE",
"1017 11 OFFCURVE",
"1017 49 CURVE SMOOTH",
"1017 510 LINE",
"1071 510 LINE SMOOTH",
"1101 510 OFFCURVE",
"1117 532 OFFCURVE",
"1117 554 CURVE SMOOTH",
"1117 575 OFFCURVE",
"1103 596 OFFCURVE",
"1073 596 CURVE SMOOTH",
"815 596 LINE SMOOTH",
"785 596 OFFCURVE",
"771 575 OFFCURVE",
"771 554 CURVE SMOOTH",
"771 532 OFFCURVE",
"786 510 OFFCURVE",
"816 510 CURVE SMOOTH",
"924 510 LINE",
"924 332 LINE",
"891 182 OFFCURVE",
"762 69 OFFCURVE",
"572 69 CURVE SMOOTH",
"350 69 OFFCURVE",
"186 263 OFFCURVE",
"186 600 CURVE SMOOTH",
"186 890 OFFCURVE",
"325 1101 OFFCURVE",
"576 1101 CURVE SMOOTH",
"739 1101 OFFCURVE",
"864 991 OFFCURVE",
"903 827 CURVE SMOOTH",
"910 797 OFFCURVE",
"927 780 OFFCURVE",
"949 780 CURVE SMOOTH",
"971 780 OFFCURVE",
"993 795 OFFCURVE",
"993 827 CURVE SMOOTH",
"993 1120 LINE SMOOTH",
"993 1154 OFFCURVE",
"970 1171 OFFCURVE",
"947 1171 CURVE SMOOTH",
"924 1171 OFFCURVE",
"900 1154 OFFCURVE",
"900 1121 CURVE SMOOTH",
"900 1015 LINE",
"841 1114 OFFCURVE",
"718 1187 OFFCURVE",
"574 1187 CURVE SMOOTH",
"281 1187 OFFCURVE",
"81 953 OFFCURVE",
"81 607 CURVE SMOOTH",
"81 225 OFFCURVE",
"280 -17 OFFCURVE",
"571 -17 CURVE SMOOTH"
);
}
);
width = 1148;
},
{
anchors = (
{
name = bottom;
position = "{724, 1}";
},
{
name = top;
position = "{724, 1217}";
}
);
layerId = "48AFDEF4-2FAB-4AB6-AB64-D7DFD8485508";
paths = (
{
closed = 1;
nodes = (
"873 -17 OFFCURVE",
"1011 28 OFFCURVE",
"1095 141 CURVE",
"1095 53 LINE SMOOTH",
"1095 20 OFFCURVE",
"1123 1 OFFCURVE",
"1152 1 CURVE SMOOTH",
"1188 1 OFFCURVE",
"1217 16 OFFCURVE",
"1217 52 CURVE SMOOTH",
"1217 495 LINE",
"1270 495 LINE SMOOTH",
"1299 495 OFFCURVE",
"1317 523 OFFCURVE",
"1317 554 CURVE SMOOTH",
"1317 590 OFFCURVE",
"1305 620 OFFCURVE",
"1271 620 CURVE SMOOTH",
"1002 620 LINE SMOOTH",
"969 620 OFFCURVE",
"957 590 OFFCURVE",
"957 554 CURVE SMOOTH",
"957 524 OFFCURVE",
"973 495 OFFCURVE",
"1004 495 CURVE SMOOTH",
"1102 495 LINE",
"1102 405 LINE SMOOTH",
"1102 180 OFFCURVE",
"900 117 OFFCURVE",
"695 117 CURVE SMOOTH",
"422 117 OFFCURVE",
"280 316 OFFCURVE",
"280 604 CURVE SMOOTH",
"280 897 OFFCURVE",
"444 1101 OFFCURVE",
"712 1101 CURVE SMOOTH",
"882 1101 OFFCURVE",
"984 1025 OFFCURVE",
"1080 901 CURVE SMOOTH",
"1097 879 OFFCURVE",
"1104 847 OFFCURVE",
"1137 847 CURVE SMOOTH",
"1167 847 OFFCURVE",
"1194 866 OFFCURVE",
"1194 899 CURVE SMOOTH",
"1194 1165 LINE SMOOTH",
"1194 1198 OFFCURVE",
"1167 1217 OFFCURVE",
"1138 1217 CURVE SMOOTH",
"1103 1217 OFFCURVE",
"1075 1202 OFFCURVE",
"1075 1166 CURVE SMOOTH",
"1075 1092 LINE",
"968 1184 OFFCURVE",
"869 1235 OFFCURVE",
"713 1235 CURVE SMOOTH",
"348 1235 OFFCURVE",
"85 985 OFFCURVE",
"85 604 CURVE SMOOTH",
"85 227 OFFCURVE",
"336 -17 OFFCURVE",
"695 -17 CURVE SMOOTH"
);
}
);
width = 1373;
},
{
anchors = (
{
name = bottom;
position = "{608, 1}";
},
{
name = top;
position = "{608, 1171}";
}
);
layerId = "1027097C-2ACB-4125-B942-0F8B60E4A4BD";
paths = (
{
closed = 1;
nodes = (
"784 -17 OFFCURVE",
"937 62 OFFCURVE",
"987 175 CURVE",
"987 51 LINE SMOOTH",
"987 12 OFFCURVE",
"1012 -8 OFFCURVE",
"1036 -8 CURVE SMOOTH",
"1060 -8 OFFCURVE",
"1083 11 OFFCURVE",
"1083 49 CURVE SMOOTH",
"1083 510 LINE",
"1144 510 LINE SMOOTH",
"1178 510 OFFCURVE",
"1195 532 OFFCURVE",
"1195 554 CURVE SMOOTH",
"1195 575 OFFCURVE",
"1179 596 OFFCURVE",
"1146 596 CURVE SMOOTH",
"862 596 LINE SMOOTH",
"829 596 OFFCURVE",
"813 575 OFFCURVE",
"813 554 CURVE SMOOTH",
"813 532 OFFCURVE",
"830 510 OFFCURVE",
"863 510 CURVE SMOOTH",
"987 510 LINE",
"987 332 LINE",
"939 182 OFFCURVE",
"815 69 OFFCURVE",
"607 69 CURVE SMOOTH",
"372 69 OFFCURVE",
"185 263 OFFCURVE",
"185 600 CURVE SMOOTH",
"185 890 OFFCURVE",
"333 1101 OFFCURVE",
"608 1101 CURVE SMOOTH",
"788 1101 OFFCURVE",
"932 991 OFFCURVE",
"963 826 CURVE SMOOTH",
"968 797 OFFCURVE",
"988 780 OFFCURVE",
"1011 780 CURVE SMOOTH",
"1034 780 OFFCURVE",
"1057 795 OFFCURVE",
"1057 827 CURVE SMOOTH",
"1057 1120 LINE SMOOTH",
"1057 1154 OFFCURVE",
"1033 1171 OFFCURVE",
"1008 1171 CURVE SMOOTH",
"984 1171 OFFCURVE",
"959 1154 OFFCURVE",
"959 1121 CURVE SMOOTH",
"959 1015 LINE",
"905 1113 OFFCURVE",
"764 1187 OFFCURVE",
"605 1187 CURVE SMOOTH",
"297 1187 OFFCURVE",
"89 954 OFFCURVE",
"89 607 CURVE SMOOTH",
"89 225 OFFCURVE",
"298 -17 OFFCURVE",
"606 -17 CURVE SMOOTH"
);
}
);
width = 1226;
},
{
anchors = (
{
name = bottom;
position = "{754, 1}";
},
{
name = top;
position = "{754, 1217}";
}
);
layerId = "87D9408F-A41F-4898-A746-FF2057AB3891";
paths = (
{
closed = 1;
nodes = (
"922 -17 OFFCURVE",
"1076 28 OFFCURVE",
"1158 141 CURVE",
"1158 53 LINE SMOOTH",
"1158 20 OFFCURVE",
"1187 1 OFFCURVE",
"1218 1 CURVE SMOOTH",
"1254 1 OFFCURVE",
"1283 16 OFFCURVE",
"1283 52 CURVE SMOOTH",
"1283 495 LINE",
"1343 495 LINE SMOOTH",
"1376 495 OFFCURVE",
"1395 523 OFFCURVE",
"1395 554 CURVE SMOOTH",
"1395 590 OFFCURVE",
"1381 620 OFFCURVE",
"1344 620 CURVE SMOOTH",
"1049 620 LINE SMOOTH",
"1013 620 OFFCURVE",
"999 590 OFFCURVE",
"999 554 CURVE SMOOTH",
"999 523 OFFCURVE",
"1017 495 OFFCURVE",
"1051 495 CURVE SMOOTH",
"1158 495 LINE",
"1158 405 LINE SMOOTH",
"1158 180 OFFCURVE",
"953 117 OFFCURVE",
"730 117 CURVE SMOOTH",
"444 117 OFFCURVE",
"279 316 OFFCURVE",
"279 604 CURVE SMOOTH",
"279 897 OFFCURVE",
"452 1101 OFFCURVE",
"744 1101 CURVE SMOOTH",
"930 1101 OFFCURVE",
"1052 1025 OFFCURVE",
"1138 903 CURVE SMOOTH",
"1155 878 OFFCURVE",
"1166 847 OFFCURVE",
"1199 847 CURVE SMOOTH",
"1230 847 OFFCURVE",
"1258 866 OFFCURVE",
"1258 899 CURVE SMOOTH",
"1258 1165 LINE SMOOTH",
"1258 1198 OFFCURVE",
"1230 1217 OFFCURVE",
"1199 1217 CURVE SMOOTH",
"1163 1217 OFFCURVE",
"1134 1202 OFFCURVE",
"1134 1166 CURVE SMOOTH",
"1134 1092 LINE",
"1034 1182 OFFCURVE",
"916 1235 OFFCURVE",
"744 1235 CURVE SMOOTH",
"363 1235 OFFCURVE",
"93 985 OFFCURVE",
"93 604 CURVE SMOOTH",
"93 227 OFFCURVE",
"354 -17 OFFCURVE",
"730 -17 CURVE SMOOTH"
);
}
);
width = 1431;
}
);
unicode = 0047;
},
{
glyphname = H;
lastChange = "2018-12-08 16:48:57 +0000";
layers = (
{
anchors = (
{
name = center;
position = "{585, 605}";
},
{
name = top;
position = "{585, 1171}";
}
);
layerId = master01;
paths = (
{
closed = 1;
nodes = (
"443 0 LINE SMOOTH",
"473 0 OFFCURVE",
"489 23 OFFCURVE",
"489 46 CURVE SMOOTH",
"489 66 OFFCURVE",
"474 86 OFFCURVE",
"445 86 CURVE SMOOTH",
"346 86 LINE",
"346 558 LINE",
"846 558 LINE",
"846 86 LINE",
"747 86 LINE SMOOTH",
"718 86 OFFCURVE",
"703 65 OFFCURVE",
"703 44 CURVE SMOOTH",
"703 22 OFFCURVE",
"719 0 OFFCURVE",
"748 0 CURVE SMOOTH",
"1042 0 LINE SMOOTH",
"1071 0 OFFCURVE",
"1087 22 OFFCURVE",
"1087 43 CURVE SMOOTH",
"1087 65 OFFCURVE",
"1072 86 OFFCURVE",
"1042 86 CURVE SMOOTH",
"946 86 LINE",
"946 1085 LINE",
"1042 1085 LINE SMOOTH",
"1072 1085 OFFCURVE",
"1087 1107 OFFCURVE",
"1087 1130 CURVE SMOOTH",
"1087 1150 OFFCURVE",
"1071 1171 OFFCURVE",
"1042 1171 CURVE SMOOTH",
"748 1171 LINE SMOOTH",
"719 1171 OFFCURVE",
"703 1149 OFFCURVE",
"703 1127 CURVE SMOOTH",
"703 1106 OFFCURVE",
"717 1085 OFFCURVE",
"747 1085 CURVE SMOOTH",
"846 1085 LINE",
"846 638 LINE",
"346 638 LINE",
"346 1085 LINE",
"445 1085 LINE SMOOTH",
"475 1085 OFFCURVE",
"489 1106 OFFCURVE",
"489 1127 CURVE SMOOTH",
"489 1149 OFFCURVE",
"473 1171 OFFCURVE",
"443 1171 CURVE SMOOTH",
"141 1171 LINE SMOOTH",
"112 1171 OFFCURVE",
"96 1149 OFFCURVE",
"96 1128 CURVE SMOOTH",
"96 1106 OFFCURVE",
"111 1085 OFFCURVE",
"141 1085 CURVE SMOOTH",
"245 1085 LINE",
"245 86 LINE",
"127 86 LINE SMOOTH",
"98 86 OFFCURVE",
"83 65 OFFCURVE",
"83 44 CURVE SMOOTH",
"83 22 OFFCURVE",
"99 0 OFFCURVE",
"128 0 CURVE SMOOTH"
);
}
);
width = 1170;
},
{
anchors = (
{
name = center;
position = "{714, 605}";
},
{
name = top;
position = "{714, 1210}";
}
);
layerId = "48AFDEF4-2FAB-4AB6-AB64-D7DFD8485508";
paths = (
{
closed = 1;
nodes = (
"587 0 LINE SMOOTH",
"617 0 OFFCURVE",
"635 28 OFFCURVE",
"635 60 CURVE SMOOTH",
"635 94 OFFCURVE",
"622 124 OFFCURVE",
"588 124 CURVE SMOOTH",
"446 124 LINE",
"446 556 LINE",
"1011 556 LINE",
"1011 124 LINE",
"869 124 LINE SMOOTH",
"835 124 OFFCURVE",
"822 94 OFFCURVE",
"822 60 CURVE SMOOTH",
"822 28 OFFCURVE",
"840 0 OFFCURVE",
"869 0 CURVE SMOOTH",
"1302 0 LINE SMOOTH",
"1331 0 OFFCURVE",
"1349 28 OFFCURVE",
"1349 60 CURVE SMOOTH",
"1349 94 OFFCURVE",
"1338 124 OFFCURVE",
"1303 124 CURVE SMOOTH",
"1179 124 LINE",
"1179 1085 LINE",
"1303 1085 LINE SMOOTH",
"1338 1085 OFFCURVE",
"1349 1116 OFFCURVE",
"1349 1150 CURVE SMOOTH",
"1349 1181 OFFCURVE",
"1331 1210 OFFCURVE",
"1302 1210 CURVE SMOOTH",
"869 1210 LINE SMOOTH",
"840 1210 OFFCURVE",
"822 1181 OFFCURVE",
"822 1150 CURVE SMOOTH",
"822 1115 OFFCURVE",
"836 1085 OFFCURVE",
"869 1085 CURVE SMOOTH",
"1011 1085 LINE",
"1011 679 LINE",
"446 679 LINE",
"446 1085 LINE",
"588 1085 LINE SMOOTH",
"621 1085 OFFCURVE",
"635 1115 OFFCURVE",
"635 1150 CURVE SMOOTH",
"635 1181 OFFCURVE",
"617 1210 OFFCURVE",
"587 1210 CURVE SMOOTH",
"139 1210 LINE SMOOTH",
"110 1210 OFFCURVE",
"92 1181 OFFCURVE",
"92 1150 CURVE SMOOTH",
"92 1115 OFFCURVE",
"105 1085 OFFCURVE",
"138 1085 CURVE SMOOTH",
"276 1085 LINE",
"276 124 LINE",
"125 124 LINE SMOOTH",
"91 124 OFFCURVE",
"78 94 OFFCURVE",
"78 60 CURVE SMOOTH",
"78 28 OFFCURVE",
"96 0 OFFCURVE",
"125 0 CURVE SMOOTH"
);
}
);
width = 1427;
},
{
anchors = (
{
name = center;
position = "{620, 605}";
},
{
name = top;
position = "{620, 1171}";
}
);
layerId = "1027097C-2ACB-4125-B942-0F8B60E4A4BD";
paths = (
{
closed = 1;
nodes = (
"459 0 LINE SMOOTH",
"492 0 OFFCURVE",
"509 23 OFFCURVE",
"509 46 CURVE SMOOTH",
"509 66 OFFCURVE",
"493 86 OFFCURVE",
"461 86 CURVE SMOOTH",
"361 86 LINE",
"361 558 LINE",
"901 558 LINE",
"901 86 LINE",
"801 86 LINE SMOOTH",
"769 86 OFFCURVE",
"753 65 OFFCURVE",
"753 44 CURVE SMOOTH",
"753 22 OFFCURVE",
"770 0 OFFCURVE",
"803 0 CURVE SMOOTH",
"1097 0 LINE SMOOTH",
"1130 0 OFFCURVE",
"1147 22 OFFCURVE",
"1147 43 CURVE SMOOTH",
"1147 65 OFFCURVE",
"1130 86 OFFCURVE",
"1097 86 CURVE SMOOTH",
"997 86 LINE",
"997 1085 LINE",
"1097 1085 LINE SMOOTH",
"1130 1085 OFFCURVE",
"1147 1107 OFFCURVE",
"1147 1130 CURVE SMOOTH",
"1147 1150 OFFCURVE",
"1130 1171 OFFCURVE",
"1097 1171 CURVE SMOOTH",
"803 1171 LINE SMOOTH",
"770 1171 OFFCURVE",
"753 1149 OFFCURVE",
"753 1127 CURVE SMOOTH",
"753 1106 OFFCURVE",
"768 1085 OFFCURVE",
"801 1085 CURVE SMOOTH",
"901 1085 LINE",
"901 638 LINE",
"361 638 LINE",
"361 1085 LINE",
"461 1085 LINE SMOOTH",
"494 1085 OFFCURVE",
"509 1106 OFFCURVE",
"509 1127 CURVE SMOOTH",
"509 1149 OFFCURVE",
"492 1171 OFFCURVE",
"459 1171 CURVE SMOOTH",
"157 1171 LINE SMOOTH",
"124 1171 OFFCURVE",
"107 1149 OFFCURVE",
"107 1128 CURVE SMOOTH",
"107 1106 OFFCURVE",
"124 1085 OFFCURVE",
"157 1085 CURVE SMOOTH",
"265 1085 LINE",
"265 86 LINE",
"141 86 LINE SMOOTH",
"109 86 OFFCURVE",
"93 65 OFFCURVE",
"93 44 CURVE SMOOTH",
"93 22 OFFCURVE",
"110 0 OFFCURVE",
"143 0 CURVE SMOOTH"
);
}
);
width = 1240;
},
{
anchors = (
{
name = center;
position = "{749, 605}";
},
{
name = top;
position = "{749, 1210}";
}
);
layerId = "87D9408F-A41F-4898-A746-FF2057AB3891";
paths = (
{
closed = 1;
nodes = (
"603 0 LINE SMOOTH",
"636 0 OFFCURVE",
"655 28 OFFCURVE",
"655 60 CURVE SMOOTH",
"655 95 OFFCURVE",
"640 124 OFFCURVE",
"604 124 CURVE SMOOTH",
"461 124 LINE",
"461 556 LINE",
"1066 556 LINE",
"1066 124 LINE",
"923 124 LINE SMOOTH",
"887 124 OFFCURVE",
"872 95 OFFCURVE",
"872 60 CURVE SMOOTH",
"872 28 OFFCURVE",
"891 0 OFFCURVE",
"924 0 CURVE SMOOTH",
"1357 0 LINE SMOOTH",
"1390 0 OFFCURVE",
"1409 28 OFFCURVE",
"1409 60 CURVE SMOOTH",
"1409 95 OFFCURVE",
"1395 124 OFFCURVE",
"1358 124 CURVE SMOOTH",
"1230 124 LINE",
"1230 1085 LINE",
"1358 1085 LINE SMOOTH",
"1395 1085 OFFCURVE",
"1409 1115 OFFCURVE",
"1409 1150 CURVE SMOOTH",
"1409 1181 OFFCURVE",
"1390 1210 OFFCURVE",
"1357 1210 CURVE SMOOTH",
"924 1210 LINE SMOOTH",
"891 1210 OFFCURVE",
"872 1181 OFFCURVE",
"872 1150 CURVE SMOOTH",
"872 1115 OFFCURVE",
"887 1085 OFFCURVE",
"923 1085 CURVE SMOOTH",
"1066 1085 LINE",
"1066 679 LINE",
"461 679 LINE",
"461 1085 LINE",
"604 1085 LINE SMOOTH",
"640 1085 OFFCURVE",
"655 1115 OFFCURVE",
"655 1150 CURVE SMOOTH",
"655 1181 OFFCURVE",
"636 1210 OFFCURVE",
"603 1210 CURVE SMOOTH",
"155 1210 LINE SMOOTH",
"122 1210 OFFCURVE",
"103 1181 OFFCURVE",
"103 1150 CURVE SMOOTH",
"103 1115 OFFCURVE",
"118 1085 OFFCURVE",
"154 1085 CURVE SMOOTH",
"296 1085 LINE",
"296 124 LINE",
"139 124 LINE SMOOTH",
"103 124 OFFCURVE",
"88 95 OFFCURVE",
"88 60 CURVE SMOOTH",
"88 28 OFFCURVE",
"107 0 OFFCURVE",
"140 0 CURVE SMOOTH"
);
}
);
width = 1497;
},
{
anchors = (
{
name = center;
position = "{678, 605}";
},
{
name = top;
position = "{678, 1210}";
}
);
associatedMasterId = "48AFDEF4-2FAB-4AB6-AB64-D7DFD8485508";
layerId = "268EA82B-6846-4A4B-9AE1-C106CD9E5BD6";
name = "Dec 8 18, 18:48";
paths = (
{
closed = 1;
nodes = (
"571 0 LINE SMOOTH",
"597 0 OFFCURVE",
"614 28 OFFCURVE",
"614 60 CURVE SMOOTH",
"614 95 OFFCURVE",
"602 124 OFFCURVE",
"571 124 CURVE SMOOTH",
"430 124 LINE",
"430 556 LINE",
"954 556 LINE",
"954 124 LINE",
"813 124 LINE SMOOTH",
"782 124 OFFCURVE",
"771 94 OFFCURVE",
"771 60 CURVE SMOOTH",
"771 29 OFFCURVE",
"787 0 OFFCURVE",
"814 0 CURVE SMOOTH",
"1246 0 LINE SMOOTH",
"1272 0 OFFCURVE",
"1289 28 OFFCURVE",
"1289 60 CURVE SMOOTH",
"1289 95 OFFCURVE",
"1279 124 OFFCURVE",
"1247 124 CURVE SMOOTH",
"1128 124 LINE",
"1128 1085 LINE",
"1247 1085 LINE SMOOTH",
"1279 1085 OFFCURVE",
"1289 1115 OFFCURVE",
"1289 1150 CURVE SMOOTH",
"1289 1181 OFFCURVE",
"1272 1210 OFFCURVE",
"1246 1210 CURVE SMOOTH",
"814 1210 LINE SMOOTH",
"787 1210 OFFCURVE",
"771 1180 OFFCURVE",
"771 1150 CURVE SMOOTH",
"771 1115 OFFCURVE",
"783 1085 OFFCURVE",
"813 1085 CURVE SMOOTH",
"954 1085 LINE",
"954 679 LINE",
"430 679 LINE",
"430 1085 LINE",
"571 1085 LINE SMOOTH",
"602 1085 OFFCURVE",
"614 1116 OFFCURVE",
"614 1150 CURVE SMOOTH",
"614 1181 OFFCURVE",
"597 1210 OFFCURVE",
"571 1210 CURVE SMOOTH",
"122 1210 LINE SMOOTH",
"96 1210 OFFCURVE",
"80 1180 OFFCURVE",
"80 1150 CURVE SMOOTH",
"80 1116 OFFCURVE",
"90 1085 OFFCURVE",
"121 1085 CURVE SMOOTH",
"256 1085 LINE",
"256 124 LINE",
"110 124 LINE SMOOTH",
"78 124 OFFCURVE",
"67 94 OFFCURVE",
"67 60 CURVE SMOOTH",
"67 28 OFFCURVE",
"84 0 OFFCURVE",
"110 0 CURVE SMOOTH"
);
}
);
width = 1356;
}
);
unicode = 0048;
},
{
glyphname = Hbar;
lastChange = "2018-12-09 20:55:43 +0000";
layers = (
{
components = (
{
name = H;
}
);
layerId = master01;
paths = (
{
closed = 1;
nodes = (
"1106 855 LINE SMOOTH",
"1139 855 OFFCURVE",
"1147 875 OFFCURVE",
"1147 894 CURVE SMOOTH",
"1147 913 OFFCURVE",
"1141 931 OFFCURVE",
"1108 931 CURVE SMOOTH",
"149 931 LINE SMOOTH",
"114 931 OFFCURVE",
"107 913 OFFCURVE",
"107 894 CURVE SMOOTH",
"107 875 OFFCURVE",
"116 855 OFFCURVE",
"153 855 CURVE SMOOTH"
);
}
);
width = 1230;
},
{
components = (
{
name = H;
}
);
layerId = "48AFDEF4-2FAB-4AB6-AB64-D7DFD8485508";
paths = (
{
closed = 1;
nodes = (
"1330 826 LINE SMOOTH",
"1364 826 OFFCURVE",
"1382 854 OFFCURVE",
"1382 881 CURVE SMOOTH",
"1382 908 OFFCURVE",
"1365 935 OFFCURVE",
"1331 935 CURVE SMOOTH",
"138 935 LINE SMOOTH",
"102 935 OFFCURVE",
"84 908 OFFCURVE",
"84 881 CURVE SMOOTH",
"84 854 OFFCURVE",
"103 826 OFFCURVE",
"143 826 CURVE SMOOTH"
);
}
);
width = 1460;
},
{
components = (
{
name = H;
}
);
layerId = "1027097C-2ACB-4125-B942-0F8B60E4A4BD";
paths = (
{
closed = 1;
nodes = (
"1106 855 LINE SMOOTH",
"1139 855 OFFCURVE",
"1147 875 OFFCURVE",
"1147 894 CURVE SMOOTH",
"1147 913 OFFCURVE",
"1141 931 OFFCURVE",
"1108 931 CURVE SMOOTH",
"149 931 LINE SMOOTH",
"114 931 OFFCURVE",
"107 913 OFFCURVE",
"107 894 CURVE SMOOTH",
"107 875 OFFCURVE",
"116 855 OFFCURVE",
"153 855 CURVE SMOOTH"
);
}
);
width = 1240;
},
{
components = (
{
name = H;
}
);
layerId = "87D9408F-A41F-4898-A746-FF2057AB3891";
paths = (
{
closed = 1;
nodes = (
"1330 826 LINE SMOOTH",
"1364 826 OFFCURVE",
"1382 854 OFFCURVE",
"1382 881 CURVE SMOOTH",
"1382 908 OFFCURVE",
"1365 935 OFFCURVE",
"1331 935 CURVE SMOOTH",
"138 935 LINE SMOOTH",
"102 935 OFFCURVE",
"84 908 OFFCURVE",
"84 881 CURVE SMOOTH",
"84 854 OFFCURVE",
"103 826 OFFCURVE",
"143 826 CURVE SMOOTH"
);
}
);
width = 1493;
}
);
unicode = 0126;
},
{
glyphname = I;
lastChange = "2018-12-08 16:56:19 +0000";
layers = (
{
anchors = (
{
name = ogonek;
position = "{1001, 7}";
},
{
name = top;
position = "{562, 1171}";
}
);
layerId = master01;
paths = (
{
closed = 1;
nodes = (
"852 0 LINE SMOOTH",
"881 0 OFFCURVE",
"897 21 OFFCURVE",
"897 43 CURVE SMOOTH",
"897 64 OFFCURVE",
"883 86 OFFCURVE",
"853 86 CURVE SMOOTH",
"620 86 LINE",
"620 1085 LINE",
"853 1085 LINE SMOOTH",
"883 1085 OFFCURVE",
"897 1106 OFFCURVE",
"897 1127 CURVE SMOOTH",
"897 1149 OFFCURVE",
"881 1171 OFFCURVE",
"852 1171 CURVE SMOOTH",
"273 1171 LINE SMOOTH",
"244 1171 OFFCURVE",
"227 1149 OFFCURVE",
"227 1127 CURVE SMOOTH",
"227 1106 OFFCURVE",
"242 1085 OFFCURVE",
"272 1085 CURVE SMOOTH",
"519 1085 LINE",
"519 86 LINE",
"272 86 LINE SMOOTH",
"242 86 OFFCURVE",
"227 64 OFFCURVE",
"227 43 CURVE SMOOTH",
"227 21 OFFCURVE",
"244 0 OFFCURVE",
"273 0 CURVE SMOOTH"
);
}
);
width = 1066;
},
{
anchors = (
{
name = ogonek;
position = "{1001, 7}";
},
{
name = top;
position = "{443, 1209}";
}
);
layerId = "48AFDEF4-2FAB-4AB6-AB64-D7DFD8485508";
paths = (
{
closed = 1;
nodes = (
"643 0 LINE SMOOTH",
"673 0 OFFCURVE",
"690 32 OFFCURVE",
"690 62 CURVE SMOOTH",
"690 98 OFFCURVE",
"678 124 OFFCURVE",
"645 124 CURVE SMOOTH",
"526 124 LINE",
"526 1085 LINE",
"645 1085 LINE SMOOTH",
"678 1085 OFFCURVE",
"690 1115 OFFCURVE",
"690 1150 CURVE SMOOTH",
"690 1181 OFFCURVE",
"672 1209 OFFCURVE",
"643 1209 CURVE SMOOTH",
"243 1209 LINE SMOOTH",
"213 1209 OFFCURVE",
"197 1180 OFFCURVE",
"197 1150 CURVE SMOOTH",
"197 1115 OFFCURVE",
"209 1085 OFFCURVE",
"242 1085 CURVE SMOOTH",
"356 1085 LINE",
"356 124 LINE",
"242 124 LINE SMOOTH",
"209 124 OFFCURVE",
"197 98 OFFCURVE",
"197 62 CURVE SMOOTH",
"197 32 OFFCURVE",
"213 0 OFFCURVE",
"243 0 CURVE SMOOTH"
);
}
);
width = 829;
},
{
anchors = (
{
name = ogonek;
position = "{1112, 7}";
},
{
name = top;
position = "{652, 1171}";
}
);
layerId = "1027097C-2ACB-4125-B942-0F8B60E4A4BD";
paths = (
{
closed = 1;
nodes = (
"995 0 LINE SMOOTH",
"1028 0 OFFCURVE",
"1045 21 OFFCURVE",
"1045 43 CURVE SMOOTH",
"1045 64 OFFCURVE",
"1029 86 OFFCURVE",
"996 86 CURVE SMOOTH",
"710 86 LINE",
"710 1085 LINE",
"996 1085 LINE SMOOTH",
"1029 1085 OFFCURVE",
"1045 1106 OFFCURVE",
"1045 1127 CURVE SMOOTH",
"1045 1149 OFFCURVE",
"1028 1171 OFFCURVE",
"995 1171 CURVE SMOOTH",
"310 1171 LINE SMOOTH",
"277 1171 OFFCURVE",
"259 1149 OFFCURVE",
"259 1127 CURVE SMOOTH",
"259 1106 OFFCURVE",
"276 1085 OFFCURVE",
"309 1085 CURVE SMOOTH",
"614 1085 LINE",
"614 86 LINE",
"309 86 LINE SMOOTH",
"276 86 OFFCURVE",
"259 64 OFFCURVE",
"259 43 CURVE SMOOTH",
"259 21 OFFCURVE",
"277 0 OFFCURVE",
"310 0 CURVE SMOOTH"
);
}
);
width = 1240;
},
{
anchors = (
{
name = ogonek;
position = "{1112, 7}";
},
{
name = top;
position = "{533, 1209}";
}
);
layerId = "87D9408F-A41F-4898-A746-FF2057AB3891";
paths = (
{
closed = 1;
nodes = (
"786 0 LINE SMOOTH",
"819 0 OFFCURVE",
"838 31 OFFCURVE",
"838 62 CURVE SMOOTH",
"838 98 OFFCURVE",
"824 124 OFFCURVE",
"788 124 CURVE SMOOTH",
"616 124 LINE",
"616 1085 LINE",
"788 1085 LINE SMOOTH",
"824 1085 OFFCURVE",
"838 1115 OFFCURVE",
"838 1150 CURVE SMOOTH",
"838 1181 OFFCURVE",
"819 1209 OFFCURVE",
"786 1209 CURVE SMOOTH",
"280 1209 LINE SMOOTH",
"247 1209 OFFCURVE",
"229 1181 OFFCURVE",
"229 1150 CURVE SMOOTH",
"229 1115 OFFCURVE",
"243 1085 OFFCURVE",
"279 1085 CURVE SMOOTH",
"451 1085 LINE",
"451 124 LINE",
"279 124 LINE SMOOTH",
"243 124 OFFCURVE",
"229 98 OFFCURVE",
"229 62 CURVE SMOOTH",
"229 31 OFFCURVE",
"247 0 OFFCURVE",
"280 0 CURVE SMOOTH"
);
}
);
width = 1003;
},
{
anchors = (
{
name = ogonek;
position = "{890, 7}";
},
{
name = top;
position = "{353, 1209}";
}
);
associatedMasterId = "48AFDEF4-2FAB-4AB6-AB64-D7DFD8485508";
layerId = "C2ABA3F7-43E3-47C9-A271-2E3B14CC706E";
name = "Dec 8 18, 18:55";
paths = (
{
closed = 1;
nodes = (
"500 0 LINE SMOOTH",
"526 0 OFFCURVE",
"543 31 OFFCURVE",
"543 62 CURVE SMOOTH",
"543 97 OFFCURVE",
"533 124 OFFCURVE",
"502 124 CURVE SMOOTH",
"435 124 LINE",
"435 1085 LINE",
"502 1085 LINE SMOOTH",
"533 1085 OFFCURVE",
"543 1116 OFFCURVE",
"543 1150 CURVE SMOOTH",
"543 1181 OFFCURVE",
"526 1209 OFFCURVE",
"500 1209 CURVE SMOOTH",
"206 1209 LINE SMOOTH",
"180 1209 OFFCURVE",
"165 1181 OFFCURVE",
"165 1150 CURVE SMOOTH",
"165 1115 OFFCURVE",
"174 1085 OFFCURVE",
"205 1085 CURVE SMOOTH",
"260 1085 LINE",
"260 124 LINE",
"205 124 LINE SMOOTH",
"174 124 OFFCURVE",
"165 98 OFFCURVE",
"165 62 CURVE SMOOTH",
"165 31 OFFCURVE",
"180 0 OFFCURVE",
"206 0 CURVE SMOOTH"
);
}
);
width = 656;
},
{
anchors = (
{
name = ogonek;
position = "{890, 7}";
},
{
name = top;
position = "{472, 1171}";
}
);
associatedMasterId = master01;
layerId = "4BCA065E-9454-41C1-B797-549730E6BEBF";
name = "Dec 8 18, 18:55";
paths = (
{
closed = 1;
nodes = (
"709 0 LINE SMOOTH",
"735 0 OFFCURVE",
"750 21 OFFCURVE",
"750 43 CURVE SMOOTH",
"750 63 OFFCURVE",
"738 86 OFFCURVE",
"710 86 CURVE SMOOTH",
"529 86 LINE",
"529 1085 LINE",
"710 1085 LINE SMOOTH",
"738 1085 OFFCURVE",
"750 1107 OFFCURVE",
"750 1127 CURVE SMOOTH",
"750 1149 OFFCURVE",
"735 1171 OFFCURVE",
"709 1171 CURVE SMOOTH",
"236 1171 LINE SMOOTH",
"210 1171 OFFCURVE",
"195 1149 OFFCURVE",
"195 1127 CURVE SMOOTH",
"195 1106 OFFCURVE",
"207 1085 OFFCURVE",
"235 1085 CURVE SMOOTH",
"423 1085 LINE",
"423 86 LINE",
"235 86 LINE SMOOTH",
"207 86 OFFCURVE",
"195 64 OFFCURVE",
"195 43 CURVE SMOOTH",
"195 21 OFFCURVE",
"210 0 OFFCURVE",
"236 0 CURVE SMOOTH"
);
}
);
width = 893;
}
);
unicode = 0049;
},
{
glyphname = IJ;
lastChange = "2018-12-09 21:05:05 +0000";
layers = (
{
layerId = master01;
paths = (
{
closed = 1;
nodes = (
"494 0 LINE SMOOTH",
"523 0 OFFCURVE",
"540 21 OFFCURVE",
"540 43 CURVE SMOOTH",
"540 64 OFFCURVE",
"525 86 OFFCURVE",
"495 86 CURVE SMOOTH",
"369 86 LINE",
"369 1085 LINE",
"899 1085 LINE",
"899 304 LINE SMOOTH",
"899 143 OFFCURVE",
"885 81 OFFCURVE",
"691 81 CURVE SMOOTH",
"669 81 OFFCURVE",
"655 61 OFFCURVE",
"655 41 CURVE SMOOTH",
"655 20 OFFCURVE",
"670 0 OFFCURVE",
"693 0 CURVE SMOOTH",
"937 0 OFFCURVE",
"996 103 OFFCURVE",
"996 307 CURVE SMOOTH",
"996 1085 LINE",
"1103 1085 LINE SMOOTH",
"1133 1085 OFFCURVE",
"1147 1107 OFFCURVE",
"1147 1128 CURVE SMOOTH",
"1147 1150 OFFCURVE",
"1131 1171 OFFCURVE",
"1102 1171 CURVE SMOOTH",
"126 1171 LINE SMOOTH",
"97 1171 OFFCURVE",
"80 1149 OFFCURVE",
"80 1127 CURVE SMOOTH",
"80 1106 OFFCURVE",
"95 1085 OFFCURVE",
"125 1085 CURVE SMOOTH",
"268 1085 LINE",
"268 86 LINE",
"139 86 LINE SMOOTH",
"109 86 OFFCURVE",
"94 64 OFFCURVE",
"94 43 CURVE SMOOTH",
"94 21 OFFCURVE",
"111 0 OFFCURVE",
"140 0 CURVE SMOOTH"
);
}
);
width = 1220;
},
{
layerId = "48AFDEF4-2FAB-4AB6-AB64-D7DFD8485508";
paths = (
{
closed = 1;
nodes = (
"802 0 LINE SMOOTH",
"832 0 OFFCURVE",
"850 31 OFFCURVE",
"850 62 CURVE SMOOTH",
"850 97 OFFCURVE",
"838 124 OFFCURVE",
"804 124 CURVE SMOOTH",
"637 124 LINE",
"637 1085 LINE",
"1135 1085 LINE",
"1135 359 LINE SMOOTH",
"1135 217 OFFCURVE",
"1096 149 OFFCURVE",
"1039 122 CURVE SMOOTH",
"1005 106 OFFCURVE",
"976 86 OFFCURVE",
"976 48 CURVE SMOOTH",
"976 24 OFFCURVE",
"1007 1 OFFCURVE",
"1051 1 CURVE SMOOTH",
"1138 1 OFFCURVE",
"1288 97 OFFCURVE",
"1288 376 CURVE SMOOTH",
"1288 1085 LINE",
"1463 1085 LINE SMOOTH",
"1492 1085 OFFCURVE",
"1503 1110 OFFCURVE",
"1503 1145 CURVE SMOOTH",
"1503 1176 OFFCURVE",
"1487 1199 OFFCURVE",
"1462 1199 CURVE SMOOTH",
"308 1199 LINE SMOOTH",
"279 1199 OFFCURVE",
"262 1176 OFFCURVE",
"262 1145 CURVE SMOOTH",
"262 1110 OFFCURVE",
"274 1085 OFFCURVE",
"307 1085 CURVE SMOOTH",
"467 1085 LINE",
"467 124 LINE",
"301 124 LINE SMOOTH",
"268 124 OFFCURVE",
"256 98 OFFCURVE",
"256 62 CURVE SMOOTH",
"256 32 OFFCURVE",
"272 0 OFFCURVE",
"302 0 CURVE SMOOTH"
);
}
);
width = 1717;
},
{
layerId = "1027097C-2ACB-4125-B942-0F8B60E4A4BD";
paths = (
{
closed = 1;
nodes = (
"478 0 LINE SMOOTH",
"511 0 OFFCURVE",
"528 21 OFFCURVE",
"528 43 CURVE SMOOTH",
"528 64 OFFCURVE",
"512 86 OFFCURVE",
"479 86 CURVE SMOOTH",
"348 86 LINE",
"348 1085 LINE",
"944 1085 LINE",
"944 304 LINE SMOOTH",
"944 125 OFFCURVE",
"919 81 OFFCURVE",
"676 81 CURVE SMOOTH",
"654 81 OFFCURVE",
"644 61 OFFCURVE",
"644 41 CURVE SMOOTH",
"644 20 OFFCURVE",
"655 0 OFFCURVE",
"676 0 CURVE SMOOTH",
"963 0 OFFCURVE",
"1040 74 OFFCURVE",
"1040 307 CURVE SMOOTH",
"1040 1085 LINE",
"1143 1085 LINE SMOOTH",
"1176 1085 OFFCURVE",
"1192 1107 OFFCURVE",
"1192 1128 CURVE SMOOTH",
"1192 1150 OFFCURVE",
"1175 1171 OFFCURVE",
"1142 1171 CURVE SMOOTH",
"98 1171 LINE SMOOTH",
"65 1171 OFFCURVE",
"47 1149 OFFCURVE",
"47 1127 CURVE SMOOTH",
"47 1106 OFFCURVE",
"64 1085 OFFCURVE",
"97 1085 CURVE SMOOTH",
"252 1085 LINE",
"252 86 LINE",
"117 86 LINE SMOOTH",
"84 86 OFFCURVE",
"67 64 OFFCURVE",
"67 43 CURVE SMOOTH",
"67 21 OFFCURVE",
"85 0 OFFCURVE",
"118 0 CURVE SMOOTH"
);
}
);
width = 1240;
},
{
layerId = "87D9408F-A41F-4898-A746-FF2057AB3891";
paths = (
{
closed = 1;
nodes = (
"786 0 LINE SMOOTH",
"819 0 OFFCURVE",
"838 31 OFFCURVE",
"838 62 CURVE SMOOTH",
"838 98 OFFCURVE",
"824 124 OFFCURVE",
"788 124 CURVE SMOOTH",
"616 124 LINE",
"616 1085 LINE",
"1180 1085 LINE",
"1180 359 LINE SMOOTH",
"1180 217 OFFCURVE",
"1129 148 OFFCURVE",
"1072 122 CURVE SMOOTH",
"1038 106 OFFCURVE",
"1009 86 OFFCURVE",
"1009 48 CURVE SMOOTH",
"1009 24 OFFCURVE",
"1040 1 OFFCURVE",
"1084 1 CURVE SMOOTH",
"1171 1 OFFCURVE",
"1331 97 OFFCURVE",
"1331 376 CURVE SMOOTH",
"1331 1085 LINE",
"1502 1085 LINE SMOOTH",
"1535 1085 OFFCURVE",
"1548 1110 OFFCURVE",
"1548 1145 CURVE SMOOTH",
"1548 1176 OFFCURVE",
"1531 1199 OFFCURVE",
"1501 1199 CURVE SMOOTH",
"280 1199 LINE SMOOTH",
"247 1199 OFFCURVE",
"229 1176 OFFCURVE",
"229 1145 CURVE SMOOTH",
"229 1110 OFFCURVE",
"243 1085 OFFCURVE",
"279 1085 CURVE SMOOTH",
"451 1085 LINE",
"451 124 LINE",
"279 124 LINE SMOOTH",
"243 124 OFFCURVE",
"229 98 OFFCURVE",
"229 62 CURVE SMOOTH",
"229 31 OFFCURVE",
"247 0 OFFCURVE",
"280 0 CURVE SMOOTH"
);
}
);
width = 1737;
}
);
unicode = 0132;
},
{
glyphname = J;
lastChange = "2018-12-08 21:14:03 +0000";
layers = (
{
anchors = (
{
name = top;
position = "{729, 1171}";
}
);
layerId = master01;
paths = (
{
closed = 1;
nodes = (
"728 84 OFFCURVE",
"551 -13 OFFCURVE",
"380 -13 CURVE SMOOTH",
"240 -13 OFFCURVE",
"113 56 OFFCURVE",
"113 171 CURVE SMOOTH",
"113 283 LINE SMOOTH",
"113 312 OFFCURVE",
"135 328 OFFCURVE",
"163 328 CURVE SMOOTH",
"187 328 OFFCURVE",
"212 313 OFFCURVE",
"212 283 CURVE SMOOTH",
"212 182 LINE SMOOTH",
"212 114 OFFCURVE",
"296 68 OFFCURVE",
"388 68 CURVE SMOOTH",
"502 68 OFFCURVE",
"630 135 OFFCURVE",
"630 314 CURVE SMOOTH",
"630 1085 LINE",
"344 1085 LINE SMOOTH",
"316 1085 OFFCURVE",
"301 1106 OFFCURVE",
"301 1127 CURVE SMOOTH",
"301 1149 OFFCURVE",
"316 1171 OFFCURVE",
"345 1171 CURVE SMOOTH",
"881 1171 LINE SMOOTH",
"909 1171 OFFCURVE",
"925 1150 OFFCURVE",
"925 1128 CURVE SMOOTH",
"925 1107 OFFCURVE",
"911 1085 OFFCURVE",
"882 1085 CURVE SMOOTH",
"728 1085 LINE",
"728 317 LINE SMOOTH"
);
}
);
width = 1065;
},
{
anchors = (
{
name = top;
position = "{576, 1199}";
}
);
layerId = "48AFDEF4-2FAB-4AB6-AB64-D7DFD8485508";
paths = (
{
closed = 1;
nodes = (
"528 106 OFFCURVE",
"420 -13 OFFCURVE",
"257 -13 CURVE SMOOTH",
"148 -13 OFFCURVE",
"60 49 OFFCURVE",
"60 149 CURVE SMOOTH",
"60 236 LINE SMOOTH",
"60 280 OFFCURVE",
"74 311 OFFCURVE",
"137 311 CURVE SMOOTH",
"178 311 OFFCURVE",
"217 291 OFFCURVE",
"217 250 CURVE SMOOTH",
"217 168 LINE",
"217 127 OFFCURVE",
"239 109 OFFCURVE",
"266 109 CURVE SMOOTH",
"313 109 OFFCURVE",
"375 169 OFFCURVE",
"375 359 CURVE SMOOTH",
"375 1085 LINE",
"230 1085 LINE SMOOTH",
"200 1085 OFFCURVE",
"189 1113 OFFCURVE",
"189 1145 CURVE SMOOTH",
"189 1173 OFFCURVE",
"205 1199 OFFCURVE",
"232 1199 CURVE SMOOTH",
"681 1199 LINE SMOOTH",
"706 1199 OFFCURVE",
"722 1173 OFFCURVE",
"722 1145 CURVE SMOOTH",
"722 1112 OFFCURVE",
"711 1085 OFFCURVE",
"682 1085 CURVE SMOOTH",
"528 1085 LINE",
"528 376 LINE SMOOTH"
);
}
);
width = 820;
},
{
anchors = (
{
name = top;
position = "{846, 1171}";
}
);
layerId = "1027097C-2ACB-4125-B942-0F8B60E4A4BD";
paths = (
{
closed = 1;
nodes = (
"855 84 OFFCURVE",
"644 -13 OFFCURVE",
"451 -13 CURVE SMOOTH",
"288 -13 OFFCURVE",
"138 56 OFFCURVE",
"138 171 CURVE SMOOTH",
"138 283 LINE SMOOTH",
"138 312 OFFCURVE",
"163 328 OFFCURVE",
"187 328 CURVE SMOOTH",
"211 328 OFFCURVE",
"234 313 OFFCURVE",
"234 283 CURVE SMOOTH",
"234 182 LINE SMOOTH",
"234 114 OFFCURVE",
"342 68 OFFCURVE",
"460 68 CURVE SMOOTH",
"602 68 OFFCURVE",
"759 135 OFFCURVE",
"759 314 CURVE SMOOTH",
"759 1085 LINE",
"409 1085 LINE SMOOTH",
"377 1085 OFFCURVE",
"361 1106 OFFCURVE",
"361 1127 CURVE SMOOTH",
"361 1149 OFFCURVE",
"377 1171 OFFCURVE",
"410 1171 CURVE SMOOTH",
"1025 1171 LINE SMOOTH",
"1058 1171 OFFCURVE",
"1075 1150 OFFCURVE",
"1075 1128 CURVE SMOOTH",
"1075 1107 OFFCURVE",
"1059 1085 OFFCURVE",
"1026 1085 CURVE SMOOTH",
"855 1085 LINE",
"855 317 LINE SMOOTH"
);
}
);
width = 1240;
},
{
anchors = (
{
name = top;
position = "{693, 1199}";
}
);
layerId = "87D9408F-A41F-4898-A746-FF2057AB3891";
paths = (
{
closed = 1;
nodes = (
"655 105 OFFCURVE",
"512 -13 OFFCURVE",
"328 -13 CURVE SMOOTH",
"196 -13 OFFCURVE",
"85 59 OFFCURVE",
"85 149 CURVE SMOOTH",
"85 236 LINE SMOOTH",
"85 285 OFFCURVE",
"106 311 OFFCURVE",
"161 311 CURVE SMOOTH",
"202 311 OFFCURVE",
"239 291 OFFCURVE",
"239 250 CURVE SMOOTH",
"239 168 LINE",
"240 137 OFFCURVE",
"285 109 OFFCURVE",
"338 109 CURVE SMOOTH",
"413 109 OFFCURVE",
"504 169 OFFCURVE",
"504 359 CURVE SMOOTH",
"504 1085 LINE",
"295 1085 LINE SMOOTH",
"262 1085 OFFCURVE",
"249 1112 OFFCURVE",
"249 1145 CURVE SMOOTH",
"249 1173 OFFCURVE",
"266 1199 OFFCURVE",
"297 1199 CURVE SMOOTH",
"825 1199 LINE SMOOTH",
"855 1199 OFFCURVE",
"872 1173 OFFCURVE",
"872 1145 CURVE SMOOTH",
"872 1112 OFFCURVE",
"859 1085 OFFCURVE",
"826 1085 CURVE SMOOTH",
"655 1085 LINE",
"655 376 LINE SMOOTH"
);
}
);
width = 995;
}
);
unicode = 004A;
},
{
glyphname = K;
lastChange = "2018-12-09 21:35:05 +0000";
layers = (
{
anchors = (
{
name = bottom;
position = "{628, 0}";
},
{
name = top;
position = "{628, 1208}";
}
);
layerId = master01;
paths = (
{
closed = 1;
nodes = (
"533 0 LINE SMOOTH",
"563 0 OFFCURVE",
"579 21 OFFCURVE",
"579 43 CURVE SMOOTH",
"579 64 OFFCURVE",
"564 86 OFFCURVE",
"534 86 CURVE SMOOTH",
"324 86 LINE",
"324 465 LINE",
"499 621 LINE",
"927 86 LINE",
"783 86 LINE SMOOTH",
"753 86 OFFCURVE",
"739 64 OFFCURVE",
"739 43 CURVE SMOOTH",
"739 21 OFFCURVE",
"755 0 OFFCURVE",
"784 0 CURVE SMOOTH",
"1163 0 LINE SMOOTH",
"1192 0 OFFCURVE",
"1208 21 OFFCURVE",
"1208 43 CURVE SMOOTH",
"1208 64 OFFCURVE",
"1193 86 OFFCURVE",
"1164 86 CURVE SMOOTH",
"1048 86 LINE",
"572 676 LINE",
"964 1084 LINE",
"1083 1084 LINE SMOOTH",
"1112 1084 OFFCURVE",
"1127 1105 OFFCURVE",
"1127 1127 CURVE SMOOTH",
"1127 1149 OFFCURVE",
"1111 1171 OFFCURVE",
"1082 1171 CURVE SMOOTH",
"754 1171 LINE SMOOTH",
"726 1171 OFFCURVE",
"709 1151 OFFCURVE",
"709 1131 CURVE SMOOTH",
"709 1112 OFFCURVE",
"724 1094 OFFCURVE",
"753 1094 CURVE SMOOTH",
"825 1094 LINE SMOOTH",
"838 1094 OFFCURVE",
"843 1091 OFFCURVE",
"843 1088 CURVE SMOOTH",
"843 1086 OFFCURVE",
"839 1081 OFFCURVE",
"836 1078 CURVE",
"321 558 LINE",
"321 1084 LINE",
"484 1084 LINE SMOOTH",
"514 1084 OFFCURVE",
"528 1105 OFFCURVE",
"528 1126 CURVE SMOOTH",
"528 1148 OFFCURVE",
"512 1171 OFFCURVE",
"483 1171 CURVE SMOOTH",
"79 1171 LINE SMOOTH",
"49 1171 OFFCURVE",
"33 1149 OFFCURVE",
"33 1127 CURVE SMOOTH",
"33 1105 OFFCURVE",
"48 1084 OFFCURVE",
"78 1084 CURVE SMOOTH",
"220 1084 LINE",
"220 86 LINE",
"78 86 LINE SMOOTH",
"48 86 OFFCURVE",
"33 64 OFFCURVE",
"33 43 CURVE SMOOTH",
"33 21 OFFCURVE",
"49 0 OFFCURVE",
"79 0 CURVE SMOOTH"
);
}
);
width = 1266;
},
{
anchors = (
{
name = bottom;
position = "{678, 0}";
},
{
name = top;
position = "{678, 1208}";
}
);
layerId = "48AFDEF4-2FAB-4AB6-AB64-D7DFD8485508";
paths = (
{
closed = 1;
nodes = (
"566 0 LINE SMOOTH",
"596 0 OFFCURVE",
"614 28 OFFCURVE",
"614 59 CURVE SMOOTH",
"614 94 OFFCURVE",
"600 124 OFFCURVE",
"567 124 CURVE SMOOTH",
"401 124 LINE",
"401 467 LINE",
"619 642 LINE",
"1035 124 LINE",
"917 124 LINE SMOOTH",
"884 124 OFFCURVE",
"872 94 OFFCURVE",
"872 59 CURVE SMOOTH",
"872 29 OFFCURVE",
"888 0 OFFCURVE",
"918 0 CURVE SMOOTH",
"1310 0 LINE SMOOTH",
"1339 0 OFFCURVE",
"1358 28 OFFCURVE",
"1358 59 CURVE SMOOTH",
"1358 94 OFFCURVE",
"1344 124 OFFCURVE",
"1312 124 CURVE SMOOTH",
"1232 124 LINE",
"723 716 LINE",
"1105 1084 LINE",
"1197 1084 LINE SMOOTH",
"1231 1084 OFFCURVE",
"1243 1115 OFFCURVE",
"1243 1149 CURVE SMOOTH",
"1243 1179 OFFCURVE",
"1226 1208 OFFCURVE",
"1196 1208 CURVE SMOOTH",
"857 1208 LINE SMOOTH",
"827 1208 OFFCURVE",
"810 1179 OFFCURVE",
"810 1149 CURVE SMOOTH",
"810 1109 OFFCURVE",
"827 1094 OFFCURVE",
"855 1094 CURVE SMOOTH",
"888 1094 LINE SMOOTH",
"901 1094 OFFCURVE",
"910 1089 OFFCURVE",
"910 1078 CURVE SMOOTH",
"910 1070 OFFCURVE",
"903 1061 OFFCURVE",
"899 1057 CURVE",
"402 593 LINE",
"402 1084 LINE",
"515 1084 LINE SMOOTH",
"549 1084 OFFCURVE",
"561 1115 OFFCURVE",
"561 1149 CURVE SMOOTH",
"561 1180 OFFCURVE",
"543 1208 OFFCURVE",
"514 1208 CURVE SMOOTH",
"96 1208 LINE SMOOTH",
"67 1208 OFFCURVE",
"49 1180 OFFCURVE",
"49 1149 CURVE SMOOTH",
"49 1114 OFFCURVE",
"62 1084 OFFCURVE",
"95 1084 CURVE SMOOTH",
"232 1084 LINE",
"232 124 LINE",
"95 124 LINE SMOOTH",
"62 124 OFFCURVE",
"49 94 OFFCURVE",
"49 59 CURVE SMOOTH",
"49 28 OFFCURVE",
"67 0 OFFCURVE",
"96 0 CURVE SMOOTH"
);
}
);
width = 1405;
},
{
anchors = (
{
name = bottom;
position = "{736, 0}";
},
{
name = top;
position = "{736, 1208}";
}
);
layerId = "1027097C-2ACB-4125-B942-0F8B60E4A4BD";
paths = (
{
closed = 1;
nodes = (
"585 0 LINE SMOOTH",
"618 0 OFFCURVE",
"635 21 OFFCURVE",
"635 43 CURVE SMOOTH",
"635 64 OFFCURVE",
"619 86 OFFCURVE",
"586 86 CURVE SMOOTH",
"342 86 LINE",
"342 465 LINE",
"527 621 LINE",
"1005 86 LINE",
"839 86 LINE SMOOTH",
"806 86 OFFCURVE",
"790 64 OFFCURVE",
"790 43 CURVE SMOOTH",
"790 21 OFFCURVE",
"807 0 OFFCURVE",
"840 0 CURVE SMOOTH",
"1258 0 LINE SMOOTH",
"1291 0 OFFCURVE",
"1307 21 OFFCURVE",
"1307 43 CURVE SMOOTH",
"1307 64 OFFCURVE",
"1291 86 OFFCURVE",
"1259 86 CURVE SMOOTH",
"1122 86 LINE",
"601 676 LINE",
"1039 1084 LINE",
"1177 1084 LINE SMOOTH",
"1209 1084 OFFCURVE",
"1225 1105 OFFCURVE",
"1225 1127 CURVE SMOOTH",
"1225 1149 OFFCURVE",
"1209 1171 OFFCURVE",
"1176 1171 CURVE SMOOTH",
"814 1171 LINE SMOOTH",
"782 1171 OFFCURVE",
"764 1151 OFFCURVE",
"764 1131 CURVE SMOOTH",
"764 1112 OFFCURVE",
"780 1094 OFFCURVE",
"813 1094 CURVE SMOOTH",
"902 1094 LINE SMOOTH",
"917 1094 OFFCURVE",
"921 1091 OFFCURVE",
"921 1088 CURVE SMOOTH",
"921 1085 OFFCURVE",
"917 1081 OFFCURVE",
"914 1078 CURVE",
"338 558 LINE",
"338 1084 LINE",
"531 1084 LINE SMOOTH",
"564 1084 OFFCURVE",
"579 1105 OFFCURVE",
"579 1126 CURVE SMOOTH",
"579 1148 OFFCURVE",
"562 1171 OFFCURVE",
"529 1171 CURVE SMOOTH",
"84 1171 LINE SMOOTH",
"50 1171 OFFCURVE",
"33 1149 OFFCURVE",
"33 1127 CURVE SMOOTH",
"33 1105 OFFCURVE",
"50 1084 OFFCURVE",
"83 1084 CURVE SMOOTH",
"242 1084 LINE",
"242 86 LINE",
"83 86 LINE SMOOTH",
"50 86 OFFCURVE",
"33 64 OFFCURVE",
"33 43 CURVE SMOOTH",
"33 21 OFFCURVE",
"50 0 OFFCURVE",
"84 0 CURVE SMOOTH"
);
}
);
width = 1374;
},
{
anchors = (
{
name = bottom;
position = "{736, 0}";
},
{
name = top;
position = "{736, 1208}";
}
);
layerId = "87D9408F-A41F-4898-A746-FF2057AB3891";
paths = (
{
closed = 1;
nodes = (
"618 0 LINE SMOOTH",
"651 0 OFFCURVE",
"670 28 OFFCURVE",
"670 59 CURVE SMOOTH",
"670 94 OFFCURVE",
"655 124 OFFCURVE",
"619 124 CURVE SMOOTH",
"419 124 LINE",
"419 467 LINE",
"647 642 LINE",
"1113 124 LINE",
"973 124 LINE SMOOTH",
"937 124 OFFCURVE",
"923 94 OFFCURVE",
"923 59 CURVE SMOOTH",
"923 28 OFFCURVE",
"941 0 OFFCURVE",
"974 0 CURVE SMOOTH",
"1405 0 LINE SMOOTH",
"1438 0 OFFCURVE",
"1457 28 OFFCURVE",
"1457 59 CURVE SMOOTH",
"1457 94 OFFCURVE",
"1442 124 OFFCURVE",
"1407 124 CURVE SMOOTH",
"1306 124 LINE",
"752 716 LINE",
"1180 1084 LINE",
"1291 1084 LINE SMOOTH",
"1327 1084 OFFCURVE",
"1341 1114 OFFCURVE",
"1341 1149 CURVE SMOOTH",
"1341 1180 OFFCURVE",
"1323 1208 OFFCURVE",
"1290 1208 CURVE SMOOTH",
"917 1208 LINE SMOOTH",
"884 1208 OFFCURVE",
"865 1180 OFFCURVE",
"865 1149 CURVE SMOOTH",
"865 1112 OFFCURVE",
"881 1094 OFFCURVE",
"915 1094 CURVE SMOOTH",
"965 1094 LINE SMOOTH",
"980 1094 OFFCURVE",
"988 1089 OFFCURVE",
"988 1078 CURVE SMOOTH",
"988 1069 OFFCURVE",
"981 1061 OFFCURVE",
"977 1057 CURVE",
"419 593 LINE",
"419 1084 LINE",
"562 1084 LINE SMOOTH",
"598 1084 OFFCURVE",
"612 1114 OFFCURVE",
"612 1149 CURVE SMOOTH",
"612 1180 OFFCURVE",
"593 1208 OFFCURVE",
"560 1208 CURVE SMOOTH",
"101 1208 LINE SMOOTH",
"68 1208 OFFCURVE",
"49 1180 OFFCURVE",
"49 1149 CURVE SMOOTH",
"49 1114 OFFCURVE",
"64 1084 OFFCURVE",
"100 1084 CURVE SMOOTH",
"254 1084 LINE",
"254 124 LINE",
"100 124 LINE SMOOTH",
"64 124 OFFCURVE",
"49 94 OFFCURVE",
"49 59 CURVE SMOOTH",
"49 28 OFFCURVE",
"68 0 OFFCURVE",
"101 0 CURVE SMOOTH"
);
}
);
width = 1513;
}
);
unicode = 004B;
},
{
glyphname = L;
lastChange = "2018-12-08 22:56:19 +0000";
layers = (
{
anchors = (
{
name = bottom;
position = "{663, 0}";
},
{
name = top;
position = "{663, 1209}";
}
);
layerId = master01;
paths = (
{
closed = 1;
nodes = (
"954 0 LINE SMOOTH",
"988 0 OFFCURVE",
"1009 29 OFFCURVE",
"1013 66 CURVE",
"1039 393 LINE SMOOTH",
"1041 424 OFFCURVE",
"1018 442 OFFCURVE",
"991 442 CURVE SMOOTH",
"969 442 OFFCURVE",
"948 428 OFFCURVE",
"945 399 CURVE SMOOTH",
"917 123 LINE SMOOTH",
"914 92 OFFCURVE",
"888 88 OFFCURVE",
"857 86 CURVE",
"437 86 LINE",
"437 1085 LINE",
"575 1085 LINE SMOOTH",
"605 1085 OFFCURVE",
"620 1106 OFFCURVE",
"620 1127 CURVE SMOOTH",
"620 1149 OFFCURVE",
"604 1171 OFFCURVE",
"574 1171 CURVE SMOOTH",
"145 1171 LINE SMOOTH",
"116 1171 OFFCURVE",
"100 1149 OFFCURVE",
"100 1127 CURVE SMOOTH",
"100 1106 OFFCURVE",
"115 1085 OFFCURVE",
"144 1085 CURVE SMOOTH",
"336 1085 LINE",
"336 86 LINE",
"106 86 LINE SMOOTH",
"76 86 OFFCURVE",
"61 64 OFFCURVE",
"61 43 CURVE SMOOTH",
"61 21 OFFCURVE",
"77 0 OFFCURVE",
"107 0 CURVE SMOOTH"
);
}
);
width = 1138;
},
{
anchors = (
{
name = bottom;
position = "{663, 0}";
},
{
name = top;
position = "{663, 1209}";
}
);
layerId = "48AFDEF4-2FAB-4AB6-AB64-D7DFD8485508";
paths = (
{
closed = 1;
nodes = (
"1128 0 LINE SMOOTH",
"1145 0 OFFCURVE",
"1156 21 OFFCURVE",
"1158 48 CURVE SMOOTH",
"1186 400 LINE",
"1186 437 OFFCURVE",
"1157 456 OFFCURVE",
"1124 456 CURVE SMOOTH",
"1090 456 OFFCURVE",
"1072 443 OFFCURVE",
"1070 412 CURVE SMOOTH",
"1055 214 LINE",
"1048 139 OFFCURVE",
"974 124 OFFCURVE",
"885 124 CURVE SMOOTH",
"425 124 LINE",
"425 1085 LINE",
"568 1085 LINE SMOOTH",
"601 1085 OFFCURVE",
"614 1114 OFFCURVE",
"614 1150 CURVE SMOOTH",
"614 1181 OFFCURVE",
"596 1209 OFFCURVE",
"567 1209 CURVE SMOOTH",
"123 1209 LINE SMOOTH",
"94 1209 OFFCURVE",
"76 1181 OFFCURVE",
"76 1150 CURVE SMOOTH",
"76 1115 OFFCURVE",
"89 1085 OFFCURVE",
"122 1085 CURVE SMOOTH",
"255 1085 LINE",
"255 124 LINE",
"82 124 LINE SMOOTH",
"49 124 OFFCURVE",
"36 95 OFFCURVE",
"36 59 CURVE SMOOTH",
"36 28 OFFCURVE",
"54 0 OFFCURVE",
"83 0 CURVE SMOOTH"
);
}
);
width = 1243;
},
{
anchors = (
{
name = bottom;
position = "{737, 0}";
},
{
name = top;
position = "{737, 1209}";
}
);
layerId = "1027097C-2ACB-4125-B942-0F8B60E4A4BD";
paths = (
{
closed = 1;
nodes = (
"1020 0 LINE SMOOTH",
"1063 0 OFFCURVE",
"1087 29 OFFCURVE",
"1092 66 CURVE",
"1121 393 LINE SMOOTH",
"1124 425 OFFCURVE",
"1096 442 OFFCURVE",
"1071 442 CURVE SMOOTH",
"1048 442 OFFCURVE",
"1025 428 OFFCURVE",
"1021 399 CURVE SMOOTH",
"987 123 LINE SMOOTH",
"983 92 OFFCURVE",
"968 89 OFFCURVE",
"946 86 CURVE",
"489 86 LINE",
"489 1085 LINE",
"641 1085 LINE SMOOTH",
"674 1085 OFFCURVE",
"691 1106 OFFCURVE",
"691 1127 CURVE SMOOTH",
"691 1149 OFFCURVE",
"674 1171 OFFCURVE",
"640 1171 CURVE SMOOTH",
"167 1171 LINE SMOOTH",
"134 1171 OFFCURVE",
"117 1149 OFFCURVE",
"117 1127 CURVE SMOOTH",
"117 1106 OFFCURVE",
"133 1085 OFFCURVE",
"166 1085 CURVE SMOOTH",
"393 1085 LINE",
"393 86 LINE",
"124 86 LINE SMOOTH",
"91 86 OFFCURVE",
"74 64 OFFCURVE",
"74 43 CURVE SMOOTH",
"74 21 OFFCURVE",
"91 0 OFFCURVE",
"125 0 CURVE SMOOTH"
);
}
);
width = 1240;
},
{
anchors = (
{
name = bottom;
position = "{737, 0}";
},
{
name = top;
position = "{737, 1209}";
}
);
layerId = "87D9408F-A41F-4898-A746-FF2057AB3891";
paths = (
{
closed = 1;
nodes = (
"1194 0 LINE SMOOTH",
"1219 0 OFFCURVE",
"1235 21 OFFCURVE",
"1237 48 CURVE SMOOTH",
"1268 400 LINE",
"1268 437 OFFCURVE",
"1238 456 OFFCURVE",
"1204 456 CURVE SMOOTH",
"1171 456 OFFCURVE",
"1149 443 OFFCURVE",
"1146 412 CURVE SMOOTH",
"1125 214 LINE",
"1119 139 OFFCURVE",
"1054 124 OFFCURVE",
"974 124 CURVE SMOOTH",
"477 124 LINE",
"477 1085 LINE",
"634 1085 LINE SMOOTH",
"670 1085 OFFCURVE",
"685 1114 OFFCURVE",
"685 1150 CURVE SMOOTH",
"685 1181 OFFCURVE",
"666 1209 OFFCURVE",
"633 1209 CURVE SMOOTH",
"145 1209 LINE SMOOTH",
"112 1209 OFFCURVE",
"93 1181 OFFCURVE",
"93 1150 CURVE SMOOTH",
"93 1114 OFFCURVE",
"108 1085 OFFCURVE",
"144 1085 CURVE SMOOTH",
"312 1085 LINE",
"312 124 LINE",
"100 124 LINE SMOOTH",
"64 124 OFFCURVE",
"49 95 OFFCURVE",
"49 59 CURVE SMOOTH",
"49 28 OFFCURVE",
"68 0 OFFCURVE",
"101 0 CURVE SMOOTH"
);
}
);
width = 1345;
}
);
unicode = 004C;
},
{
glyphname = Lslash;
lastChange = "2018-12-09 21:48:16 +0000";
layers = (
{
components = (
{
name = L;
}
);
layerId = master01;
paths = (
{
closed = 1;
nodes = (
"780 685 LINE",
"806 692 OFFCURVE",
"818 703 OFFCURVE",
"818 722 CURVE SMOOTH",
"818 750 OFFCURVE",
"802 768 OFFCURVE",
"777 768 CURVE",
"223 634 LINE",
"196 627 OFFCURVE",
"183 613 OFFCURVE",
"183 594 CURVE SMOOTH",
"183 566 OFFCURVE",
"198 548 OFFCURVE",
"223 548 CURVE"
);
}
);
width = 1138;
},
{
components = (
{
name = L;
}
);
layerId = "48AFDEF4-2FAB-4AB6-AB64-D7DFD8485508";
paths = (
{
closed = 1;
nodes = (
"780 685 LINE",
"806 692 OFFCURVE",
"818 703 OFFCURVE",
"818 722 CURVE SMOOTH",
"818 750 OFFCURVE",
"802 768 OFFCURVE",
"777 768 CURVE",
"223 634 LINE",
"196 627 OFFCURVE",
"183 613 OFFCURVE",
"183 594 CURVE SMOOTH",
"183 566 OFFCURVE",
"198 548 OFFCURVE",
"223 548 CURVE"
);
}
);
width = 1243;
},
{
components = (
{
name = L;
}
);
layerId = "1027097C-2ACB-4125-B942-0F8B60E4A4BD";
paths = (
{
closed = 1;
nodes = (
"780 685 LINE",
"806 692 OFFCURVE",
"818 703 OFFCURVE",
"818 722 CURVE SMOOTH",
"818 750 OFFCURVE",
"802 768 OFFCURVE",
"777 768 CURVE",
"223 634 LINE",
"196 627 OFFCURVE",
"183 613 OFFCURVE",
"183 594 CURVE SMOOTH",
"183 566 OFFCURVE",
"198 548 OFFCURVE",
"223 548 CURVE"
);
}
);
width = 1240;
},
{
components = (
{
name = L;
}
);
layerId = "87D9408F-A41F-4898-A746-FF2057AB3891";
paths = (
{
closed = 1;
nodes = (
"780 685 LINE",
"806 692 OFFCURVE",
"818 703 OFFCURVE",
"818 722 CURVE SMOOTH",
"818 750 OFFCURVE",
"802 768 OFFCURVE",
"777 768 CURVE",
"223 634 LINE",
"196 627 OFFCURVE",
"183 613 OFFCURVE",
"183 594 CURVE SMOOTH",
"183 566 OFFCURVE",
"198 548 OFFCURVE",
"223 548 CURVE"
);
}
);
width = 1345;
}
);
unicode = 0141;
},
{
glyphname = M;
lastChange = "2018-12-08 22:57:21 +0000";
layers = (
{
layerId = master01;
paths = (
{
closed = 1;
nodes = (
"395 0 LINE SMOOTH",
"425 0 OFFCURVE",
"441 23 OFFCURVE",
"441 44 CURVE SMOOTH",
"441 65 OFFCURVE",
"426 86 OFFCURVE",
"395 86 CURVE SMOOTH",
"282 86 LINE",
"282 978 LINE",
"550 385 LINE SMOOTH",
"563 356 OFFCURVE",
"583 342 OFFCURVE",
"605 342 CURVE SMOOTH",
"628 342 OFFCURVE",
"651 356 OFFCURVE",
"666 389 CURVE SMOOTH",
"931 982 LINE",
"931 86 LINE",
"813 86 LINE SMOOTH",
"783 86 OFFCURVE",
"768 65 OFFCURVE",
"768 44 CURVE SMOOTH",
"768 22 OFFCURVE",
"784 0 OFFCURVE",
"814 0 CURVE SMOOTH",
"1146 0 LINE SMOOTH",
"1175 0 OFFCURVE",
"1191 22 OFFCURVE",
"1191 44 CURVE SMOOTH",
"1191 65 OFFCURVE",
"1177 86 OFFCURVE",
"1148 86 CURVE SMOOTH",
"1029 86 LINE",
"1029 1085 LINE",
"1134 1085 LINE SMOOTH",
"1164 1085 OFFCURVE",
"1179 1106 OFFCURVE",
"1179 1127 CURVE SMOOTH",
"1179 1149 OFFCURVE",
"1163 1171 OFFCURVE",
"1133 1171 CURVE SMOOTH",
"953 1171 LINE SMOOTH",
"936 1171 OFFCURVE",
"921 1161 OFFCURVE",
"912 1141 CURVE SMOOTH",
"608 473 LINE",
"303 1136 LINE SMOOTH",
"295 1154 OFFCURVE",
"282 1171 OFFCURVE",
"261 1171 CURVE SMOOTH",
"74 1171 LINE SMOOTH",
"45 1171 OFFCURVE",
"29 1149 OFFCURVE",
"29 1127 CURVE SMOOTH",
"29 1106 OFFCURVE",
"43 1085 OFFCURVE",
"73 1085 CURVE SMOOTH",
"185 1085 LINE",
"185 86 LINE",
"61 86 LINE SMOOTH",
"31 86 OFFCURVE",
"16 64 OFFCURVE",
"16 43 CURVE SMOOTH",
"16 21 OFFCURVE",
"32 0 OFFCURVE",
"62 0 CURVE SMOOTH"
);
}
);
width = 1207;
},
{
layerId = "48AFDEF4-2FAB-4AB6-AB64-D7DFD8485508";
paths = (
{
closed = 1;
nodes = (
"487 0 LINE SMOOTH",
"516 0 OFFCURVE",
"534 29 OFFCURVE",
"534 59 CURVE SMOOTH",
"534 94 OFFCURVE",
"520 124 OFFCURVE",
"487 124 CURVE SMOOTH",
"350 124 LINE",
"350 882 LINE",
"751 65 LINE SMOOTH",
"760 47 OFFCURVE",
"780 26 OFFCURVE",
"809 26 CURVE SMOOTH",
"842 26 OFFCURVE",
"863 47 OFFCURVE",
"870 72 CURVE",
"1305 872 LINE",
"1305 124 LINE",
"1192 124 LINE SMOOTH",
"1157 124 OFFCURVE",
"1144 93 OFFCURVE",
"1144 59 CURVE SMOOTH",
"1144 28 OFFCURVE",
"1162 0 OFFCURVE",
"1192 0 CURVE SMOOTH",
"1590 0 LINE SMOOTH",
"1620 0 OFFCURVE",
"1637 28 OFFCURVE",
"1637 59 CURVE SMOOTH",
"1637 94 OFFCURVE",
"1625 124 OFFCURVE",
"1592 124 CURVE SMOOTH",
"1457 124 LINE",
"1457 1085 LINE",
"1578 1085 LINE SMOOTH",
"1611 1085 OFFCURVE",
"1624 1115 OFFCURVE",
"1624 1150 CURVE SMOOTH",
"1624 1182 OFFCURVE",
"1606 1210 OFFCURVE",
"1577 1210 CURVE SMOOTH",
"1363 1210 LINE SMOOTH",
"1342 1210 OFFCURVE",
"1329 1195 OFFCURVE",
"1321 1180 CURVE SMOOTH",
"808 232 LINE",
"336 1174 LINE SMOOTH",
"327 1192 OFFCURVE",
"316 1210 OFFCURVE",
"294 1210 CURVE SMOOTH",
"67 1210 LINE SMOOTH",
"38 1210 OFFCURVE",
"20 1182 OFFCURVE",
"20 1150 CURVE SMOOTH",
"20 1115 OFFCURVE",
"33 1085 OFFCURVE",
"66 1085 CURVE SMOOTH",
"202 1085 LINE",
"202 124 LINE",
"53 124 LINE SMOOTH",
"19 124 OFFCURVE",
"6 93 OFFCURVE",
"6 59 CURVE SMOOTH",
"6 28 OFFCURVE",
"25 0 OFFCURVE",
"55 0 CURVE SMOOTH"
);
}
);
width = 1643;
},
{
layerId = "1027097C-2ACB-4125-B942-0F8B60E4A4BD";
paths = (
{
closed = 1;
nodes = (
"417 0 LINE SMOOTH",
"451 0 OFFCURVE",
"468 22 OFFCURVE",
"468 44 CURVE SMOOTH",
"468 65 OFFCURVE",
"452 86 OFFCURVE",
"418 86 CURVE SMOOTH",
"298 86 LINE",
"298 978 LINE",
"565 385 LINE SMOOTH",
"580 352 OFFCURVE",
"604 342 OFFCURVE",
"625 342 CURVE SMOOTH",
"651 342 OFFCURVE",
"677 358 OFFCURVE",
"691 390 CURVE SMOOTH",
"948 982 LINE",
"948 86 LINE",
"815 86 LINE SMOOTH",
"782 86 OFFCURVE",
"766 65 OFFCURVE",
"766 44 CURVE SMOOTH",
"766 22 OFFCURVE",
"783 0 OFFCURVE",
"817 0 CURVE SMOOTH",
"1170 0 LINE SMOOTH",
"1203 0 OFFCURVE",
"1220 22 OFFCURVE",
"1220 44 CURVE SMOOTH",
"1220 65 OFFCURVE",
"1204 86 OFFCURVE",
"1172 86 CURVE SMOOTH",
"1044 86 LINE",
"1044 1085 LINE",
"1157 1085 LINE SMOOTH",
"1190 1085 OFFCURVE",
"1207 1106 OFFCURVE",
"1207 1127 CURVE SMOOTH",
"1207 1149 OFFCURVE",
"1190 1171 OFFCURVE",
"1156 1171 CURVE SMOOTH",
"964 1171 LINE SMOOTH",
"942 1171 OFFCURVE",
"926 1158 OFFCURVE",
"919 1141 CURVE SMOOTH",
"629 473 LINE",
"328 1136 LINE SMOOTH",
"320 1154 OFFCURVE",
"305 1171 OFFCURVE",
"282 1171 CURVE SMOOTH",
"84 1171 LINE SMOOTH",
"51 1171 OFFCURVE",
"34 1149 OFFCURVE",
"34 1127 CURVE SMOOTH",
"34 1106 OFFCURVE",
"50 1085 OFFCURVE",
"83 1085 CURVE SMOOTH",
"202 1085 LINE",
"202 86 LINE",
"69 86 LINE SMOOTH",
"36 86 OFFCURVE",
"20 64 OFFCURVE",
"20 43 CURVE SMOOTH",
"20 21 OFFCURVE",
"37 0 OFFCURVE",
"70 0 CURVE SMOOTH"
);
}
);
width = 1240;
},
{
layerId = "87D9408F-A41F-4898-A746-FF2057AB3891";
paths = (
{
closed = 1;
nodes = (
"509 0 LINE SMOOTH",
"542 0 OFFCURVE",
"561 28 OFFCURVE",
"561 59 CURVE SMOOTH",
"561 94 OFFCURVE",
"546 124 OFFCURVE",
"510 124 CURVE SMOOTH",
"366 124 LINE",
"366 882 LINE",
"766 65 LINE SMOOTH",
"776 45 OFFCURVE",
"800 26 OFFCURVE",
"829 26 CURVE SMOOTH",
"862 26 OFFCURVE",
"887 47 OFFCURVE",
"896 72 CURVE",
"1322 872 LINE",
"1322 124 LINE",
"1194 124 LINE SMOOTH",
"1157 124 OFFCURVE",
"1142 94 OFFCURVE",
"1142 59 CURVE SMOOTH",
"1142 28 OFFCURVE",
"1161 0 OFFCURVE",
"1195 0 CURVE SMOOTH",
"1614 0 LINE SMOOTH",
"1648 0 OFFCURVE",
"1666 28 OFFCURVE",
"1666 59 CURVE SMOOTH",
"1666 94 OFFCURVE",
"1652 124 OFFCURVE",
"1616 124 CURVE SMOOTH",
"1472 124 LINE",
"1472 1085 LINE",
"1601 1085 LINE SMOOTH",
"1637 1085 OFFCURVE",
"1652 1115 OFFCURVE",
"1652 1150 CURVE SMOOTH",
"1652 1182 OFFCURVE",
"1633 1210 OFFCURVE",
"1600 1210 CURVE SMOOTH",
"1374 1210 LINE SMOOTH",
"1350 1210 OFFCURVE",
"1336 1195 OFFCURVE",
"1328 1180 CURVE SMOOTH",
"829 232 LINE",
"362 1174 LINE SMOOTH",
"351 1196 OFFCURVE",
"337 1210 OFFCURVE",
"315 1210 CURVE SMOOTH",
"77 1210 LINE SMOOTH",
"44 1210 OFFCURVE",
"25 1182 OFFCURVE",
"25 1150 CURVE SMOOTH",
"25 1115 OFFCURVE",
"40 1085 OFFCURVE",
"76 1085 CURVE SMOOTH",
"219 1085 LINE",
"219 124 LINE",
"61 124 LINE SMOOTH",
"25 124 OFFCURVE",
"10 94 OFFCURVE",
"10 59 CURVE SMOOTH",
"10 28 OFFCURVE",
"30 0 OFFCURVE",
"63 0 CURVE SMOOTH"
);
}
);
width = 1676;
}
);
unicode = 004D;
},
{
glyphname = N;
lastChange = "2018-12-08 20:32:34 +0000";
layers = (
{
anchors = (
{
name = bottom;
position = "{596, -11}";
},
{
name = top;
position = "{596, 1210}";
}
);
layerId = master01;
paths = (
{
closed = 1;
nodes = (
"961 -16 OFFCURVE",
"983 5 OFFCURVE",
"983 47 CURVE SMOOTH",
"983 1085 LINE",
"1079 1085 LINE SMOOTH",
"1108 1085 OFFCURVE",
"1122 1106 OFFCURVE",
"1122 1127 CURVE SMOOTH",
"1122 1149 OFFCURVE",
"1106 1171 OFFCURVE",
"1077 1171 CURVE SMOOTH",
"758 1171 LINE SMOOTH",
"728 1171 OFFCURVE",
"712 1149 OFFCURVE",
"712 1127 CURVE SMOOTH",
"712 1106 OFFCURVE",
"727 1085 OFFCURVE",
"757 1085 CURVE SMOOTH",
"886 1085 LINE",
"886 194 LINE",
"421 1147 LINE SMOOTH",
"413 1163 OFFCURVE",
"403 1171 OFFCURVE",
"384 1171 CURVE SMOOTH",
"118 1171 LINE SMOOTH",
"88 1171 OFFCURVE",
"72 1149 OFFCURVE",
"72 1127 CURVE SMOOTH",
"72 1106 OFFCURVE",
"87 1085 OFFCURVE",
"117 1085 CURVE SMOOTH",
"254 1085 LINE",
"254 86 LINE",
"137 86 LINE SMOOTH",
"107 86 OFFCURVE",
"93 64 OFFCURVE",
"93 43 CURVE SMOOTH",
"93 21 OFFCURVE",
"109 0 OFFCURVE",
"138 0 CURVE SMOOTH",
"472 0 LINE SMOOTH",
"501 0 OFFCURVE",
"517 21 OFFCURVE",
"517 43 CURVE SMOOTH",
"517 64 OFFCURVE",
"502 86 OFFCURVE",
"473 86 CURVE SMOOTH",
"351 86 LINE",
"351 1084 LINE",
"883 22 LINE SMOOTH",
"894 0 OFFCURVE",
"912 -16 OFFCURVE",
"936 -16 CURVE SMOOTH"
);
}
);
width = 1169;
},
{
anchors = (
{
name = bottom;
position = "{729, -11}";
},
{
name = top;
position = "{729, 1210}";
}
);
layerId = "48AFDEF4-2FAB-4AB6-AB64-D7DFD8485508";
paths = (
{
closed = 1;
nodes = (
"1186 -26 OFFCURVE",
"1214 2 OFFCURVE",
"1214 38 CURVE SMOOTH",
"1214 1086 LINE",
"1355 1086 LINE SMOOTH",
"1388 1086 OFFCURVE",
"1401 1116 OFFCURVE",
"1401 1151 CURVE SMOOTH",
"1401 1181 OFFCURVE",
"1383 1210 OFFCURVE",
"1353 1210 CURVE SMOOTH",
"960 1210 LINE SMOOTH",
"931 1210 OFFCURVE",
"913 1181 OFFCURVE",
"913 1151 CURVE SMOOTH",
"913 1116 OFFCURVE",
"927 1086 OFFCURVE",
"960 1086 CURVE SMOOTH",
"1067 1086 LINE",
"1067 301 LINE",
"467 1186 LINE",
"459 1204 OFFCURVE",
"449 1210 OFFCURVE",
"430 1210 CURVE SMOOTH",
"123 1210 LINE SMOOTH",
"93 1210 OFFCURVE",
"74 1181 OFFCURVE",
"74 1151 CURVE SMOOTH",
"74 1116 OFFCURVE",
"88 1086 OFFCURVE",
"121 1086 CURVE SMOOTH",
"243 1086 LINE",
"243 125 LINE",
"112 125 LINE SMOOTH",
"78 125 OFFCURVE",
"65 94 OFFCURVE",
"65 60 CURVE SMOOTH",
"65 29 OFFCURVE",
"84 0 OFFCURVE",
"114 0 CURVE SMOOTH",
"500 0 LINE SMOOTH",
"529 0 OFFCURVE",
"547 29 OFFCURVE",
"547 60 CURVE SMOOTH",
"547 95 OFFCURVE",
"534 125 OFFCURVE",
"501 125 CURVE SMOOTH",
"394 125 LINE",
"394 1028 LINE",
"1092 12 LINE SMOOTH",
"1103 -4 OFFCURVE",
"1116 -26 OFFCURVE",
"1152 -26 CURVE SMOOTH"
);
}
);
width = 1427;
},
{
anchors = (
{
name = bottom;
position = "{632, -11}";
},
{
name = top;
position = "{632, 1210}";
}
);
layerId = "1027097C-2ACB-4125-B942-0F8B60E4A4BD";
paths = (
{
closed = 1;
nodes = (
"1016 -16 OFFCURVE",
"1039 4 OFFCURVE",
"1039 47 CURVE SMOOTH",
"1039 1085 LINE",
"1135 1085 LINE SMOOTH",
"1167 1085 OFFCURVE",
"1183 1106 OFFCURVE",
"1183 1127 CURVE SMOOTH",
"1183 1149 OFFCURVE",
"1166 1171 OFFCURVE",
"1133 1171 CURVE SMOOTH",
"796 1171 LINE SMOOTH",
"762 1171 OFFCURVE",
"745 1149 OFFCURVE",
"745 1127 CURVE SMOOTH",
"745 1106 OFFCURVE",
"761 1085 OFFCURVE",
"794 1085 CURVE SMOOTH",
"943 1085 LINE",
"943 194 LINE",
"457 1147 LINE SMOOTH",
"449 1163 OFFCURVE",
"438 1171 OFFCURVE",
"417 1171 CURVE SMOOTH",
"130 1171 LINE SMOOTH",
"97 1171 OFFCURVE",
"80 1149 OFFCURVE",
"80 1127 CURVE SMOOTH",
"80 1106 OFFCURVE",
"96 1085 OFFCURVE",
"129 1085 CURVE SMOOTH",
"285 1085 LINE",
"285 86 LINE",
"159 86 LINE SMOOTH",
"126 86 OFFCURVE",
"110 64 OFFCURVE",
"110 43 CURVE SMOOTH",
"110 21 OFFCURVE",
"127 0 OFFCURVE",
"160 0 CURVE SMOOTH",
"518 0 LINE SMOOTH",
"551 0 OFFCURVE",
"568 21 OFFCURVE",
"568 43 CURVE SMOOTH",
"568 64 OFFCURVE",
"552 86 OFFCURVE",
"519 86 CURVE SMOOTH",
"381 86 LINE",
"381 1084 LINE",
"934 22 LINE SMOOTH",
"947 -3 OFFCURVE",
"971 -16 OFFCURVE",
"990 -16 CURVE SMOOTH"
);
}
);
width = 1240;
},
{
anchors = (
{
name = bottom;
position = "{765, -11}";
},
{
name = top;
position = "{765, 1210}";
}
);
layerId = "87D9408F-A41F-4898-A746-FF2057AB3891";
paths = (
{
closed = 1;
nodes = (
"1241 -26 OFFCURVE",
"1270 2 OFFCURVE",
"1270 38 CURVE SMOOTH",
"1270 1086 LINE",
"1411 1086 LINE SMOOTH",
"1447 1086 OFFCURVE",
"1461 1116 OFFCURVE",
"1461 1151 CURVE SMOOTH",
"1461 1182 OFFCURVE",
"1442 1210 OFFCURVE",
"1409 1210 CURVE SMOOTH",
"998 1210 LINE SMOOTH",
"965 1210 OFFCURVE",
"946 1182 OFFCURVE",
"946 1151 CURVE SMOOTH",
"946 1116 OFFCURVE",
"961 1086 OFFCURVE",
"997 1086 CURVE SMOOTH",
"1124 1086 LINE",
"1124 301 LINE",
"503 1186 LINE",
"495 1203 OFFCURVE",
"484 1210 OFFCURVE",
"462 1210 CURVE SMOOTH",
"135 1210 LINE SMOOTH",
"102 1210 OFFCURVE",
"82 1182 OFFCURVE",
"82 1151 CURVE SMOOTH",
"82 1116 OFFCURVE",
"97 1086 OFFCURVE",
"133 1086 CURVE SMOOTH",
"274 1086 LINE",
"274 125 LINE",
"133 125 LINE SMOOTH",
"97 125 OFFCURVE",
"82 95 OFFCURVE",
"82 60 CURVE SMOOTH",
"82 29 OFFCURVE",
"102 0 OFFCURVE",
"135 0 CURVE SMOOTH",
"546 0 LINE SMOOTH",
"579 0 OFFCURVE",
"598 29 OFFCURVE",
"598 60 CURVE SMOOTH",
"598 95 OFFCURVE",
"583 125 OFFCURVE",
"547 125 CURVE SMOOTH",
"423 125 LINE",
"423 1028 LINE",
"1142 12 LINE SMOOTH",
"1153 -3 OFFCURVE",
"1169 -26 OFFCURVE",
"1206 -26 CURVE SMOOTH"
);
}
);
width = 1497;
},
{
anchors = (
{
name = bottom;
position = "{694, -11}";
},
{
name = top;
position = "{694, 1210}";
}
);
associatedMasterId = "48AFDEF4-2FAB-4AB6-AB64-D7DFD8485508";
layerId = "65385094-3E96-4C91-A08C-17D79004A1A4";
name = "Dec 8 18, 22:32";
paths = (
{
closed = 1;
nodes = (
"1131 -26 OFFCURVE",
"1158 2 OFFCURVE",
"1158 38 CURVE SMOOTH",
"1158 1086 LINE",
"1299 1086 LINE SMOOTH",
"1330 1086 OFFCURVE",
"1340 1116 OFFCURVE",
"1340 1151 CURVE SMOOTH",
"1340 1181 OFFCURVE",
"1324 1210 OFFCURVE",
"1297 1210 CURVE SMOOTH",
"923 1210 LINE SMOOTH",
"897 1210 OFFCURVE",
"881 1181 OFFCURVE",
"881 1151 CURVE SMOOTH",
"881 1116 OFFCURVE",
"892 1086 OFFCURVE",
"923 1086 CURVE SMOOTH",
"1011 1086 LINE",
"1011 301 LINE",
"430 1186 LINE",
"424 1203 OFFCURVE",
"414 1210 OFFCURVE",
"397 1210 CURVE SMOOTH",
"111 1210 LINE SMOOTH",
"85 1210 OFFCURVE",
"67 1182 OFFCURVE",
"67 1151 CURVE SMOOTH",
"67 1116 OFFCURVE",
"78 1086 OFFCURVE",
"109 1086 CURVE SMOOTH",
"212 1086 LINE",
"212 125 LINE",
"90 125 LINE SMOOTH",
"59 125 OFFCURVE",
"48 94 OFFCURVE",
"48 60 CURVE SMOOTH",
"48 29 OFFCURVE",
"66 0 OFFCURVE",
"92 0 CURVE SMOOTH",
"454 0 LINE SMOOTH",
"480 0 OFFCURVE",
"497 29 OFFCURVE",
"497 60 CURVE SMOOTH",
"497 95 OFFCURVE",
"485 125 OFFCURVE",
"455 125 CURVE SMOOTH",
"364 125 LINE",
"364 1028 LINE",
"1041 11 LINE SMOOTH",
"1054 -9 OFFCURVE",
"1068 -26 OFFCURVE",
"1098 -26 CURVE SMOOTH"
);
}
);
width = 1356;
},
{
anchors = (
{
name = bottom;
position = "{561, -11}";
},
{
name = top;
position = "{561, 1210}";
}
);
associatedMasterId = master01;
layerId = "C1512A5C-3B6E-4FEA-9878-DA0ADB01E38D";
name = "Dec 8 18, 22:32";
paths = (
{
closed = 1;
nodes = (
"907 -16 OFFCURVE",
"928 5 OFFCURVE",
"928 47 CURVE SMOOTH",
"928 1085 LINE",
"1023 1085 LINE SMOOTH",
"1050 1085 OFFCURVE",
"1063 1106 OFFCURVE",
"1063 1127 CURVE SMOOTH",
"1063 1149 OFFCURVE",
"1048 1171 OFFCURVE",
"1022 1171 CURVE SMOOTH",
"721 1171 LINE SMOOTH",
"695 1171 OFFCURVE",
"680 1149 OFFCURVE",
"680 1127 CURVE SMOOTH",
"680 1106 OFFCURVE",
"693 1085 OFFCURVE",
"720 1085 CURVE SMOOTH",
"830 1085 LINE",
"830 194 LINE",
"385 1147 LINE SMOOTH",
"376 1166 OFFCURVE",
"368 1171 OFFCURVE",
"353 1171 CURVE SMOOTH",
"106 1171 LINE SMOOTH",
"80 1171 OFFCURVE",
"65 1149 OFFCURVE",
"65 1127 CURVE SMOOTH",
"65 1106 OFFCURVE",
"78 1085 OFFCURVE",
"105 1085 CURVE SMOOTH",
"224 1085 LINE",
"224 86 LINE",
"117 86 LINE SMOOTH",
"89 86 OFFCURVE",
"76 64 OFFCURVE",
"76 43 CURVE SMOOTH",
"76 21 OFFCURVE",
"92 0 OFFCURVE",
"118 0 CURVE SMOOTH",
"426 0 LINE SMOOTH",
"452 0 OFFCURVE",
"467 21 OFFCURVE",
"467 43 CURVE SMOOTH",
"467 64 OFFCURVE",
"454 86 OFFCURVE",
"427 86 CURVE SMOOTH",
"322 86 LINE",
"322 1084 LINE",
"834 22 LINE SMOOTH",
"846 -3 OFFCURVE",
"863 -16 OFFCURVE",
"882 -16 CURVE SMOOTH"
);
}
);
width = 1100;
}
);
unicode = 004E;
},
{
glyphname = Eng;
lastChange = "2018-12-09 21:56:01 +0000";
layers = (
{
layerId = master01;
paths = (
{
closed = 1;
nodes = (
"822 -401 OFFCURVE",
"981 -252 OFFCURVE",
"981 -19 CURVE SMOOTH",
"981 1085 LINE",
"1076 1085 LINE SMOOTH",
"1105 1085 OFFCURVE",
"1120 1106 OFFCURVE",
"1120 1127 CURVE SMOOTH",
"1120 1149 OFFCURVE",
"1104 1171 OFFCURVE",
"1074 1171 CURVE SMOOTH",
"756 1171 LINE SMOOTH",
"727 1171 OFFCURVE",
"710 1149 OFFCURVE",
"710 1127 CURVE SMOOTH",
"710 1106 OFFCURVE",
"725 1085 OFFCURVE",
"755 1085 CURVE SMOOTH",
"884 1085 LINE",
"884 224 LINE",
"413 1147 LINE SMOOTH",
"405 1163 OFFCURVE",
"396 1171 OFFCURVE",
"377 1171 CURVE SMOOTH",
"117 1171 LINE SMOOTH",
"88 1171 OFFCURVE",
"72 1149 OFFCURVE",
"72 1127 CURVE SMOOTH",
"72 1106 OFFCURVE",
"86 1085 OFFCURVE",
"116 1085 CURVE SMOOTH",
"253 1085 LINE",
"253 86 LINE",
"137 86 LINE SMOOTH",
"107 86 OFFCURVE",
"93 64 OFFCURVE",
"93 43 CURVE SMOOTH",
"93 21 OFFCURVE",
"109 0 OFFCURVE",
"138 0 CURVE SMOOTH",
"471 0 LINE SMOOTH",
"500 0 OFFCURVE",
"516 21 OFFCURVE",
"516 43 CURVE SMOOTH",
"516 64 OFFCURVE",
"501 86 OFFCURVE",
"471 86 CURVE SMOOTH",
"351 86 LINE",
"351 1084 LINE",
"884 52 LINE",
"884 -32 LINE SMOOTH",
"884 -210 OFFCURVE",
"761 -320 OFFCURVE",
"643 -320 CURVE SMOOTH",
"618 -320 OFFCURVE",
"604 -339 OFFCURVE",
"604 -359 CURVE SMOOTH",
"604 -380 OFFCURVE",
"621 -401 OFFCURVE",
"647 -401 CURVE SMOOTH"
);
}
);
width = 1175;
},
{
layerId = "48AFDEF4-2FAB-4AB6-AB64-D7DFD8485508";
paths = (
{
closed = 1;
nodes = (
"1137 -367 OFFCURVE",
"1196 -245 OFFCURVE",
"1196 -27 CURVE SMOOTH",
"1196 1086 LINE",
"1335 1086 LINE SMOOTH",
"1368 1086 OFFCURVE",
"1380 1117 OFFCURVE",
"1380 1150 CURVE SMOOTH",
"1380 1181 OFFCURVE",
"1363 1209 OFFCURVE",
"1334 1209 CURVE SMOOTH",
"946 1209 LINE SMOOTH",
"917 1209 OFFCURVE",
"899 1181 OFFCURVE",
"899 1150 CURVE SMOOTH",
"899 1116 OFFCURVE",
"912 1086 OFFCURVE",
"944 1086 CURVE SMOOTH",
"1050 1086 LINE",
"1050 308 LINE",
"460 1185 LINE",
"453 1202 OFFCURVE",
"443 1209 OFFCURVE",
"423 1209 CURVE SMOOTH",
"115 1209 LINE SMOOTH",
"86 1209 OFFCURVE",
"69 1181 OFFCURVE",
"69 1150 CURVE SMOOTH",
"69 1117 OFFCURVE",
"81 1086 OFFCURVE",
"115 1086 CURVE SMOOTH",
"236 1086 LINE",
"236 133 LINE",
"105 133 LINE SMOOTH",
"72 133 OFFCURVE",
"60 104 OFFCURVE",
"60 69 CURVE SMOOTH",
"60 38 OFFCURVE",
"77 10 OFFCURVE",
"106 10 CURVE SMOOTH",
"489 10 LINE SMOOTH",
"518 10 OFFCURVE",
"536 38 OFFCURVE",
"536 69 CURVE SMOOTH",
"536 104 OFFCURVE",
"523 133 OFFCURVE",
"490 133 CURVE SMOOTH",
"385 133 LINE",
"385 1029 LINE",
"1050 46 LINE",
"1050 -43 LINE SMOOTH",
"1050 -197 OFFCURVE",
"1030 -260 OFFCURVE",
"1002 -275 CURVE SMOOTH",
"972 -291 OFFCURVE",
"956 -307 OFFCURVE",
"956 -334 CURVE SMOOTH",
"956 -372 OFFCURVE",
"989 -403 OFFCURVE",
"1031 -393 CURVE SMOOTH"
);
}
);
width = 1454;
},
{
layerId = "1027097C-2ACB-4125-B942-0F8B60E4A4BD";
paths = (
{
closed = 1;
nodes = (
"841 -401 OFFCURVE",
"1039 -252 OFFCURVE",
"1039 -19 CURVE SMOOTH",
"1039 1085 LINE",
"1135 1085 LINE SMOOTH",
"1167 1085 OFFCURVE",
"1183 1106 OFFCURVE",
"1183 1127 CURVE SMOOTH",
"1183 1149 OFFCURVE",
"1166 1171 OFFCURVE",
"1133 1171 CURVE SMOOTH",
"796 1171 LINE SMOOTH",
"762 1171 OFFCURVE",
"745 1149 OFFCURVE",
"745 1127 CURVE SMOOTH",
"745 1106 OFFCURVE",
"761 1085 OFFCURVE",
"794 1085 CURVE SMOOTH",
"943 1085 LINE",
"943 224 LINE",
"447 1147 LINE SMOOTH",
"439 1162 OFFCURVE",
"430 1171 OFFCURVE",
"407 1171 CURVE SMOOTH",
"130 1171 LINE SMOOTH",
"97 1171 OFFCURVE",
"80 1149 OFFCURVE",
"80 1127 CURVE SMOOTH",
"80 1106 OFFCURVE",
"96 1085 OFFCURVE",
"129 1085 CURVE SMOOTH",
"285 1085 LINE",
"285 86 LINE",
"159 86 LINE SMOOTH",
"126 86 OFFCURVE",
"110 64 OFFCURVE",
"110 43 CURVE SMOOTH",
"110 21 OFFCURVE",
"127 0 OFFCURVE",
"160 0 CURVE SMOOTH",
"518 0 LINE SMOOTH",
"551 0 OFFCURVE",
"568 21 OFFCURVE",
"568 43 CURVE SMOOTH",
"568 64 OFFCURVE",
"552 86 OFFCURVE",
"519 86 CURVE SMOOTH",
"381 86 LINE",
"381 1084 LINE",
"943 52 LINE",
"943 -32 LINE SMOOTH",
"943 -211 OFFCURVE",
"782 -320 OFFCURVE",
"630 -320 CURVE SMOOTH",
"602 -320 OFFCURVE",
"589 -339 OFFCURVE",
"589 -359 CURVE SMOOTH",
"589 -380 OFFCURVE",
"603 -401 OFFCURVE",
"629 -401 CURVE SMOOTH"
);
}
);
width = 1240;
},
{
layerId = "87D9408F-A41F-4898-A746-FF2057AB3891";
paths = (
{
closed = 1;
nodes = (
"1153 -367 OFFCURVE",
"1255 -252 OFFCURVE",
"1255 -27 CURVE SMOOTH",
"1255 1086 LINE",
"1395 1086 LINE SMOOTH",
"1430 1086 OFFCURVE",
"1444 1116 OFFCURVE",
"1444 1150 CURVE SMOOTH",
"1444 1181 OFFCURVE",
"1426 1209 OFFCURVE",
"1393 1209 CURVE SMOOTH",
"986 1209 LINE SMOOTH",
"953 1209 OFFCURVE",
"934 1181 OFFCURVE",
"934 1150 CURVE SMOOTH",
"934 1116 OFFCURVE",
"949 1086 OFFCURVE",
"984 1086 CURVE SMOOTH",
"1110 1086 LINE",
"1110 308 LINE",
"495 1185 LINE",
"487 1202 OFFCURVE",
"476 1209 OFFCURVE",
"454 1209 CURVE SMOOTH",
"129 1209 LINE SMOOTH",
"96 1209 OFFCURVE",
"78 1181 OFFCURVE",
"78 1150 CURVE SMOOTH",
"78 1116 OFFCURVE",
"92 1086 OFFCURVE",
"128 1086 CURVE SMOOTH",
"268 1086 LINE",
"268 133 LINE",
"128 133 LINE SMOOTH",
"92 133 OFFCURVE",
"78 104 OFFCURVE",
"78 69 CURVE SMOOTH",
"78 38 OFFCURVE",
"96 10 OFFCURVE",
"129 10 CURVE SMOOTH",
"537 10 LINE SMOOTH",
"570 10 OFFCURVE",
"589 38 OFFCURVE",
"589 69 CURVE SMOOTH",
"589 104 OFFCURVE",
"574 133 OFFCURVE",
"538 133 CURVE SMOOTH",
"416 133 LINE",
"416 1029 LINE",
"1110 46 LINE",
"1110 -43 LINE SMOOTH",
"1110 -189 OFFCURVE",
"1054 -256 OFFCURVE",
"990 -277 CURVE SMOOTH",
"962 -286 OFFCURVE",
"942 -304 OFFCURVE",
"942 -334 CURVE SMOOTH",
"942 -372 OFFCURVE",
"973 -402 OFFCURVE",
"1013 -394 CURVE SMOOTH"
);
}
);
width = 1520;
}
);
unicode = 014A;
},
{
glyphname = O;
lastChange = "2018-12-08 20:31:54 +0000";
layers = (
{
anchors = (
{
name = top;
position = "{576, 1187}";
}
);
layerId = master01;
paths = (
{
closed = 1;
nodes = (
"889 -17 OFFCURVE",
"1056 281 OFFCURVE",
"1056 582 CURVE SMOOTH",
"1056 883 OFFCURVE",
"889 1187 OFFCURVE",
"576 1187 CURVE SMOOTH",
"262 1187 OFFCURVE",
"95 883 OFFCURVE",
"95 582 CURVE SMOOTH",
"95 281 OFFCURVE",
"262 -17 OFFCURVE",
"576 -17 CURVE SMOOTH"
);
},
{
closed = 1;
nodes = (
"322 69 OFFCURVE",
"199 326 OFFCURVE",
"199 582 CURVE SMOOTH",
"199 841 OFFCURVE",
"324 1101 OFFCURVE",
"576 1101 CURVE SMOOTH",
"827 1101 OFFCURVE",
"953 841 OFFCURVE",
"953 582 CURVE SMOOTH",
"953 327 OFFCURVE",
"830 69 OFFCURVE",
"576 69 CURVE SMOOTH"
);
}
);
width = 1151;
},
{
anchors = (
{
name = top;
position = "{664, 1219}";
}
);
layerId = "48AFDEF4-2FAB-4AB6-AB64-D7DFD8485508";
paths = (
{
closed = 1;
nodes = (
"1008 -25 OFFCURVE",
"1236 222 OFFCURVE",
"1236 600 CURVE SMOOTH",
"1236 981 OFFCURVE",
"1008 1236 OFFCURVE",
"661 1236 CURVE SMOOTH",
"313 1236 OFFCURVE",
"85 981 OFFCURVE",
"85 600 CURVE SMOOTH",
"85 222 OFFCURVE",
"313 -25 OFFCURVE",
"661 -25 CURVE SMOOTH"
);
},
{
closed = 1;
nodes = (
"397 110 OFFCURVE",
"271 351 OFFCURVE",
"271 595 CURVE SMOOTH",
"271 842 OFFCURVE",
"395 1101 OFFCURVE",
"661 1101 CURVE",
"926 1101 OFFCURVE",
"1051 842 OFFCURVE",
"1051 595 CURVE SMOOTH",
"1051 352 OFFCURVE",
"925 110 OFFCURVE",
"661 110 CURVE SMOOTH"
);
}
);
width = 1321;
},
{
anchors = (
{
name = top;
position = "{620, 1187}";
}
);
layerId = "1027097C-2ACB-4125-B942-0F8B60E4A4BD";
paths = (
{
closed = 1;
nodes = (
"961 -17 OFFCURVE",
"1132 281 OFFCURVE",
"1132 582 CURVE SMOOTH",
"1132 883 OFFCURVE",
"961 1187 OFFCURVE",
"620 1187 CURVE SMOOTH",
"279 1187 OFFCURVE",
"108 883 OFFCURVE",
"108 582 CURVE SMOOTH",
"108 281 OFFCURVE",
"279 -17 OFFCURVE",
"620 -17 CURVE SMOOTH"
);
},
{
closed = 1;
nodes = (
"340 69 OFFCURVE",
"204 326 OFFCURVE",
"204 582 CURVE SMOOTH",
"204 842 OFFCURVE",
"344 1101 OFFCURVE",
"620 1101 CURVE SMOOTH",
"896 1101 OFFCURVE",
"1036 842 OFFCURVE",
"1036 582 CURVE SMOOTH",
"1036 326 OFFCURVE",
"900 69 OFFCURVE",
"620 69 CURVE SMOOTH"
);
}
);
width = 1240;
},
{
anchors = (
{
name = top;
position = "{708, 1219}";
}
);
layerId = "87D9408F-A41F-4898-A746-FF2057AB3891";
paths = (
{
closed = 1;
nodes = (
"1080 -25 OFFCURVE",
"1312 222 OFFCURVE",
"1312 600 CURVE SMOOTH",
"1312 981 OFFCURVE",
"1080 1236 OFFCURVE",
"705 1236 CURVE SMOOTH",
"330 1236 OFFCURVE",
"98 981 OFFCURVE",
"98 600 CURVE SMOOTH",
"98 222 OFFCURVE",
"330 -25 OFFCURVE",
"705 -25 CURVE SMOOTH"
);
},
{
closed = 1;
nodes = (
"415 110 OFFCURVE",
"276 351 OFFCURVE",
"276 595 CURVE SMOOTH",
"276 842 OFFCURVE",
"415 1101 OFFCURVE",
"705 1101 CURVE",
"995 1101 OFFCURVE",
"1134 842 OFFCURVE",
"1134 595 CURVE SMOOTH",
"1134 351 OFFCURVE",
"995 110 OFFCURVE",
"705 110 CURVE SMOOTH"
);
}
);
width = 1410;
},
{
anchors = (
{
name = top;
position = "{1024, 1714}";
}
);
associatedMasterId = "87D9408F-A41F-4898-A746-FF2057AB3891";
layerId = "47617939-BCAC-4010-8126-50F571DC583C";
name = "Dec 4 18, 20:23";
paths = (
{
closed = 1;
nodes = (
"171 320 OFFCURVE",
"171 850 CURVE SMOOTH",
"171 1382 OFFCURVE",
"496 1739 OFFCURVE",
"1020 1739 CURVE SMOOTH",
"1550 1739 OFFCURVE",
"1867 1382 OFFCURVE",
"1867 850 CURVE SMOOTH",
"1867 320 OFFCURVE",
"1548 -25 OFFCURVE",
"1020 -25 CURVE SMOOTH",
"496 -25 OFFCURVE"
);
},
{
closed = 1;
nodes = (
"421 501 OFFCURVE",
"615 164 OFFCURVE",
"1004 164 CURVE SMOOTH",
"1012 164 OFFCURVE",
"1020 164 OFFCURVE",
"1028 164 CURVE",
"1226 164 OFFCURVE",
"1220 1550 OFFCURVE",
"1011 1550 CURVE",
"617 1536 OFFCURVE",
"421 1188 OFFCURVE",
"421 843 CURVE SMOOTH"
);
}
);
width = 2048;
},
{
anchors = (
{
name = top;
position = "{621, 1219}";
}
);
associatedMasterId = "48AFDEF4-2FAB-4AB6-AB64-D7DFD8485508";
layerId = "043FB044-5C6B-44BF-9E45-FBB5D5054169";
name = "Dec 8 18, 22:29";
paths = (
{
closed = 1;
nodes = (
"937 -25 OFFCURVE",
"1161 222 OFFCURVE",
"1161 600 CURVE SMOOTH",
"1161 981 OFFCURVE",
"937 1236 OFFCURVE",
"616 1236 CURVE SMOOTH",
"296 1236 OFFCURVE",
"72 981 OFFCURVE",
"72 600 CURVE SMOOTH",
"72 222 OFFCURVE",
"296 -25 OFFCURVE",
"616 -25 CURVE SMOOTH"
);
},
{
closed = 1;
nodes = (
"378 110 OFFCURVE",
"265 352 OFFCURVE",
"265 595 CURVE SMOOTH",
"265 842 OFFCURVE",
"376 1101 OFFCURVE",
"616 1101 CURVE",
"857 1101 OFFCURVE",
"967 842 OFFCURVE",
"967 595 CURVE SMOOTH",
"967 351 OFFCURVE",
"854 110 OFFCURVE",
"616 110 CURVE SMOOTH"
);
}
);
width = 1233;
},
{
anchors = (
{
name = top;
position = "{533, 1187}";
}
);
associatedMasterId = master01;
layerId = "2C013DD8-1AF3-4953-B761-9470E6075812";
name = "Dec 8 18, 22:29";
paths = (
{
closed = 1;
nodes = (
"818 -17 OFFCURVE",
"981 281 OFFCURVE",
"981 582 CURVE SMOOTH",
"981 883 OFFCURVE",
"818 1187 OFFCURVE",
"531 1187 CURVE SMOOTH",
"244 1187 OFFCURVE",
"82 882 OFFCURVE",
"82 582 CURVE SMOOTH",
"82 282 OFFCURVE",
"244 -17 OFFCURVE",
"531 -17 CURVE SMOOTH"
);
},
{
closed = 1;
nodes = (
"303 69 OFFCURVE",
"193 327 OFFCURVE",
"193 582 CURVE SMOOTH",
"193 842 OFFCURVE",
"305 1101 OFFCURVE",
"531 1101 CURVE SMOOTH",
"758 1101 OFFCURVE",
"869 841 OFFCURVE",
"869 582 CURVE SMOOTH",
"869 326 OFFCURVE",
"759 69 OFFCURVE",
"531 69 CURVE SMOOTH"
);
}
);
width = 1063;
}
);
unicode = 004F;
},
{
glyphname = Oslash;
lastChange = "2018-12-09 21:59:27 +0000";
layers = (
{
components = (
{
name = O;
}
);
layerId = master01;
paths = (
{
closed = 1;
nodes = (
"265 -192 OFFCURVE",
"276 -187 OFFCURVE",
"283 -172 CURVE SMOOTH",
"1100 1428 OFFCURVE",
"1025 1278 OFFCURVE",
"1025 1289 CURVE SMOOTH",
"1025 1308 OFFCURVE",
"1005 1321 OFFCURVE",
"987 1321 CURVE SMOOTH",
"976 1321 OFFCURVE",
"966 1316 OFFCURVE",
"960 1305 CURVE SMOOTH",
"139 -299 OFFCURVE",
"214 -149 OFFCURVE",
"214 -158 CURVE SMOOTH",
"214 -176 OFFCURVE",
"234 -192 OFFCURVE",
"253 -192 CURVE SMOOTH"
);
}
);
width = 1151;
},
{
components = (
{
name = O;
}
);
layerId = "48AFDEF4-2FAB-4AB6-AB64-D7DFD8485508";
paths = (
{
closed = 1;
nodes = (
"345 -292 OFFCURVE",
"357 -278 OFFCURVE",
"368 -257 CURVE",
"1131 1344 OFFCURVE",
"1166 1399 OFFCURVE",
"1166 1425 CURVE SMOOTH",
"1166 1461 OFFCURVE",
"1125 1487 OFFCURVE",
"1092 1487 CURVE SMOOTH",
"1071 1487 OFFCURVE",
"1056 1477 OFFCURVE",
"1048 1459 CURVE",
"780 896 OFFCURVE",
"512 333 OFFCURVE",
"244 -230 CURVE",
"244 -265 OFFCURVE",
"286 -292 OFFCURVE",
"320 -292 CURVE SMOOTH"
);
}
);
width = 1321;
},
{
components = (
{
name = O;
}
);
layerId = "1027097C-2ACB-4125-B942-0F8B60E4A4BD";
paths = (
{
closed = 1;
nodes = (
"265 -192 OFFCURVE",
"276 -187 OFFCURVE",
"283 -172 CURVE SMOOTH",
"1100 1428 OFFCURVE",
"1025 1278 OFFCURVE",
"1025 1289 CURVE SMOOTH",
"1025 1308 OFFCURVE",
"1005 1321 OFFCURVE",
"987 1321 CURVE SMOOTH",
"976 1321 OFFCURVE",
"966 1316 OFFCURVE",
"960 1305 CURVE SMOOTH",
"139 -299 OFFCURVE",
"214 -149 OFFCURVE",
"214 -158 CURVE SMOOTH",
"214 -176 OFFCURVE",
"234 -192 OFFCURVE",
"253 -192 CURVE SMOOTH"
);
}
);
width = 1240;
},
{
components = (
{
name = O;
}
);
layerId = "87D9408F-A41F-4898-A746-FF2057AB3891";
paths = (
{
closed = 1;
nodes = (
"345 -292 OFFCURVE",
"357 -278 OFFCURVE",
"368 -257 CURVE",
"1131 1344 OFFCURVE",
"1166 1399 OFFCURVE",
"1166 1425 CURVE SMOOTH",
"1166 1461 OFFCURVE",
"1125 1487 OFFCURVE",
"1092 1487 CURVE SMOOTH",
"1071 1487 OFFCURVE",
"1056 1477 OFFCURVE",
"1048 1459 CURVE",
"780 896 OFFCURVE",
"512 333 OFFCURVE",
"244 -230 CURVE",
"244 -265 OFFCURVE",
"286 -292 OFFCURVE",
"320 -292 CURVE SMOOTH"
);
}
);
width = 1410;
}
);
unicode = 00D8;
},
{
glyphname = OE;
lastChange = "2018-12-10 20:28:18 +0000";
layers = (
{
layerId = master01;
paths = (
{
closed = 1;
nodes = (
"1032 0 LINE SMOOTH",
"1058 0 OFFCURVE",
"1078 19 OFFCURVE",
"1077 53 CURVE SMOOTH",
"1066 323 LINE SMOOTH",
"1064 361 OFFCURVE",
"1049 375 OFFCURVE",
"1030 375 CURVE SMOOTH",
"1007 375 OFFCURVE",
"985 360 OFFCURVE",
"984 336 CURVE SMOOTH",
"973 85 LINE",
"631 85 LINE",
"631 577 LINE",
"749 577 LINE",
"769 429 LINE SMOOTH",
"773 401 OFFCURVE",
"788 386 OFFCURVE",
"808 386 CURVE SMOOTH",
"827 386 OFFCURVE",
"843 402 OFFCURVE",
"842 437 CURVE SMOOTH",
"838 621 LINE",
"842 779 LINE SMOOTH",
"843 816 OFFCURVE",
"828 832 OFFCURVE",
"808 832 CURVE SMOOTH",
"791 832 OFFCURVE",
"774 820 OFFCURVE",
"769 787 CURVE SMOOTH",
"749 654 LINE",
"631 654 LINE",
"631 1084 LINE",
"971 1084 LINE",
"979 841 LINE SMOOTH",
"980 816 OFFCURVE",
"1002 803 OFFCURVE",
"1024 803 CURVE SMOOTH",
"1044 803 OFFCURVE",
"1060 817 OFFCURVE",
"1060 847 CURVE SMOOTH",
"1061 1117 LINE SMOOTH",
"1061 1151 OFFCURVE",
"1042 1171 OFFCURVE",
"1015 1171 CURVE SMOOTH",
"505 1172 LINE SMOOTH",
"268 1172 OFFCURVE",
"83 961 OFFCURVE",
"83 582 CURVE SMOOTH",
"83 200 OFFCURVE",
"271 0 OFFCURVE",
"504 0 CURVE SMOOTH"
);
},
{
closed = 1;
nodes = (
"324 82 OFFCURVE",
"191 260 OFFCURVE",
"191 582 CURVE SMOOTH",
"191 913 OFFCURVE",
"323 1084 OFFCURVE",
"501 1084 CURVE SMOOTH",
"522 1084 LINE",
"522 82 LINE",
"505 82 LINE SMOOTH"
);
}
);
width = 1169;
},
{
layerId = "48AFDEF4-2FAB-4AB6-AB64-D7DFD8485508";
paths = (
{
closed = 1;
nodes = (
"1433 -7 LINE SMOOTH",
"1461 -7 OFFCURVE",
"1467 14 OFFCURVE",
"1481 48 CURVE",
"1519 350 LINE",
"1519 383 OFFCURVE",
"1503 402 OFFCURVE",
"1472 402 CURVE SMOOTH",
"1434 402 OFFCURVE",
"1415 378 OFFCURVE",
"1398 349 CURVE",
"1321 117 LINE",
"846 117 LINE",
"846 572 LINE",
"993 572 LINE",
"1036 441 LINE SMOOTH",
"1045 413 OFFCURVE",
"1062 393 OFFCURVE",
"1091 393 CURVE SMOOTH",
"1124 393 OFFCURVE",
"1137 416 OFFCURVE",
"1137 450 CURVE",
"1122 626 LINE",
"1137 796 LINE",
"1137 829 OFFCURVE",
"1124 852 OFFCURVE",
"1091 852 CURVE SMOOTH",
"1058 852 OFFCURVE",
"1044 829 OFFCURVE",
"1036 804 CURVE SMOOTH",
"993 673 LINE",
"846 673 LINE",
"846 1075 LINE",
"1325 1075 LINE",
"1394 895 LINE SMOOTH",
"1406 864 OFFCURVE",
"1433 842 OFFCURVE",
"1470 842 CURVE SMOOTH",
"1501 842 OFFCURVE",
"1519 863 OFFCURVE",
"1519 894 CURVE",
"1447 1144 LINE",
"1431 1177 OFFCURVE",
"1428 1199 OFFCURVE",
"1399 1199 CURVE SMOOTH",
"630 1200 LINE SMOOTH",
"265 1200 OFFCURVE",
"56 955 OFFCURVE",
"56 591 CURVE SMOOTH",
"56 226 OFFCURVE",
"269 -8 OFFCURVE",
"632 -8 CURVE SMOOTH"
);
},
{
closed = 1;
nodes = (
"358 121 OFFCURVE",
"239 313 OFFCURVE",
"239 591 CURVE SMOOTH",
"239 869 OFFCURVE",
"351 1071 OFFCURVE",
"621 1071 CURVE SMOOTH",
"663 1071 LINE",
"663 121 LINE",
"640 121 LINE SMOOTH"
);
}
);
width = 1591;
},
{
layerId = "1027097C-2ACB-4125-B942-0F8B60E4A4BD";
paths = (
{
closed = 1;
nodes = (
"1058 0 LINE SMOOTH",
"1091 0 OFFCURVE",
"1114 19 OFFCURVE",
"1114 53 CURVE SMOOTH",
"1114 323 LINE SMOOTH",
"1114 359 OFFCURVE",
"1093 375 OFFCURVE",
"1072 375 CURVE SMOOTH",
"1053 375 OFFCURVE",
"1030 362 OFFCURVE",
"1028 336 CURVE SMOOTH",
"1012 85 LINE",
"677 85 LINE",
"677 577 LINE",
"833 577 LINE",
"846 429 LINE SMOOTH",
"848 404 OFFCURVE",
"865 386 OFFCURVE",
"886 386 CURVE SMOOTH",
"905 386 OFFCURVE",
"924 402 OFFCURVE",
"924 437 CURVE SMOOTH",
"924 621 LINE",
"924 779 LINE SMOOTH",
"924 816 OFFCURVE",
"905 832 OFFCURVE",
"886 832 CURVE SMOOTH",
"868 832 OFFCURVE",
"849 817 OFFCURVE",
"846 787 CURVE SMOOTH",
"833 654 LINE",
"677 654 LINE",
"677 1084 LINE",
"1006 1084 LINE",
"1020 841 LINE SMOOTH",
"1021 816 OFFCURVE",
"1043 803 OFFCURVE",
"1062 803 CURVE SMOOTH",
"1082 803 OFFCURVE",
"1102 817 OFFCURVE",
"1102 847 CURVE SMOOTH",
"1102 1117 LINE SMOOTH",
"1102 1150 OFFCURVE",
"1079 1171 OFFCURVE",
"1046 1171 CURVE SMOOTH",
"566 1172 LINE SMOOTH",
"339 1172 OFFCURVE",
"118 962 OFFCURVE",
"118 582 CURVE SMOOTH",
"118 200 OFFCURVE",
"340 0 OFFCURVE",
"563 0 CURVE SMOOTH"
);
},
{
closed = 1;
nodes = (
"387 82 OFFCURVE",
"214 260 OFFCURVE",
"214 582 CURVE SMOOTH",
"214 913 OFFCURVE",
"389 1084 OFFCURVE",
"564 1084 CURVE SMOOTH",
"579 1084 LINE",
"579 82 LINE",
"561 82 LINE SMOOTH"
);
}
);
width = 1240;
},
{
layerId = "87D9408F-A41F-4898-A746-FF2057AB3891";
paths = (
{
closed = 1;
nodes = (
"1599 -7 LINE SMOOTH",
"1628 -7 OFFCURVE",
"1645 7 OFFCURVE",
"1657 48 CURVE",
"1705 350 LINE",
"1705 383 OFFCURVE",
"1685 402 OFFCURVE",
"1654 402 CURVE SMOOTH",
"1617 402 OFFCURVE",
"1595 378 OFFCURVE",
"1582 349 CURVE",
"1500 117 LINE",
"892 117 LINE",
"892 572 LINE",
"1127 572 LINE",
"1163 441 LINE SMOOTH",
"1170 415 OFFCURVE",
"1190 393 OFFCURVE",
"1219 393 CURVE SMOOTH",
"1251 393 OFFCURVE",
"1268 416 OFFCURVE",
"1268 450 CURVE",
"1258 626 LINE",
"1268 796 LINE",
"1268 829 OFFCURVE",
"1251 852 OFFCURVE",
"1219 852 CURVE SMOOTH",
"1190 852 OFFCURVE",
"1170 830 OFFCURVE",
"1163 804 CURVE SMOOTH",
"1127 673 LINE",
"892 673 LINE",
"892 1075 LINE",
"1500 1075 LINE",
"1576 895 LINE SMOOTH",
"1588 866 OFFCURVE",
"1614 842 OFFCURVE",
"1648 842 CURVE SMOOTH",
"1679 842 OFFCURVE",
"1700 863 OFFCURVE",
"1700 894 CURVE",
"1628 1144 LINE",
"1617 1177 OFFCURVE",
"1604 1199 OFFCURVE",
"1570 1199 CURVE SMOOTH",
"691 1200 LINE SMOOTH",
"337 1200 OFFCURVE",
"91 956 OFFCURVE",
"91 591 CURVE SMOOTH",
"91 228 OFFCURVE",
"337 -8 OFFCURVE",
"691 -8 CURVE SMOOTH"
);
},
{
closed = 1;
nodes = (
"421 121 OFFCURVE",
"262 313 OFFCURVE",
"262 591 CURVE SMOOTH",
"262 869 OFFCURVE",
"417 1071 OFFCURVE",
"684 1071 CURVE SMOOTH",
"720 1071 LINE",
"720 121 LINE",
"696 121 LINE SMOOTH"
);
}
);
width = 1783;
}
);
unicode = 0152;
},
{
glyphname = P;
lastChange = "2018-12-08 23:22:57 +0000";
layers = (
{
layerId = master01;
paths = (
{
closed = 1;
nodes = (
"671 0 LINE SMOOTH",
"700 0 OFFCURVE",
"716 21 OFFCURVE",
"716 43 CURVE SMOOTH",
"716 64 OFFCURVE",
"702 86 OFFCURVE",
"672 86 CURVE SMOOTH",
"399 86 LINE",
"399 527 LINE",
"511 527 LINE SMOOTH",
"722 527 OFFCURVE",
"989 527 OFFCURVE",
"989 847 CURVE SMOOTH",
"989 1165 OFFCURVE",
"715 1171 OFFCURVE",
"488 1171 CURVE SMOOTH",
"154 1171 LINE SMOOTH",
"125 1171 OFFCURVE",
"109 1149 OFFCURVE",
"109 1127 CURVE SMOOTH",
"109 1106 OFFCURVE",
"123 1085 OFFCURVE",
"153 1085 CURVE SMOOTH",
"299 1085 LINE",
"299 86 LINE",
"140 86 LINE SMOOTH",
"110 86 OFFCURVE",
"95 64 OFFCURVE",
"95 43 CURVE SMOOTH",
"95 21 OFFCURVE",
"111 0 OFFCURVE",
"141 0 CURVE SMOOTH"
);
},
{
closed = 1;
nodes = (
"399 1085 LINE",
"506 1085 LINE SMOOTH",
"678 1085 OFFCURVE",
"888 1085 OFFCURVE",
"888 843 CURVE SMOOTH",
"888 608 OFFCURVE",
"703 607 OFFCURVE",
"544 607 CURVE SMOOTH",
"399 607 LINE"
);
}
);
width = 1124;
},
{
layerId = "48AFDEF4-2FAB-4AB6-AB64-D7DFD8485508";
paths = (
{
closed = 1;
nodes = (
"566 0 LINE SMOOTH",
"595 0 OFFCURVE",
"613 28 OFFCURVE",
"613 59 CURVE SMOOTH",
"613 95 OFFCURVE",
"600 124 OFFCURVE",
"567 124 CURVE SMOOTH",
"408 124 LINE",
"408 512 LINE",
"556 512 LINE SMOOTH",
"807 512 OFFCURVE",
"1124 512 OFFCURVE",
"1124 852 CURVE SMOOTH",
"1124 1203 OFFCURVE",
"801 1209 OFFCURVE",
"533 1209 CURVE SMOOTH",
"82 1209 LINE SMOOTH",
"52 1209 OFFCURVE",
"35 1180 OFFCURVE",
"35 1150 CURVE SMOOTH",
"35 1115 OFFCURVE",
"48 1085 OFFCURVE",
"81 1085 CURVE SMOOTH",
"239 1085 LINE",
"239 124 LINE",
"67 124 LINE SMOOTH",
"34 124 OFFCURVE",
"21 95 OFFCURVE",
"21 59 CURVE SMOOTH",
"21 28 OFFCURVE",
"39 0 OFFCURVE",
"68 0 CURVE SMOOTH"
);
},
{
closed = 1;
nodes = (
"408 1085 LINE",
"551 1085 LINE SMOOTH",
"731 1085 OFFCURVE",
"952 1085 OFFCURVE",
"952 863 CURVE SMOOTH",
"952 629 OFFCURVE",
"757 627 OFFCURVE",
"590 627 CURVE SMOOTH",
"408 627 LINE"
);
}
);
width = 1163;
},
{
layerId = "1027097C-2ACB-4125-B942-0F8B60E4A4BD";
paths = (
{
closed = 1;
nodes = (
"770 0 LINE SMOOTH",
"803 0 OFFCURVE",
"820 21 OFFCURVE",
"820 43 CURVE SMOOTH",
"820 64 OFFCURVE",
"804 86 OFFCURVE",
"771 86 CURVE SMOOTH",
"442 86 LINE",
"442 527 LINE",
"558 527 LINE SMOOTH",
"815 527 OFFCURVE",
"1068 540 OFFCURVE",
"1068 847 CURVE SMOOTH",
"1068 1154 OFFCURVE",
"802 1171 OFFCURVE",
"532 1171 CURVE SMOOTH",
"188 1171 LINE SMOOTH",
"155 1171 OFFCURVE",
"138 1149 OFFCURVE",
"138 1127 CURVE SMOOTH",
"138 1106 OFFCURVE",
"154 1085 OFFCURVE",
"187 1085 CURVE SMOOTH",
"346 1085 LINE",
"346 86 LINE",
"173 86 LINE SMOOTH",
"140 86 OFFCURVE",
"123 64 OFFCURVE",
"123 43 CURVE SMOOTH",
"123 21 OFFCURVE",
"140 0 OFFCURVE",
"174 0 CURVE SMOOTH"
);
},
{
closed = 1;
nodes = (
"442 1085 LINE",
"552 1085 LINE SMOOTH",
"742 1085 OFFCURVE",
"972 1085 OFFCURVE",
"972 843 CURVE SMOOTH",
"972 616 OFFCURVE",
"788 607 OFFCURVE",
"594 607 CURVE SMOOTH",
"442 607 LINE"
);
}
);
width = 1240;
},
{
layerId = "87D9408F-A41F-4898-A746-FF2057AB3891";
paths = (
{
closed = 1;
nodes = (
"665 0 LINE SMOOTH",
"698 0 OFFCURVE",
"717 28 OFFCURVE",
"717 59 CURVE SMOOTH",
"717 95 OFFCURVE",
"702 124 OFFCURVE",
"666 124 CURVE SMOOTH",
"451 124 LINE",
"451 512 LINE",
"603 512 LINE SMOOTH",
"905 512 OFFCURVE",
"1203 526 OFFCURVE",
"1203 852 CURVE SMOOTH",
"1203 1191 OFFCURVE",
"892 1209 OFFCURVE",
"577 1209 CURVE SMOOTH",
"116 1209 LINE SMOOTH",
"83 1209 OFFCURVE",
"64 1181 OFFCURVE",
"64 1150 CURVE SMOOTH",
"64 1115 OFFCURVE",
"79 1085 OFFCURVE",
"115 1085 CURVE SMOOTH",
"286 1085 LINE",
"286 124 LINE",
"100 124 LINE SMOOTH",
"64 124 OFFCURVE",
"49 95 OFFCURVE",
"49 59 CURVE SMOOTH",
"49 28 OFFCURVE",
"68 0 OFFCURVE",
"101 0 CURVE SMOOTH"
);
},
{
closed = 1;
nodes = (
"451 1085 LINE",
"597 1085 LINE SMOOTH",
"795 1085 OFFCURVE",
"1036 1085 OFFCURVE",
"1036 863 CURVE SMOOTH",
"1036 637 OFFCURVE",
"843 627 OFFCURVE",
"640 627 CURVE SMOOTH",
"451 627 LINE"
);
}
);
width = 1279;
}
);
unicode = 0050;
},
{
glyphname = Thorn;
lastChange = "2018-12-09 22:05:41 +0000";
layers = (
{
layerId = master01;
paths = (
{
closed = 1;
nodes = (
"596 0 LINE SMOOTH",
"625 0 OFFCURVE",
"634 20 OFFCURVE",
"634 41 CURVE SMOOTH",
"634 60 OFFCURVE",
"627 82 OFFCURVE",
"596 82 CURVE SMOOTH",
"395 82 LINE",
"395 318 LINE",
"662 318 OFFCURVE",
"969 321 OFFCURVE",
"969 619 CURVE SMOOTH",
"969 927 OFFCURVE",
"680 928 OFFCURVE",
"395 928 CURVE",
"395 1085 LINE",
"538 1085 LINE SMOOTH",
"568 1085 OFFCURVE",
"576 1108 OFFCURVE",
"576 1130 CURVE SMOOTH",
"576 1150 OFFCURVE",
"570 1171 OFFCURVE",
"546 1171 CURVE SMOOTH",
"113 1171 LINE SMOOTH",
"83 1171 OFFCURVE",
"74 1149 OFFCURVE",
"74 1127 CURVE SMOOTH",
"74 1106 OFFCURVE",
"81 1085 OFFCURVE",
"111 1085 CURVE SMOOTH",
"294 1085 LINE",
"294 82 LINE",
"99 82 LINE SMOOTH",
"69 82 OFFCURVE",
"61 61 OFFCURVE",
"61 41 CURVE SMOOTH",
"61 20 OFFCURVE",
"70 0 OFFCURVE",
"100 0 CURVE SMOOTH"
);
},
{
closed = 1;
nodes = (
"395 851 LINE",
"757 851 OFFCURVE",
"868 802 OFFCURVE",
"868 626 CURVE SMOOTH",
"868 433 OFFCURVE",
"741 392 OFFCURVE",
"395 392 CURVE"
);
}
);
width = 1045;
},
{
layerId = "48AFDEF4-2FAB-4AB6-AB64-D7DFD8485508";
paths = (
{
closed = 1;
nodes = (
"626 0 LINE SMOOTH",
"655 0 OFFCURVE",
"676 29 OFFCURVE",
"676 59 CURVE SMOOTH",
"676 94 OFFCURVE",
"661 125 OFFCURVE",
"626 125 CURVE SMOOTH",
"437 125 LINE",
"437 325 LINE",
"714 325 OFFCURVE",
"1014 333 OFFCURVE",
"1014 641 CURVE SMOOTH",
"1014 960 OFFCURVE",
"733 960 OFFCURVE",
"437 960 CURVE",
"437 1085 LINE",
"566 1085 LINE SMOOTH",
"598 1085 OFFCURVE",
"615 1115 OFFCURVE",
"615 1150 CURVE SMOOTH",
"615 1180 OFFCURVE",
"598 1209 OFFCURVE",
"574 1209 CURVE SMOOTH",
"124 1209 LINE SMOOTH",
"96 1209 OFFCURVE",
"74 1181 OFFCURVE",
"74 1150 CURVE SMOOTH",
"74 1115 OFFCURVE",
"90 1085 OFFCURVE",
"123 1085 CURVE SMOOTH",
"267 1085 LINE",
"267 125 LINE",
"110 125 LINE SMOOTH",
"77 125 OFFCURVE",
"61 95 OFFCURVE",
"61 59 CURVE SMOOTH",
"61 29 OFFCURVE",
"82 0 OFFCURVE",
"111 0 CURVE SMOOTH"
);
},
{
closed = 1;
nodes = (
"437 842 LINE",
"693 842 OFFCURVE",
"841 830 OFFCURVE",
"841 648 CURVE SMOOTH",
"841 449 OFFCURVE",
"712 441 OFFCURVE",
"437 441 CURVE"
);
}
);
width = 1079;
},
{
layerId = "1027097C-2ACB-4125-B942-0F8B60E4A4BD";
paths = (
{
closed = 1;
nodes = (
"655 0 LINE SMOOTH",
"688 0 OFFCURVE",
"695 20 OFFCURVE",
"695 41 CURVE SMOOTH",
"695 61 OFFCURVE",
"689 82 OFFCURVE",
"656 82 CURVE SMOOTH",
"429 82 LINE",
"429 318 LINE",
"724 318 OFFCURVE",
"1067 321 OFFCURVE",
"1067 619 CURVE SMOOTH",
"1067 927 OFFCURVE",
"743 928 OFFCURVE",
"429 928 CURVE",
"429 1085 LINE",
"592 1085 LINE SMOOTH",
"625 1085 OFFCURVE",
"631 1108 OFFCURVE",
"631 1130 CURVE SMOOTH",
"631 1151 OFFCURVE",
"627 1171 OFFCURVE",
"600 1171 CURVE SMOOTH",
"123 1171 LINE SMOOTH",
"89 1171 OFFCURVE",
"82 1149 OFFCURVE",
"82 1127 CURVE SMOOTH",
"82 1106 OFFCURVE",
"88 1085 OFFCURVE",
"121 1085 CURVE SMOOTH",
"333 1085 LINE",
"333 82 LINE",
"108 82 LINE SMOOTH",
"75 82 OFFCURVE",
"68 61 OFFCURVE",
"68 41 CURVE SMOOTH",
"68 20 OFFCURVE",
"75 0 OFFCURVE",
"109 0 CURVE SMOOTH"
);
},
{
closed = 1;
nodes = (
"429 851 LINE",
"856 851 OFFCURVE",
"971 802 OFFCURVE",
"971 626 CURVE SMOOTH",
"971 433 OFFCURVE",
"830 392 OFFCURVE",
"429 392 CURVE"
);
}
);
width = 1154;
},
{
layerId = "87D9408F-A41F-4898-A746-FF2057AB3891";
paths = (
{
closed = 1;
nodes = (
"685 0 LINE SMOOTH",
"718 0 OFFCURVE",
"737 29 OFFCURVE",
"737 59 CURVE SMOOTH",
"737 95 OFFCURVE",
"723 125 OFFCURVE",
"686 125 CURVE SMOOTH",
"471 125 LINE",
"471 325 LINE",
"776 325 OFFCURVE",
"1112 333 OFFCURVE",
"1112 641 CURVE SMOOTH",
"1112 960 OFFCURVE",
"796 960 OFFCURVE",
"471 960 CURVE",
"471 1085 LINE",
"620 1085 LINE SMOOTH",
"655 1085 OFFCURVE",
"670 1115 OFFCURVE",
"670 1150 CURVE SMOOTH",
"670 1181 OFFCURVE",
"655 1209 OFFCURVE",
"628 1209 CURVE SMOOTH",
"134 1209 LINE SMOOTH",
"102 1209 OFFCURVE",
"82 1181 OFFCURVE",
"82 1150 CURVE SMOOTH",
"82 1115 OFFCURVE",
"97 1085 OFFCURVE",
"133 1085 CURVE SMOOTH",
"306 1085 LINE",
"306 125 LINE",
"119 125 LINE SMOOTH",
"83 125 OFFCURVE",
"68 95 OFFCURVE",
"68 59 CURVE SMOOTH",
"68 29 OFFCURVE",
"87 0 OFFCURVE",
"120 0 CURVE SMOOTH"
);
},
{
closed = 1;
nodes = (
"471 842 LINE",
"792 842 OFFCURVE",
"944 830 OFFCURVE",
"944 648 CURVE SMOOTH",
"944 449 OFFCURVE",
"801 441 OFFCURVE",
"471 441 CURVE"
);
}
);
width = 1188;
}
);
unicode = 00DE;
},
{
glyphname = Q;
lastChange = "2018-12-08 23:27:58 +0000";
layers = (
{
layerId = master01;
paths = (
{
closed = 1;
nodes = (
"889 -17 OFFCURVE",
"1056 281 OFFCURVE",
"1056 582 CURVE SMOOTH",
"1056 883 OFFCURVE",
"889 1187 OFFCURVE",
"576 1187 CURVE SMOOTH",
"262 1187 OFFCURVE",
"95 883 OFFCURVE",
"95 582 CURVE SMOOTH",
"95 281 OFFCURVE",
"262 -17 OFFCURVE",
"576 -17 CURVE SMOOTH"
);
},
{
closed = 1;
nodes = (
"877 -246 OFFCURVE",
"1021 -186 OFFCURVE",
"1021 -130 CURVE SMOOTH",
"1021 -108 OFFCURVE",
"1000 -86 OFFCURVE",
"977 -86 CURVE SMOOTH",
"968 -86 OFFCURVE",
"960 -88 OFFCURVE",
"950 -96 CURVE SMOOTH",
"891 -142 OFFCURVE",
"842 -162 OFFCURVE",
"802 -162 CURVE SMOOTH",
"764 -162 OFFCURVE",
"736 -139 OFFCURVE",
"705 -110 CURVE SMOOTH",
"607 -17 LINE",
"481 -5 LINE",
"610 -177 OFFCURVE",
"662 -246 OFFCURVE",
"812 -246 CURVE SMOOTH"
);
},
{
closed = 1;
nodes = (
"322 69 OFFCURVE",
"199 326 OFFCURVE",
"199 582 CURVE SMOOTH",
"199 841 OFFCURVE",
"324 1101 OFFCURVE",
"576 1101 CURVE SMOOTH",
"827 1101 OFFCURVE",
"953 841 OFFCURVE",
"953 582 CURVE SMOOTH",
"953 327 OFFCURVE",
"830 69 OFFCURVE",
"576 69 CURVE SMOOTH"
);
}
);
width = 1154;
},
{
layerId = "48AFDEF4-2FAB-4AB6-AB64-D7DFD8485508";
paths = (
{
closed = 1;
nodes = (
"1008 -25 OFFCURVE",
"1236 222 OFFCURVE",
"1236 600 CURVE SMOOTH",
"1236 981 OFFCURVE",
"1008 1236 OFFCURVE",
"661 1236 CURVE SMOOTH",
"313 1236 OFFCURVE",
"85 981 OFFCURVE",
"85 600 CURVE SMOOTH",
"85 222 OFFCURVE",
"313 -25 OFFCURVE",
"661 -25 CURVE SMOOTH"
);
},
{
closed = 1;
nodes = (
"1086 -246 OFFCURVE",
"1269 -197 OFFCURVE",
"1269 -112 CURVE SMOOTH",
"1269 -73 OFFCURVE",
"1229 -36 OFFCURVE",
"1189 -36 CURVE SMOOTH",
"1181 -36 OFFCURVE",
"1171 -39 OFFCURVE",
"1164 -45 CURVE SMOOTH",
"1115 -84 OFFCURVE",
"1075 -106 OFFCURVE",
"1038 -106 CURVE SMOOTH",
"1021 -106 OFFCURVE",
"1000 -103 OFFCURVE",
"982 -91 CURVE",
"771 36 LINE",
"605 14 LINE",
"749 -16 OFFCURVE",
"833 -246 OFFCURVE",
"1022 -246 CURVE SMOOTH"
);
},
{
closed = 1;
nodes = (
"397 110 OFFCURVE",
"271 351 OFFCURVE",
"271 595 CURVE SMOOTH",
"271 842 OFFCURVE",
"395 1101 OFFCURVE",
"661 1101 CURVE",
"926 1101 OFFCURVE",
"1051 842 OFFCURVE",
"1051 595 CURVE SMOOTH",
"1051 352 OFFCURVE",
"925 110 OFFCURVE",
"661 110 CURVE SMOOTH"
);
}
);
width = 1337;
},
{
layerId = "1027097C-2ACB-4125-B942-0F8B60E4A4BD";
paths = (
{
closed = 1;
nodes = (
"961 -17 OFFCURVE",
"1132 281 OFFCURVE",
"1132 582 CURVE SMOOTH",
"1132 883 OFFCURVE",
"961 1187 OFFCURVE",
"620 1187 CURVE SMOOTH",
"279 1187 OFFCURVE",
"108 883 OFFCURVE",
"108 582 CURVE SMOOTH",
"108 281 OFFCURVE",
"279 -17 OFFCURVE",
"620 -17 CURVE SMOOTH"
);
},
{
closed = 1;
nodes = (
"927 -246 OFFCURVE",
"1077 -186 OFFCURVE",
"1077 -130 CURVE SMOOTH",
"1077 -108 OFFCURVE",
"1059 -86 OFFCURVE",
"1037 -86 CURVE SMOOTH",
"1028 -86 OFFCURVE",
"1018 -88 OFFCURVE",
"1008 -95 CURVE SMOOTH",
"938 -142 OFFCURVE",
"882 -162 OFFCURVE",
"836 -162 CURVE SMOOTH",
"793 -162 OFFCURVE",
"756 -144 OFFCURVE",
"722 -108 CURVE SMOOTH",
"636 -17 LINE",
"506 -5 LINE",
"646 -177 OFFCURVE",
"696 -246 OFFCURVE",
"854 -246 CURVE SMOOTH"
);
},
{
closed = 1;
nodes = (
"340 69 OFFCURVE",
"204 326 OFFCURVE",
"204 582 CURVE SMOOTH",
"204 842 OFFCURVE",
"344 1101 OFFCURVE",
"620 1101 CURVE SMOOTH",
"896 1101 OFFCURVE",
"1036 842 OFFCURVE",
"1036 582 CURVE SMOOTH",
"1036 326 OFFCURVE",
"900 69 OFFCURVE",
"620 69 CURVE SMOOTH"
);
}
);
width = 1240;
},
{
layerId = "87D9408F-A41F-4898-A746-FF2057AB3891";
paths = (
{
closed = 1;
nodes = (
"1080 -25 OFFCURVE",
"1312 222 OFFCURVE",
"1312 600 CURVE SMOOTH",
"1312 981 OFFCURVE",
"1080 1236 OFFCURVE",
"705 1236 CURVE SMOOTH",
"330 1236 OFFCURVE",
"98 981 OFFCURVE",
"98 600 CURVE SMOOTH",
"98 222 OFFCURVE",
"330 -25 OFFCURVE",
"705 -25 CURVE SMOOTH"
);
},
{
closed = 1;
nodes = (
"1136 -246 OFFCURVE",
"1325 -197 OFFCURVE",
"1325 -112 CURVE SMOOTH",
"1325 -73 OFFCURVE",
"1288 -36 OFFCURVE",
"1249 -36 CURVE SMOOTH",
"1239 -36 OFFCURVE",
"1229 -39 OFFCURVE",
"1221 -45 CURVE SMOOTH",
"1162 -84 OFFCURVE",
"1114 -106 OFFCURVE",
"1072 -106 CURVE SMOOTH",
"1046 -106 OFFCURVE",
"1020 -103 OFFCURVE",
"997 -91 CURVE",
"800 36 LINE",
"630 14 LINE",
"785 -16 OFFCURVE",
"867 -246 OFFCURVE",
"1064 -246 CURVE SMOOTH"
);
},
{
closed = 1;
nodes = (
"415 110 OFFCURVE",
"276 351 OFFCURVE",
"276 595 CURVE SMOOTH",
"276 842 OFFCURVE",
"415 1101 OFFCURVE",
"705 1101 CURVE",
"995 1101 OFFCURVE",
"1134 842 OFFCURVE",
"1134 595 CURVE SMOOTH",
"1134 351 OFFCURVE",
"995 110 OFFCURVE",
"705 110 CURVE SMOOTH"
);
}
);
width = 1423;
}
);
unicode = 0051;
},
{
glyphname = R;
lastChange = "2018-12-08 23:31:29 +0000";
layers = (
{
anchors = (
{
name = bottom;
position = "{674, 0}";
},
{
name = top;
position = "{674, 1171}";
}
);
layerId = master01;
paths = (
{
closed = 1;
nodes = (
"558 0 LINE SMOOTH",
"587 0 OFFCURVE",
"603 21 OFFCURVE",
"603 41 CURVE SMOOTH",
"603 61 OFFCURVE",
"589 82 OFFCURVE",
"559 82 CURVE SMOOTH",
"395 82 LINE",
"395 542 LINE",
"550 542 LINE SMOOTH",
"619 542 OFFCURVE",
"700 551 OFFCURVE",
"719 556 CURVE",
"860 82 LINE",
"805 82 LINE SMOOTH",
"776 82 OFFCURVE",
"761 62 OFFCURVE",
"761 42 CURVE SMOOTH",
"761 21 OFFCURVE",
"777 0 OFFCURVE",
"807 0 CURVE SMOOTH",
"1045 0 LINE SMOOTH",
"1086 0 OFFCURVE",
"1104 21 OFFCURVE",
"1104 42 CURVE SMOOTH",
"1104 62 OFFCURVE",
"1090 82 OFFCURVE",
"1044 82 CURVE SMOOTH",
"965 82 LINE",
"785 616 LINE",
"770 601 OFFCURVE",
"761 611 OFFCURVE",
"757 578 CURVE",
"867 616 OFFCURVE",
"970 699 OFFCURVE",
"970 853 CURVE SMOOTH",
"970 1138 OFFCURVE",
"748 1171 OFFCURVE",
"510 1171 CURVE SMOOTH",
"202 1171 LINE SMOOTH",
"172 1171 OFFCURVE",
"155 1149 OFFCURVE",
"155 1127 CURVE SMOOTH",
"155 1106 OFFCURVE",
"171 1085 OFFCURVE",
"201 1085 CURVE SMOOTH",
"294 1085 LINE",
"294 82 LINE",
"175 82 LINE SMOOTH",
"145 82 OFFCURVE",
"130 62 OFFCURVE",
"130 41 CURVE SMOOTH",
"130 21 OFFCURVE",
"146 0 OFFCURVE",
"176 0 CURVE SMOOTH"
);
},
{
closed = 1;
nodes = (
"395 1085 LINE",
"505 1085 LINE SMOOTH",
"692 1085 OFFCURVE",
"868 1076 OFFCURVE",
"868 846 CURVE SMOOTH",
"868 637 OFFCURVE",
"691 619 OFFCURVE",
"496 619 CURVE SMOOTH",
"395 619 LINE"
);
}
);
width = 1144;
},
{
anchors = (
{
name = bottom;
position = "{724, 0}";
},
{
name = top;
position = "{724, 1210}";
}
);
layerId = "48AFDEF4-2FAB-4AB6-AB64-D7DFD8485508";
paths = (
{
closed = 1;
nodes = (
"607 0 LINE SMOOTH",
"636 0 OFFCURVE",
"654 29 OFFCURVE",
"654 59 CURVE SMOOTH",
"654 94 OFFCURVE",
"642 125 OFFCURVE",
"609 125 CURVE SMOOTH",
"438 125 LINE",
"438 539 LINE",
"578 539 LINE SMOOTH",
"781 539 OFFCURVE",
"831 432 OFFCURVE",
"858 323 CURVE SMOOTH",
"908 125 LINE",
"813 125 LINE SMOOTH",
"780 125 OFFCURVE",
"767 94 OFFCURVE",
"767 59 CURVE SMOOTH",
"767 28 OFFCURVE",
"785 0 OFFCURVE",
"814 0 CURVE SMOOTH",
"1180 0 LINE SMOOTH",
"1215 0 OFFCURVE",
"1251 4 OFFCURVE",
"1251 59 CURVE SMOOTH",
"1251 112 OFFCURVE",
"1228 125 OFFCURVE",
"1179 125 CURVE SMOOTH",
"1080 125 LINE",
"999 379 LINE SMOOTH",
"969 474 OFFCURVE",
"911 544 OFFCURVE",
"757 576 CURVE",
"947 608 OFFCURVE",
"1103 689 OFFCURVE",
"1103 881 CURVE SMOOTH",
"1103 1210 OFFCURVE",
"767 1210 OFFCURVE",
"551 1210 CURVE SMOOTH",
"145 1210 LINE SMOOTH",
"115 1210 OFFCURVE",
"97 1180 OFFCURVE",
"97 1150 CURVE SMOOTH",
"97 1116 OFFCURVE",
"110 1085 OFFCURVE",
"144 1085 CURVE SMOOTH",
"268 1085 LINE",
"268 125 LINE",
"117 125 LINE SMOOTH",
"84 125 OFFCURVE",
"71 95 OFFCURVE",
"71 59 CURVE SMOOTH",
"71 28 OFFCURVE",
"89 0 OFFCURVE",
"118 0 CURVE SMOOTH"
);
},
{
closed = 1;
nodes = (
"438 1085 LINE",
"525 1085 LINE SMOOTH",
"691 1085 OFFCURVE",
"926 1085 OFFCURVE",
"926 874 CURVE SMOOTH",
"926 665 OFFCURVE",
"737 665 OFFCURVE",
"562 665 CURVE SMOOTH",
"438 665 LINE"
);
}
);
width = 1278;
},
{
anchors = (
{
name = bottom;
position = "{737, 0}";
},
{
name = top;
position = "{737, 1171}";
}
);
layerId = "1027097C-2ACB-4125-B942-0F8B60E4A4BD";
paths = (
{
closed = 1;
nodes = (
"608 0 LINE SMOOTH",
"642 0 OFFCURVE",
"658 21 OFFCURVE",
"658 41 CURVE SMOOTH",
"658 62 OFFCURVE",
"642 82 OFFCURVE",
"609 82 CURVE SMOOTH",
"429 82 LINE",
"429 542 LINE",
"604 542 LINE SMOOTH",
"651 542 OFFCURVE",
"750 551 OFFCURVE",
"764 556 CURVE",
"944 82 LINE",
"893 82 LINE SMOOTH",
"860 82 OFFCURVE",
"844 62 OFFCURVE",
"844 42 CURVE SMOOTH",
"844 21 OFFCURVE",
"861 0 OFFCURVE",
"895 0 CURVE SMOOTH",
"1130 0 LINE SMOOTH",
"1177 0 OFFCURVE",
"1193 21 OFFCURVE",
"1193 42 CURVE SMOOTH",
"1193 62 OFFCURVE",
"1179 82 OFFCURVE",
"1129 82 CURVE SMOOTH",
"1045 82 LINE",
"869 509 LINE",
"860 532 OFFCURVE",
"850 555 OFFCURVE",
"841 578 CURVE",
"945 616 OFFCURVE",
"1047 699 OFFCURVE",
"1047 853 CURVE SMOOTH",
"1047 1124 OFFCURVE",
"847 1171 OFFCURVE",
"557 1171 CURVE SMOOTH",
"237 1171 LINE SMOOTH",
"203 1171 OFFCURVE",
"186 1149 OFFCURVE",
"186 1127 CURVE SMOOTH",
"186 1106 OFFCURVE",
"203 1085 OFFCURVE",
"236 1085 CURVE SMOOTH",
"333 1085 LINE",
"333 82 LINE",
"208 82 LINE SMOOTH",
"175 82 OFFCURVE",
"158 62 OFFCURVE",
"158 41 CURVE SMOOTH",
"158 21 OFFCURVE",
"175 0 OFFCURVE",
"209 0 CURVE SMOOTH"
);
},
{
closed = 1;
nodes = (
"429 1085 LINE",
"556 1085 LINE SMOOTH",
"838 1085 OFFCURVE",
"951 1050 OFFCURVE",
"951 846 CURVE SMOOTH",
"951 647 OFFCURVE",
"784 619 OFFCURVE",
"536 619 CURVE SMOOTH",
"429 619 LINE"
);
}
);
width = 1240;
},
{
anchors = (
{
name = bottom;
position = "{787, 0}";
},
{
name = top;
position = "{787, 1210}";
}
);
layerId = "87D9408F-A41F-4898-A746-FF2057AB3891";
paths = (
{
closed = 1;
nodes = (
"657 0 LINE SMOOTH",
"690 0 OFFCURVE",
"709 28 OFFCURVE",
"709 59 CURVE SMOOTH",
"709 95 OFFCURVE",
"695 125 OFFCURVE",
"659 125 CURVE SMOOTH",
"472 125 LINE",
"472 539 LINE",
"632 539 LINE SMOOTH",
"812 539 OFFCURVE",
"871 431 OFFCURVE",
"913 325 CURVE SMOOTH",
"992 125 LINE",
"901 125 LINE SMOOTH",
"865 125 OFFCURVE",
"850 95 OFFCURVE",
"850 59 CURVE SMOOTH",
"850 28 OFFCURVE",
"869 0 OFFCURVE",
"902 0 CURVE SMOOTH",
"1265 0 LINE SMOOTH",
"1309 0 OFFCURVE",
"1340 6 OFFCURVE",
"1340 59 CURVE SMOOTH",
"1340 108 OFFCURVE",
"1321 125 OFFCURVE",
"1264 125 CURVE SMOOTH",
"1160 125 LINE",
"1054 381 LINE SMOOTH",
"1017 470 OFFCURVE",
"970 543 OFFCURVE",
"841 576 CURVE",
"1025 608 OFFCURVE",
"1180 689 OFFCURVE",
"1180 881 CURVE SMOOTH",
"1180 1184 OFFCURVE",
"905 1210 OFFCURVE",
"598 1210 CURVE SMOOTH",
"180 1210 LINE SMOOTH",
"147 1210 OFFCURVE",
"128 1181 OFFCURVE",
"128 1150 CURVE SMOOTH",
"128 1115 OFFCURVE",
"143 1085 OFFCURVE",
"179 1085 CURVE SMOOTH",
"307 1085 LINE",
"307 125 LINE",
"150 125 LINE SMOOTH",
"114 125 OFFCURVE",
"99 95 OFFCURVE",
"99 59 CURVE SMOOTH",
"99 28 OFFCURVE",
"118 0 OFFCURVE",
"151 0 CURVE SMOOTH"
);
},
{
closed = 1;
nodes = (
"472 1085 LINE",
"576 1085 LINE SMOOTH",
"786 1085 OFFCURVE",
"1009 1085 OFFCURVE",
"1009 874 CURVE SMOOTH",
"1009 668 OFFCURVE",
"817 665 OFFCURVE",
"602 665 CURVE SMOOTH",
"472 665 LINE"
);
}
);
width = 1374;
}
);
unicode = 0052;
},
{
glyphname = S;
lastChange = "2018-12-08 16:54:01 +0000";
layers = (
{
anchors = (
{
name = bottom;
position = "{661, -17}";
},
{
name = top;
position = "{661, 1185}";
}
);
layerId = master01;
paths = (
{
closed = 1;
nodes = (
"319 -17 OFFCURVE",
"332 28 OFFCURVE",
"332 105 CURVE",
"403 26 OFFCURVE",
"525 -17 OFFCURVE",
"619 -17 CURVE SMOOTH",
"802 -17 OFFCURVE",
"971 71 OFFCURVE",
"971 308 CURVE SMOOTH",
"971 494 OFFCURVE",
"842 563 OFFCURVE",
"694 619 CURVE SMOOTH",
"560 670 LINE SMOOTH",
"424 722 OFFCURVE",
"356 748 OFFCURVE",
"356 886 CURVE SMOOTH",
"356 1018 OFFCURVE",
"437 1101 OFFCURVE",
"602 1101 CURVE SMOOTH",
"706 1101 OFFCURVE",
"829 1053 OFFCURVE",
"839 949 CURVE",
"839 858 LINE SMOOTH",
"839 827 OFFCURVE",
"861 811 OFFCURVE",
"883 811 CURVE SMOOTH",
"908 811 OFFCURVE",
"928 828 OFFCURVE",
"928 864 CURVE SMOOTH",
"928 1134 LINE SMOOTH",
"928 1170 OFFCURVE",
"907 1187 OFFCURVE",
"884 1187 CURVE SMOOTH",
"850 1187 OFFCURVE",
"839 1154 OFFCURVE",
"839 1095 CURVE",
"777 1171 OFFCURVE",
"667 1187 OFFCURVE",
"581 1187 CURVE SMOOTH",
"404 1187 OFFCURVE",
"257 1081 OFFCURVE",
"257 881 CURVE SMOOTH",
"257 698 OFFCURVE",
"371 640 OFFCURVE",
"515 587 CURVE SMOOTH",
"675 528 LINE SMOOTH",
"792 485 OFFCURVE",
"874 436 OFFCURVE",
"874 304 CURVE SMOOTH",
"874 133 OFFCURVE",
"751 69 OFFCURVE",
"617 69 CURVE SMOOTH",
"473 69 OFFCURVE",
"327 164 OFFCURVE",
"327 250 CURVE SMOOTH",
"327 369 LINE SMOOTH",
"327 402 OFFCURVE",
"306 418 OFFCURVE",
"283 418 CURVE SMOOTH",
"259 418 OFFCURVE",
"239 403 OFFCURVE",
"239 371 CURVE SMOOTH",
"239 38 LINE SMOOTH",
"239 0 OFFCURVE",
"260 -17 OFFCURVE",
"285 -17 CURVE SMOOTH"
);
}
);
width = 1133;
},
{
anchors = (
{
name = bottom;
position = "{858, -8}";
},
{
name = top;
position = "{858, 1194}";
}
);
layerId = "48AFDEF4-2FAB-4AB6-AB64-D7DFD8485508";
paths = (
{
closed = 1;
nodes = (
"327 -17 OFFCURVE",
"357 -7 OFFCURVE",
"358 68 CURVE",
"449 4 OFFCURVE",
"523 -17 OFFCURVE",
"628 -17 CURVE SMOOTH",
"849 -17 OFFCURVE",
"1065 75 OFFCURVE",
"1065 337 CURVE SMOOTH",
"1065 555 OFFCURVE",
"915 636 OFFCURVE",
"785 672 CURVE SMOOTH",
"588 727 LINE SMOOTH",
"535 742 OFFCURVE",
"433 768 OFFCURVE",
"433 910 CURVE SMOOTH",
"433 1002 OFFCURVE",
"476 1101 OFFCURVE",
"673 1101 CURVE SMOOTH",
"795 1101 OFFCURVE",
"892 1063 OFFCURVE",
"904 956 CURVE",
"904 888 LINE",
"904 848 OFFCURVE",
"932 832 OFFCURVE",
"964 832 CURVE SMOOTH",
"1001 832 OFFCURVE",
"1027 848 OFFCURVE",
"1027 888 CURVE",
"1027 1164 LINE",
"1027 1193 OFFCURVE",
"995 1211 OFFCURVE",
"970 1211 CURVE SMOOTH",
"933 1211 OFFCURVE",
"905 1171 OFFCURVE",
"905 1133 CURVE",
"844 1189 OFFCURVE",
"750 1211 OFFCURVE",
"659 1211 CURVE SMOOTH",
"448 1211 OFFCURVE",
"276 1093 OFFCURVE",
"276 877 CURVE SMOOTH",
"276 705 OFFCURVE",
"384 611 OFFCURVE",
"537 575 CURVE",
"761 507 LINE SMOOTH",
"831 486 OFFCURVE",
"921 451 OFFCURVE",
"921 326 CURVE SMOOTH",
"921 146 OFFCURVE",
"733 106 OFFCURVE",
"619 106 CURVE SMOOTH",
"421 106 OFFCURVE",
"353 228 OFFCURVE",
"353 286 CURVE SMOOTH",
"353 373 LINE",
"353 416 OFFCURVE",
"325 429 OFFCURVE",
"293 429 CURVE SMOOTH",
"257 429 OFFCURVE",
"230 416 OFFCURVE",
"230 373 CURVE",
"230 39 LINE SMOOTH",
"230 -2 OFFCURVE",
"261 -17 OFFCURVE",
"297 -17 CURVE SMOOTH"
);
}
);
width = 1216;
},
{
anchors = (
{
name = bottom;
position = "{689, -17}";
},
{
name = top;
position = "{689, 1185}";
}
);
layerId = "1027097C-2ACB-4125-B942-0F8B60E4A4BD";
paths = (
{
closed = 1;
nodes = (
"353 -17 OFFCURVE",
"363 28 OFFCURVE",
"363 105 CURVE",
"437 27 OFFCURVE",
"582 -17 OFFCURVE",
"689 -17 CURVE SMOOTH",
"881 -17 OFFCURVE",
"1057 71 OFFCURVE",
"1057 308 CURVE SMOOTH",
"1057 497 OFFCURVE",
"915 564 OFFCURVE",
"751 621 CURVE SMOOTH",
"615 668 LINE SMOOTH",
"453 724 OFFCURVE",
"378 748 OFFCURVE",
"378 886 CURVE SMOOTH",
"378 1018 OFFCURVE",
"479 1101 OFFCURVE",
"650 1101 CURVE SMOOTH",
"767 1101 OFFCURVE",
"906 1053 OFFCURVE",
"918 949 CURVE",
"918 858 LINE SMOOTH",
"918 827 OFFCURVE",
"940 811 OFFCURVE",
"963 811 CURVE SMOOTH",
"988 811 OFFCURVE",
"1009 828 OFFCURVE",
"1009 864 CURVE SMOOTH",
"1009 1134 LINE SMOOTH",
"1009 1170 OFFCURVE",
"988 1187 OFFCURVE",
"963 1187 CURVE SMOOTH",
"925 1187 OFFCURVE",
"917 1154 OFFCURVE",
"917 1095 CURVE",
"848 1171 OFFCURVE",
"723 1187 OFFCURVE",
"627 1187 CURVE SMOOTH",
"439 1187 OFFCURVE",
"282 1081 OFFCURVE",
"282 881 CURVE SMOOTH",
"282 697 OFFCURVE",
"410 640 OFFCURVE",
"567 586 CURVE SMOOTH",
"731 530 LINE SMOOTH",
"859 486 OFFCURVE",
"961 442 OFFCURVE",
"961 304 CURVE SMOOTH",
"961 133 OFFCURVE",
"838 69 OFFCURVE",
"692 69 CURVE SMOOTH",
"526 69 OFFCURVE",
"358 164 OFFCURVE",
"358 250 CURVE SMOOTH",
"358 369 LINE SMOOTH",
"358 402 OFFCURVE",
"336 418 OFFCURVE",
"312 418 CURVE SMOOTH",
"288 418 OFFCURVE",
"268 403 OFFCURVE",
"268 371 CURVE SMOOTH",
"268 38 LINE SMOOTH",
"268 0 OFFCURVE",
"288 -17 OFFCURVE",
"314 -17 CURVE SMOOTH"
);
}
);
width = 1240;
},
{
anchors = (
{
name = bottom;
position = "{886, -8}";
},
{
name = top;
position = "{886, 1194}";
}
);
layerId = "87D9408F-A41F-4898-A746-FF2057AB3891";
paths = (
{
closed = 1;
nodes = (
"362 -17 OFFCURVE",
"388 -7 OFFCURVE",
"389 68 CURVE",
"478 7 OFFCURVE",
"585 -17 OFFCURVE",
"684 -17 CURVE SMOOTH",
"928 -17 OFFCURVE",
"1151 79 OFFCURVE",
"1151 320 CURVE SMOOTH",
"1151 560 OFFCURVE",
"995 636 OFFCURVE",
"842 674 CURVE SMOOTH",
"643 724 LINE SMOOTH",
"537 751 OFFCURVE",
"455 792 OFFCURVE",
"455 896 CURVE SMOOTH",
"455 1002 OFFCURVE",
"507 1101 OFFCURVE",
"731 1101 CURVE SMOOTH",
"850 1101 OFFCURVE",
"971 1062 OFFCURVE",
"983 956 CURVE",
"983 888 LINE",
"983 848 OFFCURVE",
"1011 832 OFFCURVE",
"1044 832 CURVE SMOOTH",
"1081 832 OFFCURVE",
"1108 848 OFFCURVE",
"1108 888 CURVE",
"1108 1164 LINE",
"1108 1193 OFFCURVE",
"1076 1211 OFFCURVE",
"1047 1211 CURVE SMOOTH",
"1009 1211 OFFCURVE",
"983 1172 OFFCURVE",
"983 1133 CURVE",
"915 1189 OFFCURVE",
"805 1211 OFFCURVE",
"708 1211 CURVE SMOOTH",
"483 1211 OFFCURVE",
"301 1090 OFFCURVE",
"301 885 CURVE SMOOTH",
"301 698 OFFCURVE",
"422 613 OFFCURVE",
"589 575 CURVE",
"817 510 LINE SMOOTH",
"904 485 OFFCURVE",
"1008 457 OFFCURVE",
"1008 321 CURVE SMOOTH",
"1008 147 OFFCURVE",
"826 106 OFFCURVE",
"666 106 CURVE SMOOTH",
"523 106 OFFCURVE",
"384 200 OFFCURVE",
"384 286 CURVE SMOOTH",
"384 373 LINE",
"384 416 OFFCURVE",
"355 429 OFFCURVE",
"322 429 CURVE SMOOTH",
"286 429 OFFCURVE",
"259 416 OFFCURVE",
"259 373 CURVE",
"259 39 LINE SMOOTH",
"259 -2 OFFCURVE",
"289 -17 OFFCURVE",
"326 -17 CURVE SMOOTH"
);
}
);
width = 1323;
},
{
anchors = (
{
name = bottom;
position = "{831, -8}";
},
{
name = top;
position = "{831, 1194}";
}
);
associatedMasterId = "48AFDEF4-2FAB-4AB6-AB64-D7DFD8485508";
layerId = "79F70844-91DD-4F88-9F43-9DCE5829DB40";
name = "Dec 8 18, 18:52";
paths = (
{
closed = 1;
nodes = (
"296 -17 OFFCURVE",
"326 -7 OFFCURVE",
"328 68 CURVE",
"417 2 OFFCURVE",
"467 -17 OFFCURVE",
"561 -17 CURVE SMOOTH",
"771 -17 OFFCURVE",
"979 76 OFFCURVE",
"979 337 CURVE SMOOTH",
"979 549 OFFCURVE",
"841 636 OFFCURVE",
"729 670 CURVE SMOOTH",
"533 729 LINE SMOOTH",
"489 742 OFFCURVE",
"412 770 OFFCURVE",
"412 918 CURVE SMOOTH",
"412 1002 OFFCURVE",
"437 1101 OFFCURVE",
"623 1101 CURVE SMOOTH",
"734 1101 OFFCURVE",
"815 1066 OFFCURVE",
"827 956 CURVE",
"827 888 LINE",
"827 848 OFFCURVE",
"853 832 OFFCURVE",
"886 832 CURVE SMOOTH",
"922 832 OFFCURVE",
"948 848 OFFCURVE",
"948 888 CURVE",
"948 1164 LINE",
"948 1193 OFFCURVE",
"917 1211 OFFCURVE",
"890 1211 CURVE SMOOTH",
"853 1211 OFFCURVE",
"828 1172 OFFCURVE",
"828 1133 CURVE",
"774 1189 OFFCURVE",
"696 1211 OFFCURVE",
"611 1211 CURVE SMOOTH",
"414 1211 OFFCURVE",
"253 1094 OFFCURVE",
"253 873 CURVE SMOOTH",
"253 703 OFFCURVE",
"349 610 OFFCURVE",
"485 575 CURVE",
"705 505 LINE SMOOTH",
"762 487 OFFCURVE",
"836 445 OFFCURVE",
"836 330 CURVE SMOOTH",
"836 147 OFFCURVE",
"650 106 OFFCURVE",
"547 106 CURVE SMOOTH",
"355 106 OFFCURVE",
"324 250 OFFCURVE",
"324 286 CURVE SMOOTH",
"324 373 LINE",
"324 416 OFFCURVE",
"296 429 OFFCURVE",
"264 429 CURVE SMOOTH",
"228 429 OFFCURVE",
"202 416 OFFCURVE",
"202 373 CURVE",
"202 39 LINE SMOOTH",
"202 -2 OFFCURVE",
"233 -17 OFFCURVE",
"269 -17 CURVE SMOOTH"
);
}
);
width = 1110;
}
);
unicode = 0053;
},
{
glyphname = T;
lastChange = "2018-12-08 23:36:56 +0000";
layers = (
{
anchors = (
{
name = bottom;
position = "{592, 0}";
},
{
name = center;
position = "{592, 604}";
},
{
name = top;
position = "{592, 1209}";
}
);
layerId = master01;
paths = (
{
closed = 1;
nodes = (
"845 0 LINE SMOOTH",
"874 0 OFFCURVE",
"891 22 OFFCURVE",
"891 44 CURVE SMOOTH",
"891 65 OFFCURVE",
"876 86 OFFCURVE",
"847 86 CURVE SMOOTH",
"640 86 LINE",
"640 1085 LINE",
"959 1085 LINE",
"971 814 LINE SMOOTH",
"972 786 OFFCURVE",
"992 771 OFFCURVE",
"1013 771 CURVE SMOOTH",
"1035 771 OFFCURVE",
"1054 788 OFFCURVE",
"1054 823 CURVE SMOOTH",
"1052 1117 LINE SMOOTH",
"1052 1152 OFFCURVE",
"1041 1171 OFFCURVE",
"1016 1171 CURVE SMOOTH",
"170 1171 LINE SMOOTH",
"143 1171 OFFCURVE",
"132 1154 OFFCURVE",
"132 1117 CURVE SMOOTH",
"130 823 LINE SMOOTH",
"130 788 OFFCURVE",
"151 769 OFFCURVE",
"174 769 CURVE SMOOTH",
"192 769 OFFCURVE",
"212 780 OFFCURVE",
"214 814 CURVE SMOOTH",
"227 1085 LINE",
"540 1085 LINE",
"540 86 LINE",
"333 86 LINE SMOOTH",
"304 86 OFFCURVE",
"288 65 OFFCURVE",
"288 44 CURVE SMOOTH",
"288 22 OFFCURVE",
"305 0 OFFCURVE",
"335 0 CURVE SMOOTH"
);
}
);
width = 1182;
},
{
anchors = (
{
name = bottom;
position = "{762, 0}";
},
{
name = center;
position = "{762, 604}";
},
{
name = top;
position = "{762, 1209}";
}
);
layerId = "48AFDEF4-2FAB-4AB6-AB64-D7DFD8485508";
paths = (
{
closed = 1;
nodes = (
"988 0 LINE SMOOTH",
"1019 0 OFFCURVE",
"1035 29 OFFCURVE",
"1035 59 CURVE SMOOTH",
"1035 95 OFFCURVE",
"1023 124 OFFCURVE",
"990 124 CURVE SMOOTH",
"838 124 LINE",
"838 1085 LINE",
"1165 1085 LINE",
"1187 882 LINE SMOOTH",
"1191 847 OFFCURVE",
"1210 835 OFFCURVE",
"1244 835 CURVE SMOOTH",
"1274 835 OFFCURVE",
"1287 858 OFFCURVE",
"1287 891 CURVE",
"1275 1154 LINE SMOOTH",
"1273 1190 OFFCURVE",
"1263 1209 OFFCURVE",
"1236 1209 CURVE SMOOTH",
"289 1209 LINE SMOOTH",
"260 1209 OFFCURVE",
"252 1191 OFFCURVE",
"250 1154 CURVE SMOOTH",
"237 891 LINE",
"237 858 OFFCURVE",
"250 835 OFFCURVE",
"280 835 CURVE SMOOTH",
"314 835 OFFCURVE",
"333 846 OFFCURVE",
"337 882 CURVE SMOOTH",
"359 1085 LINE",
"670 1085 LINE",
"670 124 LINE",
"518 124 LINE SMOOTH",
"485 124 OFFCURVE",
"473 94 OFFCURVE",
"473 59 CURVE SMOOTH",
"473 28 OFFCURVE",
"491 0 OFFCURVE",
"520 0 CURVE SMOOTH"
);
}
);
width = 1502;
},
{
anchors = (
{
name = bottom;
position = "{619, 0}";
},
{
name = center;
position = "{619, 604}";
},
{
name = top;
position = "{619, 1209}";
}
);
layerId = "1027097C-2ACB-4125-B942-0F8B60E4A4BD";
paths = (
{
closed = 1;
nodes = (
"906 0 LINE SMOOTH",
"939 0 OFFCURVE",
"957 22 OFFCURVE",
"957 44 CURVE SMOOTH",
"957 65 OFFCURVE",
"940 86 OFFCURVE",
"908 86 CURVE SMOOTH",
"666 86 LINE",
"666 1085 LINE",
"1018 1085 LINE",
"1028 814 LINE SMOOTH",
"1029 786 OFFCURVE",
"1052 771 OFFCURVE",
"1072 771 CURVE SMOOTH",
"1095 771 OFFCURVE",
"1118 788 OFFCURVE",
"1118 823 CURVE SMOOTH",
"1118 1117 LINE SMOOTH",
"1118 1152 OFFCURVE",
"1107 1171 OFFCURVE",
"1078 1171 CURVE SMOOTH",
"162 1171 LINE SMOOTH",
"131 1171 OFFCURVE",
"120 1153 OFFCURVE",
"120 1117 CURVE SMOOTH",
"120 823 LINE SMOOTH",
"120 788 OFFCURVE",
"145 769 OFFCURVE",
"169 769 CURVE SMOOTH",
"188 769 OFFCURVE",
"209 783 OFFCURVE",
"210 814 CURVE SMOOTH",
"222 1085 LINE",
"570 1085 LINE",
"570 86 LINE",
"328 86 LINE SMOOTH",
"295 86 OFFCURVE",
"278 65 OFFCURVE",
"278 44 CURVE SMOOTH",
"278 22 OFFCURVE",
"296 0 OFFCURVE",
"330 0 CURVE SMOOTH"
);
}
);
width = 1240;
},
{
anchors = (
{
name = bottom;
position = "{789, 0}";
},
{
name = center;
position = "{789, 604}";
},
{
name = top;
position = "{789, 1209}";
}
);
layerId = "87D9408F-A41F-4898-A746-FF2057AB3891";
paths = (
{
closed = 1;
nodes = (
"1049 0 LINE SMOOTH",
"1083 0 OFFCURVE",
"1101 28 OFFCURVE",
"1101 59 CURVE SMOOTH",
"1101 95 OFFCURVE",
"1087 124 OFFCURVE",
"1051 124 CURVE SMOOTH",
"864 124 LINE",
"864 1085 LINE",
"1224 1085 LINE",
"1245 882 LINE SMOOTH",
"1249 847 OFFCURVE",
"1269 835 OFFCURVE",
"1303 835 CURVE SMOOTH",
"1334 835 OFFCURVE",
"1351 858 OFFCURVE",
"1351 891 CURVE",
"1341 1154 LINE SMOOTH",
"1340 1190 OFFCURVE",
"1327 1209 OFFCURVE",
"1298 1209 CURVE SMOOTH",
"281 1209 LINE SMOOTH",
"247 1209 OFFCURVE",
"239 1187 OFFCURVE",
"238 1154 CURVE SMOOTH",
"227 891 LINE",
"227 858 OFFCURVE",
"244 835 OFFCURVE",
"275 835 CURVE SMOOTH",
"308 835 OFFCURVE",
"329 846 OFFCURVE",
"333 882 CURVE SMOOTH",
"354 1085 LINE",
"700 1085 LINE",
"700 124 LINE",
"513 124 LINE SMOOTH",
"477 124 OFFCURVE",
"463 95 OFFCURVE",
"463 59 CURVE SMOOTH",
"463 28 OFFCURVE",
"482 0 OFFCURVE",
"515 0 CURVE SMOOTH"
);
}
);
width = 1560;
}
);
unicode = 0054;
},
{
glyphname = Tbar;
lastChange = "2018-12-09 23:17:01 +0000";
layers = (
{
components = (
{
name = T;
}
);
layerId = master01;
paths = (
{
closed = 1;
nodes = (
"837 572 LINE SMOOTH",
"870 572 OFFCURVE",
"878 592 OFFCURVE",
"878 611 CURVE SMOOTH",
"878 630 OFFCURVE",
"872 648 OFFCURVE",
"839 648 CURVE SMOOTH",
"400 648 LINE SMOOTH",
"365 648 OFFCURVE",
"358 630 OFFCURVE",
"358 611 CURVE SMOOTH",
"358 592 OFFCURVE",
"367 572 OFFCURVE",
"404 572 CURVE SMOOTH"
);
}
);
width = 1182;
},
{
components = (
{
name = T;
}
);
layerId = "48AFDEF4-2FAB-4AB6-AB64-D7DFD8485508";
paths = (
{
closed = 1;
nodes = (
"1038 572 LINE SMOOTH",
"1071 572 OFFCURVE",
"1079 600 OFFCURVE",
"1079 627 CURVE SMOOTH",
"1079 653 OFFCURVE",
"1073 678 OFFCURVE",
"1040 678 CURVE SMOOTH",
"541 678 LINE SMOOTH",
"506 678 OFFCURVE",
"499 653 OFFCURVE",
"499 627 CURVE SMOOTH",
"499 600 OFFCURVE",
"508 572 OFFCURVE",
"545 572 CURVE SMOOTH"
);
}
);
width = 1502;
},
{
components = (
{
name = T;
}
);
layerId = "1027097C-2ACB-4125-B942-0F8B60E4A4BD";
paths = (
{
closed = 1;
nodes = (
"837 572 LINE SMOOTH",
"870 572 OFFCURVE",
"878 592 OFFCURVE",
"878 611 CURVE SMOOTH",
"878 630 OFFCURVE",
"872 648 OFFCURVE",
"839 648 CURVE SMOOTH",
"400 648 LINE SMOOTH",
"365 648 OFFCURVE",
"358 630 OFFCURVE",
"358 611 CURVE SMOOTH",
"358 592 OFFCURVE",
"367 572 OFFCURVE",
"404 572 CURVE SMOOTH"
);
}
);
width = 1240;
},
{
components = (
{
name = T;
}
);
layerId = "87D9408F-A41F-4898-A746-FF2057AB3891";
paths = (
{
closed = 1;
nodes = (
"1038 572 LINE SMOOTH",
"1071 572 OFFCURVE",
"1079 600 OFFCURVE",
"1079 627 CURVE SMOOTH",
"1079 653 OFFCURVE",
"1073 678 OFFCURVE",
"1040 678 CURVE SMOOTH",
"541 678 LINE SMOOTH",
"506 678 OFFCURVE",
"499 653 OFFCURVE",
"499 627 CURVE SMOOTH",
"499 600 OFFCURVE",
"508 572 OFFCURVE",
"545 572 CURVE SMOOTH"
);
}
);
width = 1560;
}
);
unicode = 0166;
},
{
glyphname = U;
lastChange = "2018-12-09 23:44:53 +0000";
layers = (
{
anchors = (
{
name = ogonek;
position = "{1139, 8}";
},
{
name = top;
position = "{619, 1209}";
}
);
layerId = master01;
paths = (
{
closed = 1;
nodes = (
"834 -17 OFFCURVE",
"984 158 OFFCURVE",
"984 411 CURVE SMOOTH",
"984 1085 LINE",
"1091 1085 LINE SMOOTH",
"1130 1085 OFFCURVE",
"1149 1106 OFFCURVE",
"1149 1127 CURVE SMOOTH",
"1149 1149 OFFCURVE",
"1129 1171 OFFCURVE",
"1090 1171 CURVE SMOOTH",
"779 1171 LINE SMOOTH",
"748 1171 OFFCURVE",
"732 1149 OFFCURVE",
"732 1127 CURVE SMOOTH",
"732 1106 OFFCURVE",
"748 1085 OFFCURVE",
"777 1085 CURVE SMOOTH",
"889 1085 LINE",
"889 411 LINE SMOOTH",
"889 211 OFFCURVE",
"781 69 OFFCURVE",
"614 69 CURVE SMOOTH",
"435 69 OFFCURVE",
"335 195 OFFCURVE",
"335 413 CURVE SMOOTH",
"335 1085 LINE",
"477 1085 LINE SMOOTH",
"506 1085 OFFCURVE",
"521 1106 OFFCURVE",
"521 1127 CURVE SMOOTH",
"521 1149 OFFCURVE",
"505 1171 OFFCURVE",
"476 1171 CURVE SMOOTH",
"112 1171 LINE SMOOTH",
"83 1171 OFFCURVE",
"67 1149 OFFCURVE",
"67 1127 CURVE SMOOTH",
"67 1106 OFFCURVE",
"82 1085 OFFCURVE",
"112 1085 CURVE SMOOTH",
"234 1085 LINE",
"234 413 LINE SMOOTH",
"234 142 OFFCURVE",
"390 -17 OFFCURVE",
"614 -17 CURVE SMOOTH"
);
}
);
width = 1149;
},
{
anchors = (
{
name = ogonek;
position = "{1236, 8}";
},
{
name = top;
position = "{716, 1209}";
}
);
layerId = "48AFDEF4-2FAB-4AB6-AB64-D7DFD8485508";
paths = (
{
closed = 1;
nodes = (
"977 -17 OFFCURVE",
"1142 164 OFFCURVE",
"1142 425 CURVE SMOOTH",
"1142 1085 LINE",
"1254 1085 LINE SMOOTH",
"1283 1085 OFFCURVE",
"1293 1114 OFFCURVE",
"1293 1150 CURVE SMOOTH",
"1293 1181 OFFCURVE",
"1277 1209 OFFCURVE",
"1252 1209 CURVE SMOOTH",
"885 1209 LINE SMOOTH",
"854 1209 OFFCURVE",
"836 1181 OFFCURVE",
"836 1150 CURVE SMOOTH",
"836 1115 OFFCURVE",
"849 1085 OFFCURVE",
"882 1085 CURVE SMOOTH",
"1008 1085 LINE",
"1008 425 LINE SMOOTH",
"1008 240 OFFCURVE",
"901 109 OFFCURVE",
"735 109 CURVE SMOOTH",
"552 109 OFFCURVE",
"449 225 OFFCURVE",
"449 426 CURVE SMOOTH",
"449 1085 LINE",
"572 1085 LINE SMOOTH",
"605 1085 OFFCURVE",
"617 1115 OFFCURVE",
"617 1150 CURVE SMOOTH",
"617 1181 OFFCURVE",
"600 1209 OFFCURVE",
"571 1209 CURVE SMOOTH",
"196 1209 LINE SMOOTH",
"167 1209 OFFCURVE",
"149 1181 OFFCURVE",
"149 1150 CURVE SMOOTH",
"149 1115 OFFCURVE",
"162 1085 OFFCURVE",
"196 1085 CURVE SMOOTH",
"279 1085 LINE",
"279 426 LINE SMOOTH",
"279 147 OFFCURVE",
"467 -17 OFFCURVE",
"735 -17 CURVE SMOOTH"
);
}
);
width = 1296;
},
{
anchors = (
{
name = ogonek;
position = "{1243, 8}";
},
{
name = top;
position = "{665, 1209}";
}
);
layerId = "1027097C-2ACB-4125-B942-0F8B60E4A4BD";
paths = (
{
closed = 1;
nodes = (
"893 -17 OFFCURVE",
"1056 157 OFFCURVE",
"1056 411 CURVE SMOOTH",
"1056 1085 LINE",
"1174 1085 LINE SMOOTH",
"1220 1085 OFFCURVE",
"1243 1106 OFFCURVE",
"1243 1127 CURVE SMOOTH",
"1243 1149 OFFCURVE",
"1220 1171 OFFCURVE",
"1173 1171 CURVE SMOOTH",
"840 1171 LINE SMOOTH",
"806 1171 OFFCURVE",
"789 1149 OFFCURVE",
"789 1127 CURVE SMOOTH",
"789 1106 OFFCURVE",
"806 1085 OFFCURVE",
"839 1085 CURVE SMOOTH",
"960 1085 LINE",
"960 411 LINE SMOOTH",
"960 211 OFFCURVE",
"840 69 OFFCURVE",
"654 69 CURVE SMOOTH",
"455 69 OFFCURVE",
"345 195 OFFCURVE",
"345 413 CURVE SMOOTH",
"345 1085 LINE",
"507 1085 LINE SMOOTH",
"540 1085 OFFCURVE",
"556 1106 OFFCURVE",
"556 1127 CURVE SMOOTH",
"556 1149 OFFCURVE",
"539 1171 OFFCURVE",
"506 1171 CURVE SMOOTH",
"105 1171 LINE SMOOTH",
"72 1171 OFFCURVE",
"55 1149 OFFCURVE",
"55 1127 CURVE SMOOTH",
"55 1106 OFFCURVE",
"71 1085 OFFCURVE",
"104 1085 CURVE SMOOTH",
"249 1085 LINE",
"249 413 LINE SMOOTH",
"249 142 OFFCURVE",
"415 -17 OFFCURVE",
"654 -17 CURVE SMOOTH"
);
}
);
width = 1243;
},
{
anchors = (
{
name = ogonek;
position = "{1340, 8}";
},
{
name = top;
position = "{762, 1209}";
}
);
layerId = "87D9408F-A41F-4898-A746-FF2057AB3891";
paths = (
{
closed = 1;
nodes = (
"1036 -17 OFFCURVE",
"1214 163 OFFCURVE",
"1214 425 CURVE SMOOTH",
"1214 1085 LINE",
"1337 1085 LINE SMOOTH",
"1373 1085 OFFCURVE",
"1387 1114 OFFCURVE",
"1387 1150 CURVE SMOOTH",
"1387 1181 OFFCURVE",
"1368 1209 OFFCURVE",
"1335 1209 CURVE SMOOTH",
"946 1209 LINE SMOOTH",
"912 1209 OFFCURVE",
"893 1181 OFFCURVE",
"893 1150 CURVE SMOOTH",
"893 1114 OFFCURVE",
"908 1085 OFFCURVE",
"944 1085 CURVE SMOOTH",
"1079 1085 LINE",
"1079 425 LINE SMOOTH",
"1079 240 OFFCURVE",
"960 109 OFFCURVE",
"775 109 CURVE SMOOTH",
"572 109 OFFCURVE",
"459 225 OFFCURVE",
"459 426 CURVE SMOOTH",
"459 1085 LINE",
"602 1085 LINE SMOOTH",
"638 1085 OFFCURVE",
"652 1114 OFFCURVE",
"652 1150 CURVE SMOOTH",
"652 1181 OFFCURVE",
"634 1209 OFFCURVE",
"601 1209 CURVE SMOOTH",
"189 1209 LINE SMOOTH",
"156 1209 OFFCURVE",
"137 1181 OFFCURVE",
"137 1150 CURVE SMOOTH",
"137 1114 OFFCURVE",
"152 1085 OFFCURVE",
"188 1085 CURVE SMOOTH",
"294 1085 LINE",
"294 426 LINE SMOOTH",
"294 147 OFFCURVE",
"492 -17 OFFCURVE",
"775 -17 CURVE SMOOTH"
);
}
);
width = 1389;
}
);
unicode = 0055;
},
{
glyphname = V;
lastChange = "2018-12-08 23:43:40 +0000";
layers = (
{
layerId = master01;
paths = (
{
closed = 1;
nodes = (
"653 -36 OFFCURVE",
"665 -16 OFFCURVE",
"679 20 CURVE",
"979 1085 LINE",
"1063 1085 LINE SMOOTH",
"1093 1085 OFFCURVE",
"1108 1107 OFFCURVE",
"1108 1128 CURVE SMOOTH",
"1108 1150 OFFCURVE",
"1091 1171 OFFCURVE",
"1062 1171 CURVE SMOOTH",
"774 1171 LINE SMOOTH",
"744 1171 OFFCURVE",
"728 1150 OFFCURVE",
"728 1128 CURVE SMOOTH",
"728 1107 OFFCURVE",
"743 1085 OFFCURVE",
"773 1085 CURVE SMOOTH",
"879 1085 LINE",
"629 119 LINE",
"355 1085 LINE",
"470 1085 LINE SMOOTH",
"500 1085 OFFCURVE",
"514 1107 OFFCURVE",
"514 1128 CURVE SMOOTH",
"514 1150 OFFCURVE",
"498 1171 OFFCURVE",
"469 1171 CURVE SMOOTH",
"143 1171 LINE SMOOTH",
"114 1171 OFFCURVE",
"98 1149 OFFCURVE",
"98 1127 CURVE SMOOTH",
"98 1106 OFFCURVE",
"112 1085 OFFCURVE",
"142 1085 CURVE SMOOTH",
"245 1085 LINE",
"563 20 LINE SMOOTH",
"573 -13 OFFCURVE",
"588 -36 OFFCURVE",
"621 -36 CURVE SMOOTH"
);
}
);
width = 1163;
},
{
layerId = "48AFDEF4-2FAB-4AB6-AB64-D7DFD8485508";
paths = (
{
closed = 1;
nodes = (
"762 -36 OFFCURVE",
"773 -15 OFFCURVE",
"788 22 CURVE",
"1160 1085 LINE",
"1278 1085 LINE SMOOTH",
"1311 1085 OFFCURVE",
"1324 1115 OFFCURVE",
"1324 1150 CURVE SMOOTH",
"1324 1180 OFFCURVE",
"1306 1209 OFFCURVE",
"1276 1209 CURVE SMOOTH",
"917 1209 LINE SMOOTH",
"888 1209 OFFCURVE",
"870 1181 OFFCURVE",
"870 1150 CURVE SMOOTH",
"870 1116 OFFCURVE",
"881 1085 OFFCURVE",
"915 1085 CURVE SMOOTH",
"1015 1085 LINE",
"750 235 LINE",
"473 1085 LINE",
"571 1085 LINE SMOOTH",
"604 1085 OFFCURVE",
"617 1115 OFFCURVE",
"617 1150 CURVE SMOOTH",
"617 1181 OFFCURVE",
"599 1209 OFFCURVE",
"570 1209 CURVE SMOOTH",
"150 1209 LINE SMOOTH",
"121 1209 OFFCURVE",
"104 1181 OFFCURVE",
"104 1150 CURVE SMOOTH",
"104 1115 OFFCURVE",
"116 1085 OFFCURVE",
"150 1085 CURVE SMOOTH",
"298 1085 LINE",
"668 22 LINE SMOOTH",
"679 -9 OFFCURVE",
"692 -36 OFFCURVE",
"727 -36 CURVE SMOOTH"
);
}
);
width = 1387;
},
{
layerId = "1027097C-2ACB-4125-B942-0F8B60E4A4BD";
paths = (
{
closed = 1;
nodes = (
"702 -36 OFFCURVE",
"714 -16 OFFCURVE",
"730 20 CURVE",
"1046 1085 LINE",
"1132 1085 LINE SMOOTH",
"1165 1085 OFFCURVE",
"1181 1107 OFFCURVE",
"1181 1128 CURVE SMOOTH",
"1181 1150 OFFCURVE",
"1164 1171 OFFCURVE",
"1131 1171 CURVE SMOOTH",
"827 1171 LINE SMOOTH",
"793 1171 OFFCURVE",
"776 1150 OFFCURVE",
"776 1128 CURVE SMOOTH",
"776 1107 OFFCURVE",
"793 1085 OFFCURVE",
"826 1085 CURVE SMOOTH",
"946 1085 LINE",
"671 119 LINE",
"368 1085 LINE",
"499 1085 LINE SMOOTH",
"532 1085 OFFCURVE",
"548 1107 OFFCURVE",
"548 1128 CURVE SMOOTH",
"548 1150 OFFCURVE",
"531 1171 OFFCURVE",
"498 1171 CURVE SMOOTH",
"158 1171 LINE SMOOTH",
"125 1171 OFFCURVE",
"108 1149 OFFCURVE",
"108 1127 CURVE SMOOTH",
"108 1106 OFFCURVE",
"124 1085 OFFCURVE",
"156 1085 CURVE SMOOTH",
"260 1085 LINE",
"602 20 LINE SMOOTH",
"613 -13 OFFCURVE",
"629 -36 OFFCURVE",
"666 -36 CURVE SMOOTH"
);
}
);
width = 1240;
},
{
layerId = "87D9408F-A41F-4898-A746-FF2057AB3891";
paths = (
{
closed = 1;
nodes = (
"810 -36 OFFCURVE",
"822 -15 OFFCURVE",
"839 22 CURVE",
"1227 1085 LINE",
"1347 1085 LINE SMOOTH",
"1383 1085 OFFCURVE",
"1397 1115 OFFCURVE",
"1397 1150 CURVE SMOOTH",
"1397 1181 OFFCURVE",
"1378 1209 OFFCURVE",
"1345 1209 CURVE SMOOTH",
"970 1209 LINE SMOOTH",
"937 1209 OFFCURVE",
"918 1181 OFFCURVE",
"918 1150 CURVE SMOOTH",
"918 1115 OFFCURVE",
"932 1085 OFFCURVE",
"968 1085 CURVE SMOOTH",
"1082 1085 LINE",
"792 235 LINE",
"486 1085 LINE",
"600 1085 LINE SMOOTH",
"636 1085 OFFCURVE",
"651 1115 OFFCURVE",
"651 1150 CURVE SMOOTH",
"651 1181 OFFCURVE",
"632 1209 OFFCURVE",
"599 1209 CURVE SMOOTH",
"165 1209 LINE SMOOTH",
"132 1209 OFFCURVE",
"114 1181 OFFCURVE",
"114 1150 CURVE SMOOTH",
"114 1115 OFFCURVE",
"128 1085 OFFCURVE",
"164 1085 CURVE SMOOTH",
"313 1085 LINE",
"707 22 LINE SMOOTH",
"718 -9 OFFCURVE",
"734 -36 OFFCURVE",
"772 -36 CURVE SMOOTH"
);
}
);
width = 1464;
}
);
unicode = 0056;
},
{
glyphname = W;
lastChange = "2018-12-09 00:03:14 +0000";
layers = (
{
anchors = (
{
name = top;
position = "{628, 1209}";
}
);
layerId = master01;
paths = (
{
closed = 1;
nodes = (
"416 -17 OFFCURVE",
"438 -3 OFFCURVE",
"446 27 CURVE SMOOTH",
"619 701 LINE",
"774 35 LINE SMOOTH",
"782 1 OFFCURVE",
"804 -17 OFFCURVE",
"826 -17 CURVE SMOOTH",
"850 -17 OFFCURVE",
"872 -3 OFFCURVE",
"877 27 CURVE SMOOTH",
"1055 1085 LINE",
"1128 1085 LINE SMOOTH",
"1158 1085 OFFCURVE",
"1174 1107 OFFCURVE",
"1174 1129 CURVE SMOOTH",
"1174 1150 OFFCURVE",
"1159 1171 OFFCURVE",
"1129 1171 CURVE SMOOTH",
"863 1171 LINE SMOOTH",
"833 1171 OFFCURVE",
"819 1150 OFFCURVE",
"819 1129 CURVE SMOOTH",
"819 1107 OFFCURVE",
"835 1085 OFFCURVE",
"864 1085 CURVE SMOOTH",
"956 1085 LINE",
"825 196 LINE",
"666 850 LINE SMOOTH",
"660 874 OFFCURVE",
"646 886 OFFCURVE",
"626 886 CURVE SMOOTH",
"607 886 OFFCURVE",
"590 874 OFFCURVE",
"584 850 CURVE SMOOTH",
"413 199 LINE",
"276 1085 LINE",
"369 1085 LINE SMOOTH",
"399 1085 OFFCURVE",
"415 1107 OFFCURVE",
"415 1129 CURVE SMOOTH",
"415 1150 OFFCURVE",
"400 1171 OFFCURVE",
"370 1171 CURVE SMOOTH",
"88 1171 LINE SMOOTH",
"58 1171 OFFCURVE",
"44 1150 OFFCURVE",
"44 1129 CURVE SMOOTH",
"44 1107 OFFCURVE",
"60 1085 OFFCURVE",
"89 1085 CURVE SMOOTH",
"171 1085 LINE",
"343 35 LINE",
"347 1 OFFCURVE",
"369 -17 OFFCURVE",
"394 -17 CURVE SMOOTH"
);
}
);
width = 1235;
},
{
anchors = (
{
name = top;
position = "{818, 1209}";
}
);
layerId = "48AFDEF4-2FAB-4AB6-AB64-D7DFD8485508";
paths = (
{
closed = 1;
nodes = (
"577 -17 OFFCURVE",
"615 2 OFFCURVE",
"624 29 CURVE",
"819 802 LINE",
"986 35 LINE",
"990 1 OFFCURVE",
"1017 -17 OFFCURVE",
"1055 -17 CURVE SMOOTH",
"1089 -17 OFFCURVE",
"1121 4 OFFCURVE",
"1132 29 CURVE",
"1452 1085 LINE",
"1572 1085 LINE SMOOTH",
"1601 1085 OFFCURVE",
"1619 1114 OFFCURVE",
"1619 1145 CURVE SMOOTH",
"1619 1180 OFFCURVE",
"1607 1209 OFFCURVE",
"1574 1209 CURVE SMOOTH",
"1237 1209 LINE SMOOTH",
"1204 1209 OFFCURVE",
"1191 1180 OFFCURVE",
"1191 1145 CURVE SMOOTH",
"1191 1115 OFFCURVE",
"1208 1085 OFFCURVE",
"1238 1085 CURVE SMOOTH",
"1308 1085 LINE",
"1077 284 LINE",
"885 1110 LINE SMOOTH",
"881 1128 OFFCURVE",
"873 1145 OFFCURVE",
"838 1145 CURVE SMOOTH",
"803 1145 OFFCURVE",
"796 1126 OFFCURVE",
"791 1109 CURVE SMOOTH",
"563 270 LINE",
"364 1085 LINE",
"409 1085 LINE SMOOTH",
"439 1085 OFFCURVE",
"457 1114 OFFCURVE",
"457 1145 CURVE SMOOTH",
"457 1179 OFFCURVE",
"444 1209 OFFCURVE",
"410 1209 CURVE SMOOTH",
"79 1209 LINE SMOOTH",
"46 1209 OFFCURVE",
"34 1180 OFFCURVE",
"34 1145 CURVE SMOOTH",
"34 1114 OFFCURVE",
"51 1085 OFFCURVE",
"80 1085 CURVE SMOOTH",
"194 1085 LINE",
"470 38 LINE",
"477 1 OFFCURVE",
"501 -17 OFFCURVE",
"543 -17 CURVE SMOOTH"
);
}
);
width = 1635;
},
{
anchors = (
{
name = top;
position = "{653, 1209}";
}
);
layerId = "1027097C-2ACB-4125-B942-0F8B60E4A4BD";
paths = (
{
closed = 1;
nodes = (
"424 -17 OFFCURVE",
"446 -3 OFFCURVE",
"454 27 CURVE SMOOTH",
"641 701 LINE",
"811 35 LINE SMOOTH",
"820 1 OFFCURVE",
"843 -17 OFFCURVE",
"864 -17 CURVE SMOOTH",
"889 -17 OFFCURVE",
"911 -3 OFFCURVE",
"916 27 CURVE SMOOTH",
"1080 1085 LINE",
"1150 1085 LINE SMOOTH",
"1184 1085 OFFCURVE",
"1201 1107 OFFCURVE",
"1201 1129 CURVE SMOOTH",
"1201 1150 OFFCURVE",
"1184 1171 OFFCURVE",
"1151 1171 CURVE SMOOTH",
"872 1171 LINE SMOOTH",
"839 1171 OFFCURVE",
"823 1150 OFFCURVE",
"823 1129 CURVE SMOOTH",
"823 1107 OFFCURVE",
"840 1085 OFFCURVE",
"873 1085 CURVE SMOOTH",
"980 1085 LINE",
"858 196 LINE",
"689 850 LINE SMOOTH",
"683 874 OFFCURVE",
"664 886 OFFCURVE",
"646 886 CURVE SMOOTH",
"628 886 OFFCURVE",
"608 875 OFFCURVE",
"601 850 CURVE SMOOTH",
"424 199 LINE",
"286 1085 LINE",
"400 1085 LINE SMOOTH",
"434 1085 OFFCURVE",
"451 1107 OFFCURVE",
"451 1129 CURVE SMOOTH",
"451 1150 OFFCURVE",
"435 1171 OFFCURVE",
"402 1171 CURVE SMOOTH",
"100 1171 LINE SMOOTH",
"67 1171 OFFCURVE",
"51 1150 OFFCURVE",
"51 1129 CURVE SMOOTH",
"51 1107 OFFCURVE",
"68 1085 OFFCURVE",
"101 1085 CURVE SMOOTH",
"185 1085 LINE",
"351 35 LINE",
"355 1 OFFCURVE",
"379 -17 OFFCURVE",
"403 -17 CURVE SMOOTH"
);
}
);
width = 1240;
},
{
anchors = (
{
name = top;
position = "{843, 1209}";
}
);
layerId = "87D9408F-A41F-4898-A746-FF2057AB3891";
paths = (
{
closed = 1;
nodes = (
"587 -17 OFFCURVE",
"623 3 OFFCURVE",
"632 29 CURVE",
"841 802 LINE",
"1023 35 LINE",
"1028 1 OFFCURVE",
"1057 -17 OFFCURVE",
"1093 -17 CURVE SMOOTH",
"1128 -17 OFFCURVE",
"1160 4 OFFCURVE",
"1170 29 CURVE",
"1477 1085 LINE",
"1594 1085 LINE SMOOTH",
"1627 1085 OFFCURVE",
"1646 1114 OFFCURVE",
"1646 1145 CURVE SMOOTH",
"1646 1180 OFFCURVE",
"1632 1209 OFFCURVE",
"1596 1209 CURVE SMOOTH",
"1246 1209 LINE SMOOTH",
"1210 1209 OFFCURVE",
"1195 1180 OFFCURVE",
"1195 1145 CURVE SMOOTH",
"1195 1114 OFFCURVE",
"1214 1085 OFFCURVE",
"1247 1085 CURVE SMOOTH",
"1332 1085 LINE",
"1110 284 LINE",
"908 1110 LINE SMOOTH",
"903 1129 OFFCURVE",
"892 1145 OFFCURVE",
"858 1145 CURVE SMOOTH",
"824 1145 OFFCURVE",
"813 1126 OFFCURVE",
"808 1109 CURVE SMOOTH",
"574 270 LINE",
"374 1085 LINE",
"440 1085 LINE SMOOTH",
"474 1085 OFFCURVE",
"493 1114 OFFCURVE",
"493 1145 CURVE SMOOTH",
"493 1180 OFFCURVE",
"478 1209 OFFCURVE",
"442 1209 CURVE SMOOTH",
"91 1209 LINE SMOOTH",
"55 1209 OFFCURVE",
"41 1180 OFFCURVE",
"41 1145 CURVE SMOOTH",
"41 1114 OFFCURVE",
"59 1085 OFFCURVE",
"92 1085 CURVE SMOOTH",
"208 1085 LINE",
"478 38 LINE",
"485 1 OFFCURVE",
"512 -17 OFFCURVE",
"552 -17 CURVE SMOOTH"
);
}
);
width = 1679;
},
{
anchors = (
{
name = top;
position = "{843, 1209}";
}
);
associatedMasterId = "87D9408F-A41F-4898-A746-FF2057AB3891";
layerId = "CB484693-751D-4BBD-AA57-AEEB70A3B8BC";
name = "Dec 9 18, 01:47";
paths = (
{
closed = 1;
nodes = (
"587 -17 OFFCURVE",
"623 3 OFFCURVE",
"632 29 CURVE",
"841 802 LINE",
"1023 35 LINE",
"1028 1 OFFCURVE",
"1057 -17 OFFCURVE",
"1093 -17 CURVE SMOOTH",
"1128 -17 OFFCURVE",
"1160 4 OFFCURVE",
"1170 29 CURVE",
"1477 1085 LINE",
"1594 1085 LINE SMOOTH",
"1627 1085 OFFCURVE",
"1646 1114 OFFCURVE",
"1646 1145 CURVE SMOOTH",
"1646 1180 OFFCURVE",
"1632 1209 OFFCURVE",
"1596 1209 CURVE SMOOTH",
"1246 1209 LINE SMOOTH",
"1210 1209 OFFCURVE",
"1195 1180 OFFCURVE",
"1195 1145 CURVE SMOOTH",
"1195 1114 OFFCURVE",
"1214 1085 OFFCURVE",
"1247 1085 CURVE SMOOTH",
"1332 1085 LINE",
"1110 284 LINE",
"914 1085 LINE",
"984 1085 LINE SMOOTH",
"1017 1085 OFFCURVE",
"1036 1114 OFFCURVE",
"1036 1145 CURVE SMOOTH",
"1036 1180 OFFCURVE",
"1022 1209 OFFCURVE",
"986 1209 CURVE SMOOTH",
"736 1209 LINE SMOOTH",
"700 1209 OFFCURVE",
"686 1180 OFFCURVE",
"686 1145 CURVE SMOOTH",
"686 1114 OFFCURVE",
"705 1085 OFFCURVE",
"738 1085 CURVE SMOOTH",
"802 1085 LINE",
"574 270 LINE",
"374 1085 LINE",
"440 1085 LINE SMOOTH",
"474 1085 OFFCURVE",
"493 1114 OFFCURVE",
"493 1145 CURVE SMOOTH",
"493 1180 OFFCURVE",
"478 1209 OFFCURVE",
"442 1209 CURVE SMOOTH",
"91 1209 LINE SMOOTH",
"55 1209 OFFCURVE",
"41 1180 OFFCURVE",
"41 1145 CURVE SMOOTH",
"41 1114 OFFCURVE",
"59 1085 OFFCURVE",
"92 1085 CURVE SMOOTH",
"208 1085 LINE",
"478 38 LINE",
"485 1 OFFCURVE",
"512 -17 OFFCURVE",
"552 -17 CURVE SMOOTH"
);
}
);
width = 1679;
}
);
unicode = 0057;
},
{
glyphname = X;
lastChange = "2018-12-09 00:09:48 +0000";
layers = (
{
layerId = master01;
paths = (
{
closed = 1;
nodes = (
"460 0 LINE SMOOTH",
"490 0 OFFCURVE",
"499 20 OFFCURVE",
"499 41 CURVE SMOOTH",
"499 61 OFFCURVE",
"491 82 OFFCURVE",
"461 82 CURVE SMOOTH",
"322 82 LINE",
"593 510 LINE",
"863 82 LINE",
"714 82 LINE SMOOTH",
"684 82 OFFCURVE",
"670 61 OFFCURVE",
"670 41 CURVE SMOOTH",
"670 20 OFFCURVE",
"686 0 OFFCURVE",
"715 0 CURVE SMOOTH",
"1044 0 LINE SMOOTH",
"1074 0 OFFCURVE",
"1083 21 OFFCURVE",
"1083 42 CURVE SMOOTH",
"1083 62 OFFCURVE",
"1076 82 OFFCURVE",
"1046 82 CURVE SMOOTH",
"978 82 LINE",
"651 589 LINE",
"965 1085 LINE",
"1039 1085 LINE SMOOTH",
"1070 1085 OFFCURVE",
"1077 1107 OFFCURVE",
"1077 1127 CURVE SMOOTH",
"1077 1149 OFFCURVE",
"1068 1171 OFFCURVE",
"1038 1171 CURVE SMOOTH",
"754 1171 LINE SMOOTH",
"725 1171 OFFCURVE",
"716 1149 OFFCURVE",
"716 1127 CURVE SMOOTH",
"716 1106 OFFCURVE",
"723 1085 OFFCURVE",
"753 1085 CURVE SMOOTH",
"850 1085 LINE",
"594 676 LINE",
"339 1085 LINE",
"468 1085 LINE SMOOTH",
"498 1085 OFFCURVE",
"506 1106 OFFCURVE",
"506 1127 CURVE SMOOTH",
"506 1149 OFFCURVE",
"497 1171 OFFCURVE",
"467 1171 CURVE SMOOTH",
"148 1171 LINE SMOOTH",
"118 1171 OFFCURVE",
"109 1149 OFFCURVE",
"109 1127 CURVE SMOOTH",
"109 1107 OFFCURVE",
"116 1085 OFFCURVE",
"147 1085 CURVE SMOOTH",
"223 1085 LINE",
"536 596 LINE",
"208 82 LINE",
"122 82 LINE SMOOTH",
"92 82 OFFCURVE",
"85 60 OFFCURVE",
"85 41 CURVE SMOOTH",
"85 20 OFFCURVE",
"94 0 OFFCURVE",
"123 0 CURVE SMOOTH"
);
}
);
width = 1166;
},
{
layerId = "48AFDEF4-2FAB-4AB6-AB64-D7DFD8485508";
paths = (
{
closed = 1;
nodes = (
"552 0 LINE SMOOTH",
"582 0 OFFCURVE",
"602 28 OFFCURVE",
"602 59 CURVE SMOOTH",
"602 94 OFFCURVE",
"587 124 OFFCURVE",
"553 124 CURVE SMOOTH",
"388 124 LINE",
"706 516 LINE",
"1025 124 LINE",
"836 124 LINE SMOOTH",
"803 124 OFFCURVE",
"790 95 OFFCURVE",
"790 59 CURVE SMOOTH",
"790 28 OFFCURVE",
"808 0 OFFCURVE",
"837 0 CURVE SMOOTH",
"1311 0 LINE SMOOTH",
"1340 0 OFFCURVE",
"1361 28 OFFCURVE",
"1361 59 CURVE SMOOTH",
"1361 95 OFFCURVE",
"1345 124 OFFCURVE",
"1312 124 CURVE SMOOTH",
"1232 124 LINE",
"809 632 LINE",
"1178 1085 LINE",
"1296 1085 LINE SMOOTH",
"1330 1085 OFFCURVE",
"1345 1116 OFFCURVE",
"1345 1150 CURVE SMOOTH",
"1345 1181 OFFCURVE",
"1324 1209 OFFCURVE",
"1294 1209 CURVE SMOOTH",
"895 1209 LINE SMOOTH",
"866 1209 OFFCURVE",
"845 1181 OFFCURVE",
"845 1150 CURVE SMOOTH",
"845 1115 OFFCURVE",
"861 1085 OFFCURVE",
"894 1085 CURVE SMOOTH",
"1018 1085 LINE",
"730 725 LINE",
"441 1085 LINE",
"550 1085 LINE SMOOTH",
"583 1085 OFFCURVE",
"599 1115 OFFCURVE",
"599 1150 CURVE SMOOTH",
"599 1181 OFFCURVE",
"579 1209 OFFCURVE",
"549 1209 CURVE SMOOTH",
"147 1209 LINE SMOOTH",
"117 1209 OFFCURVE",
"96 1181 OFFCURVE",
"96 1150 CURVE SMOOTH",
"96 1116 OFFCURVE",
"111 1085 OFFCURVE",
"145 1085 CURVE SMOOTH",
"235 1085 LINE",
"626 610 LINE",
"229 124 LINE",
"99 124 LINE SMOOTH",
"66 124 OFFCURVE",
"51 94 OFFCURVE",
"51 59 CURVE SMOOTH",
"51 28 OFFCURVE",
"71 0 OFFCURVE",
"100 0 CURVE SMOOTH"
);
}
);
width = 1408;
},
{
layerId = "1027097C-2ACB-4125-B942-0F8B60E4A4BD";
paths = (
{
closed = 1;
nodes = (
"490 0 LINE SMOOTH",
"523 0 OFFCURVE",
"530 20 OFFCURVE",
"530 41 CURVE SMOOTH",
"530 61 OFFCURVE",
"524 82 OFFCURVE",
"491 82 CURVE SMOOTH",
"342 82 LINE",
"632 510 LINE",
"921 82 LINE",
"765 82 LINE SMOOTH",
"732 82 OFFCURVE",
"716 61 OFFCURVE",
"716 41 CURVE SMOOTH",
"716 20 OFFCURVE",
"733 0 OFFCURVE",
"766 0 CURVE SMOOTH",
"1098 0 LINE SMOOTH",
"1132 0 OFFCURVE",
"1139 21 OFFCURVE",
"1139 42 CURVE SMOOTH",
"1139 62 OFFCURVE",
"1133 82 OFFCURVE",
"1100 82 CURVE SMOOTH",
"1027 82 LINE",
"686 589 LINE",
"1022 1085 LINE",
"1095 1085 LINE SMOOTH",
"1128 1085 OFFCURVE",
"1134 1106 OFFCURVE",
"1134 1127 CURVE SMOOTH",
"1134 1149 OFFCURVE",
"1127 1171 OFFCURVE",
"1094 1171 CURVE SMOOTH",
"805 1171 LINE SMOOTH",
"772 1171 OFFCURVE",
"765 1149 OFFCURVE",
"765 1127 CURVE SMOOTH",
"765 1106 OFFCURVE",
"771 1085 OFFCURVE",
"804 1085 CURVE SMOOTH",
"905 1085 LINE",
"628 676 LINE",
"353 1085 LINE",
"501 1085 LINE SMOOTH",
"534 1085 OFFCURVE",
"540 1106 OFFCURVE",
"540 1127 CURVE SMOOTH",
"540 1149 OFFCURVE",
"533 1171 OFFCURVE",
"500 1171 CURVE SMOOTH",
"164 1171 LINE SMOOTH",
"131 1171 OFFCURVE",
"124 1149 OFFCURVE",
"124 1127 CURVE SMOOTH",
"124 1106 OFFCURVE",
"130 1085 OFFCURVE",
"163 1085 CURVE SMOOTH",
"245 1085 LINE",
"574 596 LINE",
"226 82 LINE",
"141 82 LINE SMOOTH",
"108 82 OFFCURVE",
"102 61 OFFCURVE",
"102 41 CURVE SMOOTH",
"102 20 OFFCURVE",
"109 0 OFFCURVE",
"142 0 CURVE SMOOTH"
);
}
);
width = 1240;
},
{
layerId = "87D9408F-A41F-4898-A746-FF2057AB3891";
paths = (
{
closed = 1;
nodes = (
"582 0 LINE SMOOTH",
"615 0 OFFCURVE",
"633 28 OFFCURVE",
"633 59 CURVE SMOOTH",
"633 95 OFFCURVE",
"619 124 OFFCURVE",
"583 124 CURVE SMOOTH",
"408 124 LINE",
"745 516 LINE",
"1083 124 LINE",
"887 124 LINE SMOOTH",
"851 124 OFFCURVE",
"836 95 OFFCURVE",
"836 59 CURVE SMOOTH",
"836 28 OFFCURVE",
"855 0 OFFCURVE",
"888 0 CURVE SMOOTH",
"1365 0 LINE SMOOTH",
"1398 0 OFFCURVE",
"1417 28 OFFCURVE",
"1417 59 CURVE SMOOTH",
"1417 95 OFFCURVE",
"1402 124 OFFCURVE",
"1366 124 CURVE SMOOTH",
"1281 124 LINE",
"844 632 LINE",
"1235 1085 LINE",
"1352 1085 LINE SMOOTH",
"1388 1085 OFFCURVE",
"1402 1115 OFFCURVE",
"1402 1150 CURVE SMOOTH",
"1402 1181 OFFCURVE",
"1383 1209 OFFCURVE",
"1350 1209 CURVE SMOOTH",
"946 1209 LINE SMOOTH",
"913 1209 OFFCURVE",
"894 1181 OFFCURVE",
"894 1150 CURVE SMOOTH",
"894 1115 OFFCURVE",
"909 1085 OFFCURVE",
"945 1085 CURVE SMOOTH",
"1073 1085 LINE",
"764 725 LINE",
"455 1085 LINE",
"583 1085 LINE SMOOTH",
"619 1085 OFFCURVE",
"633 1115 OFFCURVE",
"633 1150 CURVE SMOOTH",
"633 1181 OFFCURVE",
"615 1209 OFFCURVE",
"582 1209 CURVE SMOOTH",
"163 1209 LINE SMOOTH",
"130 1209 OFFCURVE",
"111 1181 OFFCURVE",
"111 1150 CURVE SMOOTH",
"111 1115 OFFCURVE",
"125 1085 OFFCURVE",
"161 1085 CURVE SMOOTH",
"257 1085 LINE",
"664 610 LINE",
"247 124 LINE",
"118 124 LINE SMOOTH",
"82 124 OFFCURVE",
"68 95 OFFCURVE",
"68 59 CURVE SMOOTH",
"68 28 OFFCURVE",
"86 0 OFFCURVE",
"119 0 CURVE SMOOTH"
);
}
);
width = 1482;
}
);
unicode = 0058;
},
{
glyphname = Y;
lastChange = "2018-12-09 00:10:45 +0000";
layers = (
{
anchors = (
{
name = top;
position = "{701, 1220}";
}
);
layerId = master01;
paths = (
{
closed = 1;
nodes = (
"852 0 LINE SMOOTH",
"881 0 OFFCURVE",
"897 22 OFFCURVE",
"897 44 CURVE SMOOTH",
"897 65 OFFCURVE",
"883 86 OFFCURVE",
"853 86 CURVE SMOOTH",
"660 86 LINE",
"660 548 LINE",
"957 1095 LINE",
"1016 1095 LINE SMOOTH",
"1046 1095 OFFCURVE",
"1060 1113 OFFCURVE",
"1060 1132 CURVE SMOOTH",
"1060 1151 OFFCURVE",
"1044 1171 OFFCURVE",
"1014 1171 CURVE SMOOTH",
"761 1171 LINE SMOOTH",
"731 1171 OFFCURVE",
"714 1152 OFFCURVE",
"714 1133 CURVE SMOOTH",
"714 1114 OFFCURVE",
"730 1095 OFFCURVE",
"760 1095 CURVE SMOOTH",
"861 1095 LINE",
"619 633 LINE",
"371 1095 LINE",
"486 1095 LINE SMOOTH",
"515 1095 OFFCURVE",
"531 1114 OFFCURVE",
"531 1133 CURVE SMOOTH",
"531 1152 OFFCURVE",
"515 1171 OFFCURVE",
"485 1171 CURVE SMOOTH",
"168 1171 LINE SMOOTH",
"139 1171 OFFCURVE",
"122 1152 OFFCURVE",
"122 1133 CURVE SMOOTH",
"122 1114 OFFCURVE",
"137 1095 OFFCURVE",
"167 1095 CURVE SMOOTH",
"257 1095 LINE",
"559 553 LINE",
"559 86 LINE",
"339 86 LINE SMOOTH",
"309 86 OFFCURVE",
"294 65 OFFCURVE",
"294 44 CURVE SMOOTH",
"294 22 OFFCURVE",
"311 0 OFFCURVE",
"341 0 CURVE SMOOTH"
);
}
);
width = 1182;
},
{
anchors = (
{
name = top;
position = "{701, 1220}";
}
);
layerId = "48AFDEF4-2FAB-4AB6-AB64-D7DFD8485508";
paths = (
{
closed = 1;
nodes = (
"970 0 LINE SMOOTH",
"1000 0 OFFCURVE",
"1017 28 OFFCURVE",
"1017 60 CURVE SMOOTH",
"1017 95 OFFCURVE",
"1005 125 OFFCURVE",
"971 125 CURVE SMOOTH",
"851 125 LINE",
"851 515 LINE",
"1179 1095 LINE",
"1282 1095 LINE SMOOTH",
"1315 1095 OFFCURVE",
"1328 1125 OFFCURVE",
"1328 1160 CURVE SMOOTH",
"1328 1191 OFFCURVE",
"1310 1220 OFFCURVE",
"1280 1220 CURVE SMOOTH",
"939 1220 LINE SMOOTH",
"908 1220 OFFCURVE",
"890 1191 OFFCURVE",
"890 1160 CURVE SMOOTH",
"890 1126 OFFCURVE",
"903 1095 OFFCURVE",
"937 1095 CURVE SMOOTH",
"1043 1095 LINE",
"798 634 LINE",
"552 1095 LINE",
"631 1095 LINE SMOOTH",
"664 1095 OFFCURVE",
"677 1126 OFFCURVE",
"677 1160 CURVE SMOOTH",
"677 1191 OFFCURVE",
"659 1220 OFFCURVE",
"629 1220 CURVE SMOOTH",
"220 1220 LINE SMOOTH",
"190 1220 OFFCURVE",
"172 1191 OFFCURVE",
"172 1160 CURVE SMOOTH",
"172 1125 OFFCURVE",
"185 1095 OFFCURVE",
"218 1095 CURVE SMOOTH",
"374 1095 LINE",
"680 526 LINE",
"680 125 LINE",
"533 125 LINE SMOOTH",
"499 125 OFFCURVE",
"486 95 OFFCURVE",
"486 60 CURVE SMOOTH",
"486 28 OFFCURVE",
"505 0 OFFCURVE",
"534 0 CURVE SMOOTH"
);
}
);
width = 1500;
},
{
anchors = (
{
name = top;
position = "{779, 1220}";
}
);
layerId = "1027097C-2ACB-4125-B942-0F8B60E4A4BD";
paths = (
{
closed = 1;
nodes = (
"919 0 LINE SMOOTH",
"952 0 OFFCURVE",
"969 22 OFFCURVE",
"969 44 CURVE SMOOTH",
"969 65 OFFCURVE",
"953 86 OFFCURVE",
"921 86 CURVE SMOOTH",
"689 86 LINE",
"689 548 LINE",
"1012 1095 LINE",
"1067 1095 LINE SMOOTH",
"1100 1095 OFFCURVE",
"1116 1113 OFFCURVE",
"1116 1132 CURVE SMOOTH",
"1116 1151 OFFCURVE",
"1099 1171 OFFCURVE",
"1065 1171 CURVE SMOOTH",
"804 1171 LINE SMOOTH",
"771 1171 OFFCURVE",
"753 1152 OFFCURVE",
"753 1133 CURVE SMOOTH",
"753 1114 OFFCURVE",
"770 1095 OFFCURVE",
"803 1095 CURVE SMOOTH",
"914 1095 LINE",
"646 633 LINE",
"370 1095 LINE",
"506 1095 LINE SMOOTH",
"539 1095 OFFCURVE",
"556 1114 OFFCURVE",
"556 1133 CURVE SMOOTH",
"556 1152 OFFCURVE",
"539 1171 OFFCURVE",
"505 1171 CURVE SMOOTH",
"175 1171 LINE SMOOTH",
"142 1171 OFFCURVE",
"124 1152 OFFCURVE",
"124 1133 CURVE SMOOTH",
"124 1114 OFFCURVE",
"141 1095 OFFCURVE",
"174 1095 CURVE SMOOTH",
"258 1095 LINE",
"593 553 LINE",
"593 86 LINE",
"332 86 LINE SMOOTH",
"299 86 OFFCURVE",
"282 65 OFFCURVE",
"282 44 CURVE SMOOTH",
"282 22 OFFCURVE",
"300 0 OFFCURVE",
"334 0 CURVE SMOOTH"
);
}
);
width = 1240;
},
{
anchors = (
{
name = top;
position = "{779, 1220}";
}
);
layerId = "87D9408F-A41F-4898-A746-FF2057AB3891";
paths = (
{
closed = 1;
nodes = (
"1037 0 LINE SMOOTH",
"1071 0 OFFCURVE",
"1089 28 OFFCURVE",
"1089 60 CURVE SMOOTH",
"1089 95 OFFCURVE",
"1075 125 OFFCURVE",
"1039 125 CURVE SMOOTH",
"880 125 LINE",
"880 515 LINE",
"1234 1095 LINE",
"1333 1095 LINE SMOOTH",
"1369 1095 OFFCURVE",
"1384 1125 OFFCURVE",
"1384 1160 CURVE SMOOTH",
"1384 1191 OFFCURVE",
"1365 1220 OFFCURVE",
"1331 1220 CURVE SMOOTH",
"982 1220 LINE SMOOTH",
"948 1220 OFFCURVE",
"929 1191 OFFCURVE",
"929 1160 CURVE SMOOTH",
"929 1125 OFFCURVE",
"944 1095 OFFCURVE",
"980 1095 CURVE SMOOTH",
"1096 1095 LINE",
"825 634 LINE",
"551 1095 LINE",
"651 1095 LINE SMOOTH",
"687 1095 OFFCURVE",
"702 1125 OFFCURVE",
"702 1160 CURVE SMOOTH",
"702 1191 OFFCURVE",
"683 1220 OFFCURVE",
"649 1220 CURVE SMOOTH",
"227 1220 LINE SMOOTH",
"193 1220 OFFCURVE",
"174 1191 OFFCURVE",
"174 1160 CURVE SMOOTH",
"174 1125 OFFCURVE",
"189 1095 OFFCURVE",
"225 1095 CURVE SMOOTH",
"375 1095 LINE",
"714 526 LINE",
"714 125 LINE",
"526 125 LINE SMOOTH",
"489 125 OFFCURVE",
"474 95 OFFCURVE",
"474 60 CURVE SMOOTH",
"474 28 OFFCURVE",
"494 0 OFFCURVE",
"527 0 CURVE SMOOTH"
);
}
);
width = 1558;
}
);
unicode = 0059;
},
{
glyphname = Z;
lastChange = "2018-12-09 00:15:26 +0000";
layers = (
{
anchors = (
{
name = top;
position = "{674, 1209}";
}
);
layerId = master01;
paths = (
{
closed = 1;
nodes = (
"905 0 LINE SMOOTH",
"931 0 OFFCURVE",
"951 19 OFFCURVE",
"951 53 CURVE SMOOTH",
"951 385 LINE",
"952 420 OFFCURVE",
"933 435 OFFCURVE",
"913 435 CURVE SMOOTH",
"891 435 OFFCURVE",
"866 416 OFFCURVE",
"863 384 CURVE",
"852 86 LINE",
"318 86 LINE",
"904 1081 LINE SMOOTH",
"911 1093 OFFCURVE",
"913 1105 OFFCURVE",
"913 1116 CURVE SMOOTH",
"913 1144 OFFCURVE",
"897 1171 OFFCURVE",
"869 1171 CURVE SMOOTH",
"267 1171 LINE SMOOTH",
"219 1171 OFFCURVE",
"206 1143 OFFCURVE",
"205 1116 CURVE",
"205 806 LINE SMOOTH",
"205 774 OFFCURVE",
"228 757 OFFCURVE",
"251 757 CURVE SMOOTH",
"272 757 OFFCURVE",
"291 770 OFFCURVE",
"293 797 CURVE SMOOTH",
"311 1085 LINE",
"783 1085 LINE",
"195 95 LINE SMOOTH",
"188 83 OFFCURVE",
"170 54 OFFCURVE",
"170 31 CURVE SMOOTH",
"170 14 OFFCURVE",
"184 0 OFFCURVE",
"217 0 CURVE SMOOTH"
);
}
);
width = 1113;
},
{
anchors = (
{
name = top;
position = "{674, 1209}";
}
);
layerId = "48AFDEF4-2FAB-4AB6-AB64-D7DFD8485508";
paths = (
{
closed = 1;
nodes = (
"960 0 LINE SMOOTH",
"990 0 OFFCURVE",
"1002 21 OFFCURVE",
"1014 55 CURVE",
"1058 387 LINE",
"1058 419 OFFCURVE",
"1037 440 OFFCURVE",
"1008 440 CURVE SMOOTH",
"974 440 OFFCURVE",
"947 417 OFFCURVE",
"937 386 CURVE",
"872 124 LINE",
"251 124 LINE",
"965 1104 LINE",
"973 1114 OFFCURVE",
"975 1132 OFFCURVE",
"975 1150 CURVE SMOOTH",
"975 1181 OFFCURVE",
"957 1209 OFFCURVE",
"928 1209 CURVE SMOOTH",
"159 1209 LINE SMOOTH",
"106 1209 OFFCURVE",
"92 1179 OFFCURVE",
"92 1153 CURVE",
"92 874 LINE SMOOTH",
"92 844 OFFCURVE",
"112 822 OFFCURVE",
"139 822 CURVE SMOOTH",
"169 822 OFFCURVE",
"183 848 OFFCURVE",
"195 876 CURVE",
"224 1085 LINE",
"744 1085 LINE",
"71 151 LINE SMOOTH",
"51 123 OFFCURVE",
"42 98 OFFCURVE",
"42 72 CURVE SMOOTH",
"42 37 OFFCURVE",
"66 0 OFFCURVE",
"91 0 CURVE SMOOTH"
);
}
);
width = 1100;
},
{
anchors = (
{
name = top;
position = "{749, 1209}";
}
);
layerId = "1027097C-2ACB-4125-B942-0F8B60E4A4BD";
paths = (
{
closed = 1;
nodes = (
"993 0 LINE SMOOTH",
"1022 0 OFFCURVE",
"1045 19 OFFCURVE",
"1044 53 CURVE SMOOTH",
"1034 385 LINE",
"1034 420 OFFCURVE",
"1014 435 OFFCURVE",
"993 435 CURVE SMOOTH",
"970 435 OFFCURVE",
"944 416 OFFCURVE",
"942 384 CURVE",
"942 86 LINE",
"369 86 LINE",
"991 1081 LINE SMOOTH",
"998 1092 OFFCURVE",
"1001 1105 OFFCURVE",
"1001 1116 CURVE SMOOTH",
"1001 1144 OFFCURVE",
"984 1171 OFFCURVE",
"952 1171 CURVE SMOOTH",
"322 1171 LINE SMOOTH",
"271 1171 OFFCURVE",
"255 1144 OFFCURVE",
"254 1116 CURVE",
"254 806 LINE SMOOTH",
"254 774 OFFCURVE",
"280 757 OFFCURVE",
"305 757 CURVE SMOOTH",
"325 757 OFFCURVE",
"348 768 OFFCURVE",
"350 797 CURVE SMOOTH",
"366 1085 LINE",
"880 1085 LINE",
"247 95 LINE SMOOTH",
"238 81 OFFCURVE",
"219 53 OFFCURVE",
"219 31 CURVE SMOOTH",
"219 14 OFFCURVE",
"232 0 OFFCURVE",
"271 0 CURVE SMOOTH"
);
}
);
width = 1240;
},
{
anchors = (
{
name = top;
position = "{749, 1209}";
}
);
layerId = "87D9408F-A41F-4898-A746-FF2057AB3891";
paths = (
{
closed = 1;
nodes = (
"1048 0 LINE SMOOTH",
"1081 0 OFFCURVE",
"1096 21 OFFCURVE",
"1106 55 CURVE",
"1140 387 LINE",
"1140 419 OFFCURVE",
"1118 440 OFFCURVE",
"1088 440 CURVE SMOOTH",
"1053 440 OFFCURVE",
"1025 417 OFFCURVE",
"1016 386 CURVE",
"962 124 LINE",
"302 124 LINE",
"1052 1104 LINE",
"1060 1114 OFFCURVE",
"1063 1131 OFFCURVE",
"1063 1150 CURVE SMOOTH",
"1063 1181 OFFCURVE",
"1044 1209 OFFCURVE",
"1011 1209 CURVE SMOOTH",
"214 1209 LINE SMOOTH",
"159 1209 OFFCURVE",
"142 1182 OFFCURVE",
"141 1153 CURVE",
"142 874 LINE SMOOTH",
"142 844 OFFCURVE",
"165 822 OFFCURVE",
"193 822 CURVE SMOOTH",
"223 822 OFFCURVE",
"241 848 OFFCURVE",
"251 876 CURVE",
"279 1085 LINE",
"841 1085 LINE",
"123 150 LINE SMOOTH",
"102 123 OFFCURVE",
"91 96 OFFCURVE",
"91 72 CURVE SMOOTH",
"91 37 OFFCURVE",
"114 0 OFFCURVE",
"145 0 CURVE SMOOTH"
);
}
);
width = 1227;
}
);
unicode = 005A;
},
